<?xml version="1.0" standalone="no"?>
<!DOCTYPE svg PUBLIC "-//W3C//DTD SVG 1.1//EN" "http://www.w3.org/Graphics/SVG/1.1/DTD/svg11.dtd">
<svg width="1980px" height="2975px" version="1.1" xmlns="http://www.w3.org/2000/svg" xmlns:xlink="http://www.w3.org/1999/xlink" xml:space="preserve" style="fill-rule:evenodd;clip-rule:evenodd;stroke-linecap:round;stroke-linejoin:round;stroke-miterlimit:1.41421;">
    <g>
        <g>
            <g id="port-dragonstone">
                <path d="M1391.28,1882.7C1423.59,1882.7 1449.79,1908.9 1449.79,1941.21C1449.79,1973.52 1423.59,1999.72 1391.28,1999.72C1358.97,1999.72 1332.77,1973.52 1332.77,1941.21C1332.77,1908.9 1358.97,1882.7 1391.28,1882.7Z" style="fill:none;stroke-width:1.33px;stroke:black;"/>
            </g>
            <g id="port-white-harbor">
                <path d="M913.796,1028.15C946.108,1028.15 972.303,1054.35 972.303,1086.66C972.303,1118.97 946.108,1145.17 913.796,1145.17C881.484,1145.17 855.29,1118.97 855.29,1086.66C855.29,1054.35 881.484,1028.15 913.796,1028.15Z" style="fill:none;stroke-width:1.33px;stroke:black;"/>
            </g>
            <g id="port-sunspear">
                <path d="M1337.11,2613.88C1369.42,2613.88 1395.61,2640.08 1395.61,2672.39C1395.61,2704.7 1369.42,2730.9 1337.11,2730.9C1304.79,2730.9 1278.6,2704.7 1278.6,2672.39C1278.6,2640.08 1304.79,2613.88 1337.11,2613.88Z" style="fill:none;stroke-width:1.33px;stroke:black;"/>
            </g>
            <g id="port-storms-end">
                <path d="M1173.33,2231.5C1205.64,2231.5 1231.83,2257.69 1231.83,2290.01C1231.83,2322.32 1205.64,2348.51 1173.33,2348.51C1141.02,2348.51 1114.82,2322.32 1114.82,2290.01C1114.82,2257.69 1141.02,2231.5 1173.33,2231.5Z" style="fill:none;stroke-width:1.33px;stroke:black;"/>
            </g>
            <g id="port-lannisport">
                <path d="M287.946,1696.83C320.258,1696.83 346.452,1723.03 346.452,1755.34C346.452,1787.65 320.258,1813.85 287.946,1813.85C255.634,1813.85 229.439,1787.65 229.439,1755.34C229.439,1723.03 255.634,1696.83 287.946,1696.83Z" style="fill:none;stroke-width:1.33px;stroke:black;"/>
            </g>
            <g id="port-oldtown">
                <path d="M198.074,2369.99C230.386,2369.99 256.58,2396.19 256.58,2428.5C256.58,2460.81 230.386,2487.01 198.074,2487.01C165.761,2487.01 139.567,2460.81 139.567,2428.5C139.567,2396.19 165.761,2369.99 198.074,2369.99Z" style="fill:none;stroke-width:1.33px;stroke:black;"/>
            </g>
            <g id="port-pyke">
                <path d="M355.553,1324.89C387.865,1324.89 414.059,1351.09 414.059,1383.4C414.059,1415.71 387.865,1441.91 355.553,1441.91C323.24,1441.91 297.046,1415.71 297.046,1383.4C297.046,1351.09 323.24,1324.89 355.553,1324.89Z" style="fill:none;stroke-width:1.33px;stroke:black;"/>
            </g>
            <path id="sunspear" d="M959.105,2584.41C958.808,2611.42 956.497,2635.25 940.094,2636.86C961.162,2656.61 989.202,2668.54 1031.03,2665C1044.27,2662.16 1058.93,2663.43 1076.7,2673.75C1102.31,2682.13 1131.81,2680.5 1163.96,2672.01C1176.66,2686.31 1196.45,2697.53 1231.87,2702C1239.23,2694.16 1246.67,2692.3 1254.19,2696.43C1248.84,2681.24 1256.99,2665.67 1281.46,2649.65C1289.98,2657.22 1298.91,2650.02 1308.25,2628.05C1310.82,2617.07 1316.96,2606.62 1326.65,2596.71C1313.1,2606.36 1303.09,2608.29 1298.25,2598.93C1281.61,2587.63 1271.07,2574.05 1266.63,2558.18L1244.66,2567.2C1239.58,2582.41 1227.99,2589.29 1213.43,2592.37C1201.67,2609.18 1186.27,2616.09 1167.24,2613.11C1159.2,2622.29 1151.29,2626 1143.65,2617.68C1120.7,2617.38 1102.05,2608.37 1084.77,2596.57C1059.54,2617.36 1035.39,2617.91 1012.81,2588.91C994.868,2592.81 976.968,2591.31 959.105,2584.41Z" style="fill:none;stroke-width:1px;stroke:black;"/>
            <path id="yronwood" d="M766.17,2559.66C747.669,2552.32 728.804,2549.96 709.502,2553.61C694.83,2566.15 681.552,2566.22 668.906,2560.62L677.791,2572.82C665.684,2578.89 655.403,2589.57 646.949,2604.85L651.283,2625.6C633.081,2704.08 698.66,2654.94 729.256,2673.7C735.988,2689.56 747.042,2694.48 764.41,2683.41L777.629,2672.64C787.174,2684.5 803.617,2682.77 824.779,2671.75C831.658,2672.41 842.969,2677.89 858.713,2688.17C886.193,2673.88 920.656,2642.53 953.865,2631.08C959.496,2618.22 955.637,2597.36 958.328,2584.61C951.755,2580.81 947.268,2575.94 944.869,2570.02C935.628,2579.73 925.433,2583.86 913.139,2575.71C901.053,2576.98 891.834,2575.46 885.48,2571.13C863.562,2577.51 849.065,2573.08 837.941,2563.73C828.911,2570.7 819.309,2573.57 808.451,2567.41C802.228,2569.83 793.91,2569.34 783.496,2565.93C771.795,2575.38 766.02,2573.29 766.17,2559.66Z" style="fill:none;stroke-width:1px;stroke:black;"/>
            <path id="starfall" d="M525.957,2635.94C517.571,2665.15 512.114,2671.01 507.074,2673.54C503.589,2688.32 498.283,2701.35 491.154,2712.66C503.346,2721.77 504.722,2733.58 495.281,2748.11C491.712,2763.21 492.222,2777.57 495.521,2791.43L531.564,2815.25C544.241,2799.19 556.561,2801.05 568.719,2811.05C575.455,2806.37 582.58,2802.97 592.434,2808.57C621.08,2813.76 650.829,2801.09 681.682,2770.54C688.279,2781.24 698.594,2786.91 710.6,2790.3L721.486,2798.31C721.711,2790.52 740.524,2788.23 767.785,2788.43C773.562,2791.86 782.368,2791.44 794.203,2787.17L796.924,2780.36L790.41,2767.75C749.672,2742.53 769.949,2725.78 768.045,2701.47C767.044,2688.7 767.273,2685.83 763.602,2684.18C750.943,2693.42 739.607,2690.2 729.594,2674.54C704.63,2655.26 629.467,2703.01 651.303,2627.7C610.639,2622.78 569.006,2624.5 525.957,2635.94Z" style="fill:none;stroke-width:1px;stroke:black;"/>
            <path id="princes-pass" d="M505.15,2454.18C496.421,2470.49 494.462,2487.7 497.135,2505.54C514.816,2517.74 516.772,2532.93 552.32,2539.9C550.17,2558.34 551.617,2568.72 563.779,2582.94C562.641,2598.24 554.386,2604.86 542.896,2607.52C537.433,2618.02 532.206,2624.06 527.217,2625.65L525.234,2636.64C567.342,2626.94 609.553,2622.1 651.992,2627.98L646.918,2604.49C653.722,2588.18 664.79,2578.98 677.797,2573L669.521,2562.13C673.705,2556.36 678.506,2541.59 683.924,2517.83C689.23,2507.54 694.661,2498.9 700.215,2491.89C727.171,2471.61 694.668,2447.08 704.047,2400.9C684.764,2373.64 647.18,2377.31 594.434,2406.59C571.786,2431.13 542.973,2448.16 505.15,2454.18Z" style="fill:none;stroke-width:1px;stroke:black;"/>
            <path id="three-towers" d="M307.578,2569.53C312.773,2594.47 299.342,2620.16 258.687,2646.93L297.174,2705.28C304.994,2706.47 313.254,2708.78 322.48,2713.53C322.685,2724.25 330.889,2727.56 330.125,2747.36L342.824,2744.5C353.588,2732.68 364.634,2732.23 375.963,2743.13L383.018,2736.34C389.307,2721.19 402.338,2720.68 418.432,2726.82C432.538,2710.14 447.1,2694.32 469.545,2693.26L476.709,2680.89L499.332,2670.14L498.461,2665.29C508.291,2652.29 514.122,2637.09 517.215,2620.38C524.564,2617.01 530.087,2609.88 533.783,2598.99C547.7,2596.35 553.544,2591.99 551.314,2583.92C542.046,2575.84 538.96,2562.62 542.059,2544.27L547.502,2537.68C508.326,2527.61 517.989,2519.2 498.332,2507.56C495.047,2491.75 495.935,2474.41 502.924,2454.84C472.278,2454.73 444.236,2457.13 421.34,2464.48C411.88,2482.59 395.117,2494.43 373.355,2501.99C376.004,2536.65 357.355,2560.79 307.578,2569.53Z" style="fill:none;stroke-width:1px;stroke:black;"/>
            <path id="storms-end" d="M1159.38,2121.5C1144.31,2120.03 1133.48,2129.86 1126.89,2150.99C1106.7,2168.53 1085.56,2171.94 1064.3,2173.34C1046.09,2182.81 1033.53,2193.43 1023.53,2204.57C1016.67,2218.35 1005.76,2229.09 990.803,2236.78L962.756,2281.97C984.764,2302.64 992.126,2332.35 978.084,2375.29C998.204,2368.29 1029.11,2380.53 1017.7,2401.58C1020.64,2409.27 1025.08,2413.09 1031.03,2413.06C1036.09,2410.67 1040.64,2413.54 1048.43,2416.67C1063.59,2404.01 1082.32,2405.98 1103.51,2417.96C1118.36,2402.11 1129.3,2403.02 1136.35,2420.68L1149.47,2424.02C1168.63,2422.8 1178.53,2426.97 1168.1,2443.03L1182.93,2445.99C1190.76,2441.02 1202.29,2438.7 1215.51,2437.58L1219.21,2424.37C1206.71,2407.33 1207.16,2396.02 1220.56,2390.41C1228.13,2364.93 1238.64,2349.85 1255.62,2357.68L1270.45,2350.89C1272.37,2336.17 1290.65,2324.73 1313.11,2311.18C1299.05,2310.35 1292.61,2304.99 1289.63,2297.57C1278.84,2315.13 1270.08,2319.53 1263.35,2310.77C1254.78,2325.62 1245.72,2330.29 1235.56,2312.6L1127.19,2286.69C1086.52,2295.86 1077.1,2287.54 1098.94,2261.73C1074.86,2254.24 1074.03,2246.47 1096.46,2238.42C1105.11,2227.14 1115.14,2224.51 1126.56,2230.55L1136.44,2228.18C1135.53,2221.04 1139.48,2216.55 1148.27,2214.71C1154.55,2233.82 1161.23,2234.22 1168.3,2215.93L1176.56,2201.49L1174.69,2178.05L1186.19,2171.5C1179.6,2167.12 1177.66,2160.61 1180.37,2151.96C1168.04,2143.21 1161.04,2133.06 1159.38,2121.5Z" style="fill:none;stroke-width:1px;stroke:black;"/>
            <path id="the-boneway" d="M705.24,2400.35C698.094,2415.56 703.19,2437.59 710.035,2460.6C714.168,2476.48 710.866,2487.55 700.129,2493.81L683.229,2518.86C681.331,2535.98 676.926,2549.43 671.381,2561.2C678.812,2552.44 681.353,2574.75 709.035,2553.66C727.316,2550.91 746.438,2554.04 765.941,2559.85C775.357,2545.77 784.605,2543.3 807.797,2547.98C811.572,2535.78 820.368,2527.8 827.922,2519.82C822.496,2503.5 830.693,2495.7 845.082,2491.78C835.482,2483.41 839.475,2476.9 857.061,2472.24C860.125,2466.94 864.036,2462.23 869.057,2460.36L872.148,2438.73L863.113,2420.85L897.195,2404.78L917.947,2417.13C932.004,2405.2 944.881,2399.76 956.344,2416.91L970.543,2409.08C969.033,2398.2 972.483,2390.66 978.187,2384.64C976.14,2374.42 979.61,2358.32 986.854,2338.19C987.165,2321.81 978.204,2302.7 962.896,2281.75C920.917,2273.94 889.811,2273.45 882.627,2289.04C848.204,2308.57 817.177,2330.33 787.695,2353.11C755.445,2354.65 735.982,2362.22 729.307,2375.81C715.928,2367.9 707.906,2376.08 705.24,2400.35Z" style="fill:none;stroke-width:1px;stroke:black;"/>
            <path id="dornish-marches" d="M430.664,2378.02C440.031,2401.61 420.539,2423.46 419.906,2465.18C428.643,2457.9 464.476,2455.7 505.934,2454.55C547.52,2445.13 577.11,2429.66 592.221,2406.9C645.082,2378.5 684.271,2373 703.479,2400.98C708.156,2376.86 716.387,2368.84 728.174,2376.91C736.99,2360.89 757.504,2354 786.023,2353.35L807.889,2338.13C789.919,2339.88 775.025,2336.74 766.9,2322.82C754.788,2303.28 734.819,2295.38 709.475,2295.44C675.509,2271.8 639.616,2259.74 600.906,2264.6C591.807,2286.42 569.704,2294.42 538.705,2292.96C521.443,2297.82 507.934,2306.64 500.18,2322.59C478.247,2325.45 461.721,2336.76 450.602,2356.53C440.542,2360.46 434.655,2368.35 430.664,2378.02Z" style="fill:none;stroke-width:1px;stroke:black;"/>
            <path id="oldtown" d="M308.125,2352.86L296.758,2360.9C296.106,2367.42 292.07,2372.69 284.65,2376.69C276.172,2390.96 281.85,2388.72 271.58,2406.09C276.092,2418.08 272.971,2428.07 262.215,2436.08C248.411,2445.23 238.038,2445.45 229.225,2441.63L193.051,2489.15C201.269,2501.89 195.371,2511.52 183.055,2519.73C195.158,2545.85 217.437,2561.85 201.826,2592.95L230.336,2602.71C262.988,2577.62 292.384,2564.29 306.242,2568.94C350.624,2565.88 370.852,2544.23 372.369,2502.25C393.6,2494.97 413.426,2483.81 419.777,2465.71C418.016,2416.42 442.707,2414.37 429.645,2378.05C422.521,2374.89 415.03,2375.88 407.17,2381.02C398.277,2377.3 389.126,2376.47 379.715,2378.54C379.528,2372.06 375.657,2366.07 363.684,2361.12L349.725,2368.3C328.342,2374.1 314.6,2371.83 308.498,2361.5L308.125,2352.86Z" style="fill:none;stroke-width:1px;stroke:black;"/>
            <path id="kingswood" d="M916.637,2115.58C915.678,2164.51 895.512,2192.67 856.14,2200.04L846.778,2247.01L884.192,2288.55C898.064,2270.74 928.732,2274.04 961.799,2280.35C1000.41,2228.96 1038.61,2177 1103.61,2162.04C1117.09,2164.18 1129.19,2151.64 1139.92,2124.44C1160.69,2114.96 1176.9,2114.27 1188.56,2122.34L1217.53,2119.38C1214.51,2108.06 1220.05,2102.23 1234.14,2101.87C1220.82,2096.12 1217.28,2089.18 1235.26,2079.58C1224.31,2063.09 1228.02,2054.03 1246.4,2052.42L1236.86,2046.06C1222.54,2057.54 1211.88,2054.81 1204.91,2037.86C1202.63,2052.03 1192.67,2056.68 1175.03,2051.79C1181.81,2038.51 1177.79,2022.67 1168.87,2005.66L1196.99,2003.34C1191.9,1975.03 1223.62,1944.96 1237.86,1906.47C1225.35,1891.05 1216.7,1877.43 1207.98,1863.79L1208.63,1886.83C1219.98,1900.85 1223.93,1914.96 1211.6,1929.29C1200.6,1948.94 1186.61,1961.48 1169.64,1966.9C1166.74,1979.05 1159.21,1985.43 1147.05,1986.04C1130.2,2003.44 1119.91,2008.77 1112.6,2008.61C1109.8,2024.66 1101.85,2031.73 1089.61,2031.36C1057.27,2066.21 1017.44,2096.31 964.945,2118.36C945.634,2122.9 930.245,2120.76 916.637,2115.58Z" style="fill:none;stroke-width:1px;stroke:black;"/>
            <path id="kings-landing" d="M1063.93,1872.91L1036.81,1879.53L973.385,1878.45C930.357,1861.14 895.138,1872.79 867.729,1913.39C865.959,1974.95 851.375,2018.97 868.814,2023.44C862.886,2069.32 867.405,2097.02 887.195,2098.15C900.062,2102.25 909.33,2108.57 914.999,2117.12L962.937,2122.43C1004.25,2095.49 1046.4,2065.95 1090.36,2030.68L1111.64,2005.09L1104.14,1977.3C1078.34,1988.78 1052.94,1995.78 1028.13,1996.24C1001.58,2012.72 981.448,2017.87 975.416,1998.1C956.576,2011.31 954.52,2005.16 969.249,1979.64C947.773,1960.93 954.395,1949.6 989.117,1945.65C1000.51,1932.94 1015.27,1926.39 1033.38,1926.01L1028.59,1942.44L1043.59,1931.02C1041.18,1908.08 1052.33,1897.02 1069.64,1891.34C1063.56,1885.61 1061.66,1879.46 1063.93,1872.91Z" style="fill:none;stroke-width:1px;stroke:black;"/>
            <path id="blackwater" d="M485.718,2114.25C463.215,2099.21 459.574,2081.43 468.838,2061.8C456.458,2033.98 457.529,2015.63 472.051,2006.76L463.869,1958.6C472.439,1948.94 483.699,1947.42 497.648,1954.03C513.985,1954.78 529.964,1942.17 545.585,1916.2C559.023,1927.74 570.527,1921.45 581.153,1907.06C595.718,1912.65 608.848,1916.44 621.327,1919.39C641.105,1910.46 654.508,1895.1 661.536,1873.3C671.849,1860.5 689.309,1849.62 722.492,1842.99L729.799,1823.63C761.134,1818.93 792.16,1822.35 822.877,1833.91C840.948,1842.19 846.873,1852.3 840.653,1864.22C843.236,1885.07 852.288,1903.11 867.809,1918.34L862.994,1952.79C878.247,1983.98 846.673,1991.81 866.632,2025.13C839.974,2008.84 818.969,2017.56 805.2,2046.84C761.737,2059.35 744.557,2068 749.346,2096.76C717.558,2089.43 702.036,2101.19 687.952,2116.83L660.322,2113.67C636.226,2125.8 610.985,2136.11 583.229,2131.64C565.954,2122.29 549.6,2114.67 534.166,2115.5C520.041,2123.2 503.892,2122.78 485.718,2114.25Z" style="fill:none;stroke-width:1px;stroke:black;"/>
            <path id="searoad-marches" d="M291.598,1897.87C297.427,1912.7 292.404,1928.6 276.528,1945.58C283.653,1959.11 281.521,1966.57 270.132,1967.96L250.247,2052.42L230.893,2063.61C237.634,2068.15 237.945,2074.47 231.825,2082.56C236.542,2092.07 235.856,2098.9 229.768,2103.06C247.791,2113.55 253.431,2127.81 231.825,2150.35C259.304,2155.08 288.432,2152.28 319.971,2138.47C329.032,2128.47 339.116,2123.05 351.447,2127.74C364.351,2128.27 378.029,2137.54 392.059,2150.78C417.364,2159.43 441.009,2171.5 463.518,2185.92C460.893,2163.19 463.017,2141.65 475.585,2122.7L487.687,2116.55C467.312,2104.02 460.76,2085.62 468.031,2061.32C459.88,2043.76 458.136,2026.41 470.486,2009.52L464.778,1959.79L471.171,1891.34L461.39,1857.54C435.906,1890.99 425.945,1877.53 402.848,1896.8C391.956,1891.98 377.237,1893.81 358.692,1902.28L322.439,1902.74C310.057,1895.61 299.776,1893.99 291.598,1897.87Z" style="fill:none;stroke-width:1px;stroke:black;"/>
            <path id="stoney-sept" d="M472.536,1850.23C454.414,1855.63 462.094,1871.65 471.13,1891.75C463.848,1910.18 461.482,1935.96 464.314,1961.8C471.929,1945.62 482.044,1947.07 493.296,1956.55C507.082,1958.19 521.576,1940.13 543.434,1917.56C552.467,1924.99 568.381,1922.92 580.359,1908.65L617.562,1920.26C639.515,1913.83 653.648,1897.38 662.512,1873.88C677.881,1856.29 697.433,1846.77 721.166,1845.32L727.294,1825.28C708.588,1808.32 713.165,1785.16 725.695,1762.75C684.982,1715.92 656.84,1694.58 689.687,1669.34L675.549,1650.4C663.261,1657.27 650.563,1659.64 637.676,1659.96C627.41,1696.38 626.928,1662.53 612.997,1706.3C569.117,1731.31 538.504,1739.82 527.278,1724.18L511.979,1746.56C479.38,1790.32 437.193,1764.88 465.979,1792.39C458.673,1802.06 462.545,1810.52 468.015,1818.82C464.584,1832.35 466.091,1842.81 472.536,1850.23Z" style="fill:none;stroke-width:1px;stroke:black;"/>
            <path id="lannisport" d="M489.307,1594.36L468.262,1592.01C456.334,1604.84 445.544,1608.03 435.89,1601.58L420.15,1604.3C410.302,1614.68 397.341,1609.21 382.965,1596.53L353.525,1605.23L347.624,1620.97C373.882,1634.67 381.067,1652.55 360.377,1676.56C361.777,1696.15 353.836,1701.82 341.65,1701.17L325.437,1765.97C319.183,1808 304.586,1824.8 281.648,1816.36C271.925,1830.35 262.193,1836.27 252.452,1834.12C243.535,1855.51 230.837,1867.81 209.822,1860.13C216.359,1876.77 210.041,1891.89 190.869,1905.5L223.15,1890.62C235.204,1874.91 251.698,1874.47 269.114,1877.21C287.98,1863.39 292.867,1874.08 291.4,1895.89C303.217,1894.06 313.189,1896.79 321.314,1904.08C337.329,1900.86 349.306,1901.65 358.52,1905.18C372.733,1894.77 387.12,1892.9 401.89,1899.67C413.779,1890.41 425.155,1883.05 435.403,1879.87L460.257,1858.01L472.762,1848.22C464.66,1846.35 463.29,1837.32 468.653,1821.14C460.903,1804.22 460.726,1795.27 468.122,1794.28C456.516,1782.28 449.106,1771.82 471.072,1772.13C482.108,1771.58 491.311,1762.25 511.226,1746.59C520.271,1748.67 525.563,1740.08 527.101,1720.84C529.552,1690.18 500.961,1702.71 505.179,1687.28L507.062,1661.91C536.268,1643.9 500.422,1635.07 489.307,1594.36Z" style="fill:none;stroke-width:1px;stroke:black;"/>
            <path id="seagard" d="M460.747,1281.01L533.502,1266.15L566.577,1268.89L565.437,1278.63L570.898,1295.48L577.786,1316.01L591.734,1322.65L593.333,1346.84L609.088,1360.96C611.196,1383.42 619.334,1393.46 633.505,1391.09C642.809,1425.32 660.075,1448.42 688.979,1455.24C688.703,1463.68 690.145,1471.58 703.611,1475.75C701.77,1491.98 709.97,1499.57 725.041,1501.26L731.434,1518.56C718.007,1529.18 699.607,1523.31 679.617,1512.16C668.411,1501.41 649.841,1492.31 626.234,1484.34C623.913,1447.09 609.317,1430.67 582.445,1435.07C570.48,1424.63 559.132,1424.25 548.4,1433.93C545.129,1446.75 532.947,1450.87 516.713,1451.03L501.643,1462.61L488.26,1461.73L478.286,1434.04C498.525,1431.33 518.893,1424.76 539.887,1399.55C559.439,1385.38 551.295,1372.62 530.562,1360.5C522.108,1342.42 508.922,1316.83 485.538,1290.89C471.166,1295.09 463.621,1290.92 460.747,1281.01Z" style="fill:none;stroke-width:1px;stroke:black;"/>
            <path id="the-findgers" d="M1112.15,1252.59C1142.81,1245.69 1145.93,1232.38 1158.35,1236.58L1167.91,1222.42C1180.66,1218.65 1187.81,1211.7 1193.57,1204.62L1189.81,1220.58C1183.37,1221.54 1179.18,1223.97 1177.25,1227.89C1176.56,1239.5 1170.72,1245.73 1159.72,1246.59C1130.6,1255.15 1122.15,1266.24 1134.37,1279.88C1148.99,1293.18 1161.31,1289.98 1171.35,1270.29C1194.53,1253.08 1215.99,1238.36 1234.07,1228.55C1221.43,1236.62 1214.73,1243.42 1221.1,1247.41C1201.48,1257.91 1184.25,1271.01 1175.42,1281.99L1207.11,1280.89C1216.87,1262.01 1223.94,1259.79 1235.35,1261.82L1250.86,1243.82C1247.07,1258.36 1324.54,1198.87 1247.68,1255.65C1248.22,1261.45 1246.17,1265.81 1241.52,1268.74C1233.44,1268.84 1228.88,1267.76 1221.42,1272.06C1217.4,1286.38 1206.38,1292.84 1190.58,1293.93C1128.41,1299.98 1114.38,1313.47 1095.02,1371.8C1068.51,1408.09 1040.79,1421.4 1011.86,1411.74L986.114,1423.83C939.71,1401.7 929.819,1427.83 889.799,1414.48C872.48,1408.71 860.91,1386.4 855.088,1347.55C876.17,1324.82 867.325,1304.62 844.878,1285.58L844.674,1285.6L844.859,1285.46L844.83,1285.28L845.152,1285.23C870.155,1295.78 881.262,1291.16 872.059,1264.39L887.989,1262.33C910.842,1279.24 921.182,1277.41 919.007,1256.85L924.242,1245.47L934.71,1240.94C947.391,1257.79 958.973,1256.66 969.804,1243.22C985.809,1245.76 999.593,1237.92 1010.13,1214.93L1021.06,1216.51C1028.45,1223.14 1033.93,1223.56 1035.19,1210.32L1060.51,1200.98C1042.38,1212.39 1036.14,1222.41 1047.28,1230.38C1047.54,1239.56 1060.59,1236.77 1079.46,1228.55C1087.53,1234.15 1094.85,1236.51 1096.97,1216.24L1105.8,1222.62C1127.46,1222.27 1145.2,1214.71 1158.22,1198.45L1152.28,1190.47C1159.2,1191.86 1165.19,1191.44 1169.14,1187.04C1172.68,1189.28 1180.73,1185.24 1190.84,1178.35C1197.06,1179.37 1202.61,1177.4 1207.85,1174.07L1202.98,1181.51L1165.5,1199.57C1167.2,1213.25 1150.68,1223.31 1121.68,1230.87L1106.82,1243.22C1096.25,1250.74 1100.77,1252.88 1112.15,1252.59Z" style="fill:none;stroke-width:1px;stroke:black;"/>
            <path id="moat-cailin" d="M619.72,1059.63L677.952,1046.47L682.035,1038.77C707.278,1021.17 732.799,1019.17 758.509,1027.84C770.06,1027.21 776.454,1022.93 777.693,1015.02C794.791,1012.89 808.366,1004.57 820.339,993.454L828.374,1042.57C810.609,1053.31 801.619,1066.25 811.933,1084.02C801.133,1088.07 797.66,1095.65 801.513,1106.77C786.13,1101.38 777.906,1111.22 772.937,1127.99C777.772,1142.81 778.174,1155.07 768.827,1161.7C757.662,1158.23 751.958,1164.62 751.714,1180.87L741.122,1204.29C755.386,1225.96 731.003,1207.87 719.9,1225.65C713.432,1244.7 712.72,1260.44 726.736,1260.37L733.759,1280.4C735.461,1287.1 739.514,1289.33 745.919,1287.08C744.66,1295.7 737.518,1307.01 724.493,1321C707.194,1315.73 694.858,1317.09 687.486,1325.07C660.581,1331.7 658.724,1316.69 634.761,1319.3C624.23,1318.06 619.501,1324.37 620.574,1338.24C617.939,1348.76 611.169,1349.64 609.283,1359.81C599.642,1364.63 594.579,1361.28 594.095,1349.76C584.747,1347.92 585.789,1337.54 591.554,1323.27L577.394,1316.93C583.102,1313.08 582.93,1306.68 576.88,1297.74C586.22,1294.58 588.61,1283.43 587.841,1268.65C581.104,1263.13 584.199,1257.45 588.699,1251.75C570.187,1199.47 575.615,1155.8 604.982,1120.73C613.757,1112.39 612.245,1101.11 609.263,1089.42C609.613,1079.77 613.099,1069.84 619.72,1059.63Z" style="fill:none;stroke-width:1px;stroke:black;"/>
            <path id="greywater-watch" d="M420.429,1086.01L424.355,1149.4C416.199,1166.07 414.886,1182.88 420.415,1199.82C417.54,1214.05 410.158,1224.42 402.132,1234.25C405.113,1239.75 412.926,1241.85 421.429,1243.47L422.986,1250.32C432.697,1251.75 445.941,1262.08 462.72,1281.32C488.102,1260.4 512.548,1258.15 536.353,1268.66L568.208,1269.32L564.482,1278.21C569.631,1275.25 571.344,1281.12 569.62,1295.81L577.3,1299.4C584.471,1293.99 587.834,1284.01 587.39,1269.48C582.111,1267.08 582.682,1261.5 589.103,1252.72C571.01,1189.21 579.717,1147.82 606.759,1121.57C613.369,1112.9 613.293,1102.51 608.642,1090.94C608.523,1082.26 612.291,1072.57 618.919,1059.82L564.982,1063.92C546.174,1074.23 535.56,1075.77 533.14,1068.54C515.08,1080.04 497.68,1084.79 481.245,1079.67C471.66,1089.84 461.396,1093.95 450.456,1092C435.862,1103.09 426.872,1098.18 420.429,1086.01Z" style="fill:none;stroke-width:1px;stroke:black;"/>
            <path id="funts-finger" d="M311.077,1133.64C341.57,1129.23 359.601,1114.34 365.171,1088.97L381.771,1085.89C393.947,1095.18 406.03,1095.41 420.763,1086.57L424.191,1149.84C414.624,1161.84 415.201,1179.78 420.148,1202.37C415.342,1214.68 409.015,1225.19 401.165,1233.88C381.592,1228.25 362.819,1231.22 344.845,1242.78C338.792,1240.89 332.759,1242.89 326.745,1248.76C300.354,1244.08 280.123,1248.69 266.054,1262.6C257.711,1256.88 247.674,1254.55 233.911,1259.69C219.729,1254.6 205.922,1254.31 192.492,1258.83L170.81,1244.45C171.408,1240.23 168.081,1234.32 161.56,1224.74C174.965,1205.66 184.824,1190.22 187.738,1178.38C201.137,1170.61 210.956,1158.1 217.197,1140.86C219.994,1135.63 224.428,1135 230.499,1138.97C226.76,1144.94 228.692,1148.4 236.294,1149.35C238.861,1154.67 242.516,1158.43 247.257,1160.65L262.8,1153.27C267.594,1176.78 280.206,1180.03 302.638,1164.7C327.437,1156.62 330.25,1146.27 311.077,1133.64Z" style="fill:none;stroke-width:1px;stroke:black;"/>
            <path id="white-harbor" d="M775.007,1015.77C736.855,971.211 737.784,936.045 777.796,910.27C797.829,903.418 799.417,888.114 782.559,864.359C795.047,799.309 821.527,760.393 856.262,736.898C877.016,730.364 909.269,697.011 946.749,651.468C990.892,625.244 959.597,666.473 1016.36,675.044C1030.47,701.976 1051.43,711.231 1079.25,702.809L1079.75,721.593C1080.44,727.397 1083.19,729.051 1087.99,726.557C1087.69,741.229 1097.79,750.008 1118.28,752.893C1115.37,758.565 1113.7,764.561 1120.75,772.812C1101.5,772.207 1091.84,776.058 1091.77,784.367C1058.67,784.928 1043.05,774.16 1023.15,788.143C1023.27,802.155 1012.57,809.781 991.061,811.023C969.413,820.375 982.926,839.289 973.264,842.939C985.959,888.806 943.252,871.744 937.178,898.255C950.93,912.018 949.004,919.53 947.717,940.018L971.585,955.666C989.602,966.154 997.994,976.628 996.762,987.088C1015.58,996.521 1030.71,995.36 1044.15,989.382L1046.13,1016.91C1040.52,1021.37 1035.59,1026.76 1035.44,1038.65C1027.58,1048.34 1024.89,1056.55 1027.37,1063.29C1019.8,1064.57 1015.47,1069.4 1014.36,1077.77C989.745,1078.29 972.221,1082.64 970.298,1095.42L947.366,1079.28L860.949,1060C864.783,1028.15 855.872,1004.07 838.241,985.286C830.206,966.917 823.171,969.706 817.137,993.653C800.293,1009.29 786.872,1014.83 775.007,1015.77Z" style="fill:none;stroke-width:1px;stroke:black;"/>
            <path id="widows-watch" d="M1020.97,786.079C1024.95,799.401 1014.78,807.756 990.46,811.143C968.502,823.139 983.073,840.783 972.169,841.633C987.687,888.327 947.74,868.158 936.865,898.653C949.184,908.824 952.109,922.559 945.64,939.86C967.323,959.904 994.044,959.443 997.105,985.77C1010.97,995.453 1026.85,995.872 1044.11,989.954C1045.38,976.87 1047.64,964.307 1056.83,955.391C1059.88,952.331 1062.06,948.295 1063.38,943.284C1053.13,911.686 1058.51,901.56 1079.52,912.905C1087.29,914.514 1092.56,917.889 1095.33,923.032C1104.25,922.738 1112.13,925.616 1119.53,929.936C1131.95,924.158 1141.88,923.654 1146.31,934.749C1152.31,937.444 1157.88,938.228 1163.01,937.1C1171.72,946.973 1180.4,950.306 1189.04,947.098C1193.27,944.773 1202.4,944.783 1213.76,945.856C1197.4,944.893 1190.2,939.58 1192.15,929.917C1177.66,932.098 1170.54,928.716 1170.79,919.772L1155.04,920.032C1152.33,912.475 1147.94,902.788 1151.15,891.614C1156.43,889.756 1160.11,887.079 1160.29,882.598C1151.76,883.191 1147.27,876.2 1146.83,861.624L1155.54,861.979L1151.07,849.813L1138.56,850.202C1132.15,842.83 1127.51,832.99 1129.54,824.71L1121.43,822.637L1124.03,815.565C1109.24,819.639 1099.06,806.968 1090.96,786.686C1058.29,784.898 1045.97,774.327 1020.97,786.079Z" style="fill:none;stroke-width:1px;stroke:black;"/>
            <path id="karhold" d="M1104.4,394.96C1077.68,406.359 1053.8,399.929 1031.95,380.696C1020.61,365.439 1006.5,365.405 990.098,377.984C969.27,391.275 956.953,394.22 952.889,412.797C973.001,438.782 992.365,466.749 1010.46,498.073C1040.58,509.721 1056.46,519.922 1051.5,528.008C1055.54,550.74 1068.38,540.87 1078.59,564.412L1079.33,602.973C1082.47,608.572 1087.45,610.031 1094.27,607.352C1085.93,618.179 1086.75,631.848 1089.46,646.106C1094.97,662.526 1108.38,653.412 1118.04,663.943C1123.46,663.896 1128.87,664.502 1134.22,669.683C1135.83,676.325 1138.36,680.789 1141.81,683.076C1150.83,683.94 1156.12,680.669 1153.16,668.303C1152.63,659.743 1156.39,654.402 1163.1,651.262L1188.22,651.447L1199.34,624.289C1194.16,610.864 1196.63,602.188 1204.33,596.761C1202.83,591.007 1204.05,587.175 1207.99,585.265C1202.96,568.201 1202.4,551.226 1207.25,534.355C1219.44,541.423 1226.21,552.134 1225.09,568.168C1235.68,571.661 1245.2,575.156 1253.16,578.655L1252.61,592.845L1262.43,601L1268.48,585.569C1263.24,578.189 1263.47,569.836 1267.44,560.818C1276.9,558.055 1280.05,549.441 1280.34,538.169C1287.12,534.665 1293.18,523.866 1298.75,508.075L1293.94,497.579C1299.66,493.83 1302.22,487.119 1301.59,477.446C1293.12,475.985 1293.14,469.744 1297.02,461.331C1285.17,459.328 1282.78,448.978 1288.25,431.712C1280.72,426.066 1276.84,420.423 1276.59,414.781C1256.4,420.976 1239.82,424.083 1228.51,422.677C1221.45,440.574 1207.28,442.148 1189.88,436.302C1189.79,430.762 1189.88,427.779 1186.1,426.61C1175.37,427.653 1169.13,421.667 1164.93,412.485C1151.77,416.386 1142.75,412.584 1135.84,404.886C1119.35,409.953 1108.88,406.645 1104.4,394.96Z" style="fill:none;stroke-width:1px;stroke:black;"/>
            <path id="the-stony-shore" d="M322.94,663.822C317.718,676.443 306.198,676.218 291.815,670.154C274.516,665.222 273.607,666.703 289.087,674.597C295.61,678.276 299.205,684.145 299.185,691.603C299.174,696.077 297.861,701.124 295.098,706.611L283.803,709.079C297.474,716.202 297.162,730.807 275.238,743.796L261.823,739.106C254.428,741.578 248.887,739.821 245.199,733.837C237.78,734.248 231.276,730.734 225.686,723.296C220.305,723.184 215.104,722.17 210.297,719.174C204.293,721.275 197.998,726.57 191.413,735.057C183.813,753.508 184.491,768.028 179.232,768.046C179.639,778.261 175.661,784.708 167.297,787.386C170.88,798.103 170.193,805.068 165.236,808.281C167.052,815.082 166.045,820.821 163.755,826.077L154.868,831.248C155.669,835.962 154.653,839.911 151.82,843.096C158.949,855.103 159.192,865.582 152.548,874.531L161.928,882.182L171.728,878.146C173.532,888.249 170.87,897.291 163.742,905.271C156.43,922.132 158.376,922.626 169.579,906.753C179.613,896.797 190.116,891.455 201.186,891.684L211.566,875.38C211.603,868.537 213.318,862.7 218.724,859.076L227.289,858.83L228.611,889.264L219.057,906.308L219.292,948.589L232.867,966.102C242.858,968.39 245.235,978.432 243.802,995.562L239.52,1000.41L239.346,1009.14C260.059,1013.65 270.144,1021.6 264.697,1034.56C270.579,1041.52 278.124,1044.1 287.331,1042.29L290.872,1064.01L333.982,1062.69C337.939,1060.29 340.324,1056.05 339.251,1047.78L345.102,1048.52L349.397,1041.36L369.303,1042.35C368.668,1032.01 370.229,1019.69 378.203,1011.22C384.578,982.529 390.97,981.896 397.382,1009.32C396.88,1022.52 394.798,1030.69 391.137,1033.84L391.137,1040.68L401.997,1051.37L425.866,1052.26C426.608,1045.37 429.899,1038.86 438.801,1033.15C446.211,1015.45 456.687,1006.14 471.642,1009.12C486.185,1012.71 491.466,995.786 492.536,969.531C527.177,928.369 550.354,878.556 558.674,817.529C553.913,811.743 552.65,805.864 554.885,799.893C535.283,791.908 526.286,782.089 527.895,770.434L500.371,751.723C464.464,754.756 447.913,741.945 447.401,716.006C421.256,674.761 463.178,677.29 404.993,651.781C393.491,636.636 364.549,643.076 322.94,663.822Z" style="fill:none;stroke-width:1px;stroke:black;"/>
            <path id="castle-black" d="M759.652,218.863L1025.12,220.697C1026.86,227.915 1029.9,232.067 1034.24,233.154C1029.76,263.13 1034.74,279.428 1049.17,282.047C1050.22,287.783 1053.43,289.294 1058.81,286.582C1057.45,291.895 1058.06,297.635 1063.01,304.314C1062.61,309.093 1063.08,313.716 1069.68,317.254C1066.28,325.406 1069.25,335.459 1075.1,346.375C1073.42,361.586 1075.36,371.533 1078.93,379.086C1076.84,387.4 1077.37,394.065 1080.54,399.08C1040.47,409.734 1028.8,347.445 991.537,379.937C967.494,390.179 952.701,397.182 953.492,414.389C916.141,391.132 884.633,378.782 871.408,400.561C866.288,409.575 855.705,412.451 839.66,409.187C832.6,409.242 825.238,412.685 817.574,419.516C797.79,436.655 802.32,416.208 772.236,444.082C751.053,474.513 738.489,487.915 734.545,484.289C710.097,478.496 685.739,512.901 668.971,496.117C639.824,496.126 618.783,496.453 611.955,486.121L610.473,477.348C617.726,473.171 622.546,466.66 624.932,457.816C638.667,446.674 635.554,434.812 624.783,422.623C628.85,419.842 630.708,415.764 630.355,410.387C637.124,410.751 641.043,406.314 642.111,397.076C646.956,393.962 647.864,387.748 644.834,378.434C644.945,365.805 638.441,355.949 625.32,348.867C636.337,345.632 640.823,341.763 638.779,337.26C666.469,329.409 680.915,318.999 682.117,306.029C687.868,310.187 694.409,310.798 701.74,307.861C715.882,307.835 720.449,300.14 715.439,284.777C722.51,275.833 729.421,267.101 746.67,244.551C754.561,242.426 758.889,233.863 759.652,218.863Z" style="fill:none;stroke-width:1px;stroke:black;"/>
            <path id="winterfell" d="M611.537,487.287C603.582,493.494 596.423,497.682 594.838,487.734C583.835,511.27 574.552,508.853 566.051,494.639L555.684,499.822C548.579,520.908 537.392,522.265 522.121,503.895L511.551,512.652C499.607,524.691 490.368,518.457 483.836,493.951C465.746,491.039 466.789,481.061 461.289,464.24C461.642,482.206 467.613,496.402 474.396,496.914L476.359,516.908L474.508,529.256L430.189,550.359L371.689,530.365L346.883,519.129C342.535,517.249 339.926,511.03 338.107,502.838L334.295,494.191L305.396,471.478C294.918,487.165 279.76,486.096 264.299,480.455L260.838,487.119C284.067,490.063 296.908,497.012 305.027,505.781C321.502,517.273 326.525,528.88 320.096,540.603L313.652,552.119C320.835,560.669 325.597,580.043 328.703,606.824L311.783,609.193C311.123,623.736 300.175,628.944 280.682,628.557L298.195,637.203C309.567,634.523 318.039,643.495 323.611,664.119L371.225,643.867C384.987,641.203 397.443,642.064 407.027,650.68C432.861,661.263 441.815,673.957 439.221,688.094C438.249,696.019 441.934,705.926 447.736,716.732C447.221,734.578 456.073,747.375 478.615,752.795L500.59,751.535L527.879,771.289C525.443,783.902 536.996,792.571 554.906,799.447C551.546,807.331 552.656,813.34 558.238,817.477C550.75,874.482 528.887,925.219 492.648,969.686C491.259,997.295 488.498,1009.34 472.414,1010.62L465.119,1027.54L458.936,1047.66L486.463,1038.27C489.797,1043.69 494.734,1042.69 501.273,1035.29L514.621,1026.28L527.729,1026.28C533.316,1033.58 542.486,1036.79 555.238,1035.9C561.852,1038.06 565.777,1043.46 567.014,1052.08C601.806,1052.46 638.187,1046.63 675.885,1035.66L682.678,1040.25C714.836,1021.99 714.815,1017.31 758.857,1029.72C766.477,1027.28 776.084,1022.55 777.758,1017.5C769.558,1010.42 760.909,997.447 755.285,986.861C739.831,954.626 746.001,930.27 773.797,913.793C798.535,905.756 799.032,888.811 782.943,865.771C781.361,853.85 782.672,839.813 790.348,821.121C816.593,767.503 840.129,740.309 860.955,739.537C885.799,721.89 914.956,690.441 944.779,656.861C957.524,636.408 971.488,641.707 986.006,658.711C996.017,673.882 1005.91,677.744 1015.74,676.465C1031.21,696.181 1046.78,711.317 1062.82,704.383L1077.14,702.16L1094.6,705.012L1083.62,696.107L1081.4,683.26L1093.53,681.777C1081.94,680.825 1078.86,672.624 1084.29,657.174L1089.62,646.139L1088.88,619L1094.2,608.115C1087.87,610.455 1082.76,608.93 1078.87,603.541L1078.5,568.146C1080.13,560.683 1075.36,553.686 1064.17,547.154C1058.39,544.767 1054.07,538.589 1051.19,528.621C1058.69,520.372 1041.28,509.784 1012.56,498.133C987.197,457.038 966.485,427.159 953.648,416.289C918.665,392.857 887.155,377.525 872.383,401.221C862.992,410.228 851.643,412.406 838.338,407.754C821.618,418.309 805.741,427.524 795.76,427.359C768.692,435.686 755.16,473.347 736.52,483.506C717.498,476.447 694.111,508.21 670.857,496.836C645.132,498.247 623.658,496.376 611.537,487.287Z" style="fill:none;stroke-width:1px;stroke:black;"/>
            <path id="pike" d="M102.755,1337.39L407.715,1337.39C417.246,1407.51 408.535,1454.51 384.708,1482.37C393.062,1486.93 393.899,1494.91 387.218,1506.29L399.742,1514.45L399.742,1526.75L384.005,1536.99C368.617,1531.8 360.789,1534.55 360.52,1545.22C329.619,1529.74 360.241,1560.29 279.908,1579.25C273.105,1572.95 265.13,1570.29 254.577,1575.65C243.282,1585.08 235.296,1586.01 230.619,1578.43L101.786,1458.26L102.755,1337.39Z" style="fill:none;stroke-width:1px;stroke:black;"/>
            <path id="the-twins" d="M747.364,1288.89L724.965,1321.76L687.111,1323.82C675.912,1330.86 659.143,1319.43 635.294,1319.91C638.815,1324.9 637.832,1328.91 632.343,1331.94C633.663,1338.39 630.617,1347.12 623.208,1358.15C619.896,1366.23 620.645,1372.67 625.455,1377.47C641.143,1376.52 649.257,1384.2 649.796,1400.5C651.571,1420.89 668.34,1430.65 684.965,1441.69C697.33,1439.91 702.08,1447.69 703.215,1460.12C710.877,1464.31 717.549,1469.13 717.301,1478.37C730.405,1489.42 737.475,1499.06 738.512,1507.31C752.468,1475.76 767.103,1456.25 783.234,1463.23C789.798,1458 801.362,1455.34 817.926,1455.26C828.183,1442.15 838.794,1433.62 849.76,1429.66C854.833,1420.83 867.274,1421.29 883.064,1425.99L891.723,1414.88C869.412,1407.08 858.673,1382.98 855.854,1347.74C873.999,1320.84 869.472,1312.16 844.434,1286.14L798.38,1292.3C785.207,1308.37 772.671,1307.55 760.773,1289.84L747.364,1288.89Z" style="fill:none;stroke-width:1px;stroke:black;"/>
            <path id="riverrun" d="M626.82,1483.87C627.563,1509.28 623.119,1519.69 616.317,1523.28C610.21,1540.6 598.862,1547.07 582.273,1542.69C579.446,1555.04 570.933,1557.85 556.731,1551.14C555.212,1569.33 546.002,1580.56 529.101,1584.85C511.686,1600.89 497.2,1607.38 489.156,1592.82C490.599,1632.91 539.461,1634.46 507.635,1663.49L503.544,1688.78C511.578,1699.73 529.753,1697.85 522.497,1713.19L524.096,1725.41C543.591,1740.42 575.234,1729.67 612.398,1707.2C615.191,1675.38 636.399,1685.63 636.757,1662.02C657.902,1660.15 678.018,1645.61 697.429,1622.4C716.98,1639.06 735.992,1643.61 754.463,1636.06L760.4,1639.49C780.967,1625.76 791.717,1639.42 805.176,1649.48C815.738,1647.7 825.33,1645.38 828.132,1639.28C805.527,1625.79 818.342,1619.47 803.031,1587.5C769.4,1565.3 749.352,1541.11 733.645,1516.27C703.629,1535.16 677.231,1501.39 626.82,1483.87Z" style="fill:none;stroke-width:1px;stroke:black;"/>
            <path id="harrenhal" d="M864.587,1651.54C860.738,1682.24 866.58,1705.43 873.807,1727.54C889.924,1725.5 884.839,1761.84 875.203,1809.35C847.275,1841.06 843.361,1817.17 822.096,1835.4C785.51,1822.09 752.515,1813.69 727.424,1825.45C711.018,1812.21 710.742,1791.1 726.596,1762.13C682.777,1722.99 661.615,1689.56 690.301,1668.69L674.344,1649.69L697.65,1620.78C710.685,1638.47 729.468,1642.64 754,1633.29L762.508,1638.73C774.494,1628.96 787.281,1630.57 800.868,1643.54C804.91,1649.98 814.351,1649.15 829.193,1641.03C830.783,1655.2 845.211,1656.37 865.475,1651.64L864.587,1651.54Z" style="fill:none;stroke-width:1px;stroke:black;"/>
            <path id="crackclaw-point" d="M951.477,1687.47L864.525,1652.52C862.888,1676.9 866.149,1701.72 872.762,1726.85C888.01,1724.21 886.918,1754.76 874.645,1808.02C844.415,1843.18 835.348,1811.9 822.346,1834.34C841.438,1842.56 847.775,1852.98 841.357,1865.62C844.526,1886.73 853.39,1903.51 866.15,1917.31C903.012,1872.79 936.658,1860.69 967.09,1881C999.366,1875.21 1021.16,1874.62 1035.77,1877.59L1063.36,1831.05C1083.54,1819.18 1087.96,1810.16 1081.73,1798.52L1112.87,1773.73C1118.55,1763.55 1124.94,1763.72 1132.02,1774.24L1148.45,1773.4C1140.03,1756.85 1155,1751.76 1185.97,1754.49L1187.5,1738.96L1225.71,1737.22C1226.61,1727.36 1234.21,1718.25 1248.48,1709.88C1239.07,1704.49 1236.48,1698.36 1237.01,1691.91C1249.62,1692.5 1260.01,1684.65 1268.21,1668.37C1265.64,1662 1267.01,1653.04 1272.3,1641.51L1263.43,1642.02C1252.93,1660.04 1239.58,1671.17 1223.39,1675.42C1217.92,1689.83 1205.89,1693.9 1190.86,1693.26C1184.85,1705.17 1174.36,1712.02 1159.42,1713.83C1135.32,1746.7 1130.69,1728.51 1075.37,1715.57L1051.42,1720.52C1017.45,1742.4 984.135,1731.39 951.477,1687.47Z" style="fill:none;stroke-width:1px;stroke:black;"/>
            <path id="the-mountains-of-the-moon" d="M739.379,1506.45C746.236,1519.09 756.016,1529.88 767.125,1539.83C781.728,1549.76 778.883,1561.75 796.727,1573.72C814.182,1578.04 821.811,1596.77 824.973,1622.04L842.189,1641.12L876.258,1638.72L955.939,1679.31L980.762,1678.45C1003.24,1697.46 1032.74,1698.55 1069.27,1681.71L1077.26,1685.95C1084.54,1684.69 1093.39,1679.39 1103.81,1670.05C1107.01,1665.16 1103.3,1659.63 1092.69,1653.48C1078.34,1655.26 1068.93,1649.38 1064.44,1635.85L1030.6,1622.69C1027.71,1610.02 1019.04,1597.03 969.855,1581.77L975.65,1574.43L950.686,1556.83C958.31,1534.58 983.281,1531.5 1016.14,1537.14C1031.86,1537.48 1033.6,1534.17 1021.38,1527.2C994.637,1522.09 1005.57,1515.28 1021.89,1508.22L1055.98,1497.6C1063.43,1503.5 1071.46,1502.65 1080.06,1495.03C1087.76,1497.17 1091.77,1503.29 1094.09,1511.23L1109.15,1521.45C1145.17,1513.25 1149.1,1493.2 1203.14,1483.76C1212.72,1460.87 1205.33,1469.23 1209.15,1447.95L1244.08,1445.54C1261,1439.61 1269.4,1433.81 1273.94,1428.05C1262.65,1425.38 1263.49,1416.78 1269.84,1405.49L1283.35,1411.97C1291.53,1404.76 1296.22,1398.56 1305.74,1401.69L1309,1382.41C1298.54,1384.36 1293.13,1381.98 1292.77,1375.26C1288.15,1368.18 1293.03,1363.27 1299.26,1358.67L1285.1,1364.96C1285.14,1379.98 1280.24,1389.12 1270.37,1386.19C1252.84,1385.89 1253.17,1373.18 1256.04,1362.25L1239.14,1362.25C1236.66,1354.48 1242.65,1347.35 1257.11,1340.88C1265.67,1340 1269.26,1335.79 1267.88,1328.25C1276.55,1321.52 1284.64,1318 1292.48,1315.93L1290.08,1306.06L1297.95,1294.08C1281.1,1311.19 1266.06,1320.92 1254.97,1314.42C1254.72,1321.38 1247.88,1325.76 1234.43,1327.58C1226.07,1332.74 1214.55,1334.17 1199.88,1331.86C1188.12,1341.57 1176.87,1344.62 1166.72,1333.05C1159.71,1349.27 1153.08,1349.18 1146.5,1346.75C1147.35,1359.66 1126.6,1366.56 1096.01,1370.71C1067.79,1407.82 1040.24,1421.07 1013.37,1410.48L985.111,1421.1C926.09,1402.65 935.327,1426.34 890.125,1415.44L882.717,1425.68C860.17,1412.34 835.318,1437.68 817.047,1457.01C798.711,1454.81 788.283,1457.33 781.449,1462C759.962,1461.77 747.598,1479.93 739.379,1506.45Z" style="fill:none;stroke-width:1px;stroke:black;"/>
            <path id="the-eyrie" d="M1091.51,1510.28C1090.7,1502.72 1087.22,1497.87 1081.09,1495.73C1072.3,1503.61 1063.19,1503.68 1053.76,1495.95C1010.49,1511.26 989.002,1522.56 1015.44,1525.07C1033.15,1532.44 1031.73,1536.25 1011.17,1536.5C975.288,1532.19 954.991,1538.81 950.277,1556.37L975.441,1572.64L969.104,1581.85C1000.9,1588.99 1020.64,1601.93 1028.34,1620.7L1063.78,1635.43C1066.35,1648.23 1076.16,1654.62 1093.21,1654.58C1104.55,1659.64 1108.37,1664.94 1104.65,1670.48C1124.61,1677.58 1143.64,1665.65 1162.02,1640.71L1176.6,1618.97L1207.89,1614.84L1182.2,1609.88C1172.37,1600.83 1177.6,1589.03 1193.13,1575.34L1176.39,1564.39C1136.38,1561.48 1129.97,1554.56 1172.63,1541.81C1188.18,1535.62 1204.59,1534.24 1221.59,1536.15L1235.25,1554.76L1261.77,1529.48L1274.09,1550.89C1303.98,1543.34 1295.38,1526.45 1329.37,1518.89L1344.77,1495.62C1330.12,1499.15 1317.4,1497.78 1306.62,1491.51C1299.44,1496.69 1293.18,1496.01 1287.82,1489.46C1278.54,1497.55 1269.45,1496.87 1260.44,1492.2C1250.6,1508.02 1239.2,1510.94 1226.74,1505.03C1207.54,1517.1 1189.23,1520.75 1171.79,1515.99C1147.37,1526.61 1126.72,1528.04 1109.85,1520.27L1091.51,1510.28Z" style="fill:none;stroke-width:1px;stroke:black;"/>
            <path id="highgarden" d="M229.145,2153.28C253.349,2172.06 266.67,2191.38 264.085,2211.47L270.689,2221.03C295.685,2214.31 310.446,2220.32 314.973,2239.07C352.507,2241.99 367.345,2251.43 359.486,2267.38C408.157,2296.1 404.427,2311.93 348.296,2314.84L335.984,2323.56C364.492,2340.78 374.147,2353.25 364.947,2360.99C377.294,2366.99 382.458,2372.98 380.439,2378.96C391.644,2377.47 400.151,2376.73 405.96,2382.18L430.413,2374.2C451.147,2350.06 473.292,2332.34 496.848,2321.07L534.601,2292.73C544.447,2288.26 539.271,2275.79 519.072,2255.33L496.064,2254.65C492.739,2233.7 479.467,2209.19 464.13,2183.95C439.513,2169.29 415.221,2156.54 391.775,2148.78C378.101,2135.77 362.346,2126.67 342.012,2126.18L319.632,2138.52C292.041,2148.65 261.879,2153.57 229.145,2153.28Z" style="fill:none;stroke-width:1px;stroke:black;"/>
            <path id="the-reach" d="M496.989,2255.5L518.893,2258.22C530.177,2270.66 539.136,2280.18 538.038,2292.25C550.529,2291.01 565.143,2288.6 580.723,2285.66C588.88,2281.85 595.959,2275 601.96,2265.11C637.375,2260.2 673.195,2271.84 709.291,2294.8C734.417,2293.66 754.874,2303.01 770.663,2322.87C773.225,2335.94 786.511,2339.46 804.671,2338.62L882.085,2288.65C865.696,2275.82 852.979,2262.1 848.343,2246.44L856.794,2201.26C896.077,2191.29 918.451,2165.16 916.111,2115.41C907.962,2111.1 895.978,2103.14 875.557,2087.15C862.251,2079.99 862.416,2056.2 868.705,2024.85C844.253,2009.2 823.598,2017.57 805.541,2042.4C759.082,2059.54 742.788,2077.25 747.135,2095.36C720.294,2088.97 702.107,2097.91 687.854,2113.82L658.413,2111.78C631.656,2124.42 606.097,2130.13 581.739,2128.91C569.91,2119.37 554.732,2113.45 532.184,2115.47C520.422,2124.88 500.479,2124.8 474.939,2118.21C462.58,2151.26 458.405,2172.34 462.414,2181.45C476.18,2194.27 485.06,2220.75 496.989,2255.5Z" style="fill:none;stroke-width:1px;stroke:black;"/>
            <path id="salt-shore" d="M778.908,2672.56L764.338,2683.17C780.6,2720.21 741.243,2740.99 792.756,2767.58L797.568,2780.3C821.448,2765.24 845.219,2771.25 868.916,2791.67C880.195,2784.86 891.012,2781.74 901.367,2782.28L917.289,2743.28C942.361,2751.44 964.55,2760.36 980.398,2770.93C998.697,2761.42 1016.87,2754.88 1034.47,2762.64L1046.34,2749.92C1074.49,2767.61 1104.14,2775.1 1137.09,2760.14L1139.92,2767.69L1146.35,2754.98C1155.27,2762.5 1164.72,2766 1175.36,2760.64C1183.72,2739.66 1194.63,2731.38 1208.09,2735.81C1221.55,2736.47 1228.17,2722.19 1231.67,2701.1C1198.69,2701.48 1179.79,2688.97 1165.4,2672.33C1134.75,2677.81 1104.46,2681.78 1076.67,2675.3C1062.54,2664.71 1047.36,2660.51 1030.64,2665.65C985.191,2665.21 958.772,2653.95 938.436,2639.23L858.592,2686.99L825.027,2671.17C809.398,2682.24 793.952,2685.74 778.908,2672.56Z" style="fill:none;stroke-width:1px;stroke:black;"/>
            <path id="the-arbor" d="M174.645,2737L65.8665,2737L65.8665,2883.02L170.721,2883.02L226.109,2811.88C230.659,2813.93 237.036,2813.1 245.239,2809.39C253.817,2801.5 252.08,2795.21 248.869,2789.15C237.355,2789.84 228.789,2779.74 223.171,2758.86L205.202,2761.83C197.132,2756.21 197.147,2748.24 198.317,2739.93C187.589,2725.09 177.808,2714.86 174.645,2737Z" style="fill:none;stroke-width:1px;stroke:black;"/>
            <path id="dragonstone" d="M1322.54,1698.66L1465.52,1698.66L1465.52,1944.7L1354.45,1944.7L1242.02,1798.6C1223.14,1790.7 1232.5,1785.39 1254.71,1781.25L1264.46,1781.25L1322.54,1698.66Z" style="fill:none;stroke-width:1px;stroke:black;"/>
            <g id="port-winterfell">
                <path d="M408.425,461.079C440.737,461.079 466.932,487.274 466.932,519.586C466.932,551.898 440.737,578.092 408.425,578.092C376.113,578.092 349.919,551.898 349.919,519.586C349.919,487.274 376.113,461.079 408.425,461.079Z" style="fill:none;stroke-width:1.33px;stroke:black;"/>
            </g>
        </g>
    </g>
</svg>
