<?xml version="1.0" standalone="no"?><!DOCTYPE svg PUBLIC "-//W3C//DTD SVG 1.1//EN" "http://www.w3.org/Graphics/SVG/1.1/DTD/svg11.dtd"><svg width="1980px" height="2975px" version="1.1" xmlns="http://www.w3.org/2000/svg" xmlns:xlink="http://www.w3.org/1999/xlink" xml:space="preserve" style="fill-rule:evenodd;clip-rule:evenodd;stroke-linecap:round;stroke-linejoin:round;stroke-miterlimit:1.41421;"><g><g><path id="kingswood" d="M916.637,2115.58c-0.959201,48.9306 -21.125,77.0833 -60.4974,84.4583l-9.36198,46.9688l37.4141,41.5417c13.8723,-17.8169 44.5399,-14.517 77.6068,-8.20052c38.6108,-51.389 76.8092,-103.347 141.812,-118.31c13.474,2.13281 25.5764,-10.4028 36.3073,-37.6068c20.7691,-9.47222 36.9826,-10.1701 48.6406,-2.09375l28.9661,-2.96615c-3.01389,-11.3125 2.52431,-17.1493 16.6146,-17.5104c-13.3193,-5.7418 -16.857,-12.6886 1.125,-22.2865c-10.954,-16.4931 -7.24306,-25.5451 11.1328,-27.1562l-9.53385,-6.35938c-14.3281,11.4766 -24.9792,8.74306 -31.9531,-8.20052c-2.28038,14.1693 -12.2396,18.8125 -29.8776,13.9297c6.77924,-13.2826 2.7604,-29.1247 -6.16667,-46.1302l28.125,-2.32031c-5.09093,-28.3163 26.631,-58.3812 40.8698,-96.8698c-12.5088,-15.4248 -21.1649,-29.0409 -29.8802,-42.6849l0.651042,23.0469c11.3514,14.0153 15.3015,28.1282 2.96875,42.4557c-11.0052,19.6519 -24.9931,32.1875 -41.9635,37.6068c-2.8967,12.1528 -10.4271,18.5347 -22.5911,19.1458c-16.8427,17.4001 -27.1332,22.7287 -34.4453,22.5703c-2.7964,16.0487 -10.7546,23.1172 -22.9896,22.7448c-32.3449,34.848 -72.1685,64.949 -124.667,87.0052c-19.3103,4.53602 -34.6998,2.39597 -48.3073,-2.77865Z" style="fill:none;stroke-width:1px;stroke:#000;"/><path id="kings-landing" d="M1063.93,1872.91l-27.1198,6.6224l-63.4297,-1.08854c-43.0278,-17.3064 -78.2465,-5.65972 -105.656,34.9401c-1.76929,61.5596 -16.354,105.589 1.08594,110.052c-5.92883,45.8853 -1.4095,73.5865 18.3802,74.7109c12.8672,4.09983 22.1354,10.4236 27.8047,18.9714l47.9375,5.30729c41.3173,-26.9391 83.4614,-56.48 127.424,-91.7448l21.276,-25.5964l-7.5,-27.7839c-25.7986,11.4748 -51.1963,18.4749 -76.0078,18.9349c-26.5458,16.4803 -46.6811,21.6323 -52.7135,1.86198c-18.8403,13.2153 -20.8958,7.0625 -6.16667,-18.4583c-21.4766,-18.7083 -14.8542,-30.0382 19.8672,-33.9896c11.3976,-12.7109 26.1528,-19.2569 44.2656,-19.638l-4.79427,16.4219l14.9974,-11.4167c-2.40075,-22.9341 8.74656,-34.0034 26.0521,-39.6797c-6.07465,-5.73264 -7.97569,-11.875 -5.70312,-18.4271Z" style="fill:none;stroke-width:1px;stroke:#000;"/><path id="blackwater" d="M485.718,2114.25c-22.5032,-15.0426 -26.1445,-32.8133 -16.8802,-52.4505c-12.3802,-27.822 -11.309,-46.1667 3.21354,-55.0339l-8.18229,-48.1667c8.57031,-9.65538 19.8299,-11.1771 33.7786,-4.5651c16.3368,0.750868 32.316,-11.8611 47.9375,-37.8359c13.4374,11.5391 24.9419,5.25408 35.5677,-9.13281c14.5646,5.59144 27.6954,9.37253 40.1745,12.3307c19.7778,-8.93142 33.1806,-24.2951 40.2083,-46.0911c10.3129,-12.8022 27.7728,-23.6785 60.9557,-30.3177l7.30729,-19.3568c31.3351,-4.70052 62.3611,-1.27431 93.0781,10.2786c18.0712,8.28385 23.9965,18.3889 17.776,30.3151c2.58333,20.8516 11.6354,38.8924 27.1562,54.1224l-4.8151,34.4453c15.2534,31.1856 -16.3212,39.019 3.63802,72.3359c-26.658,-16.2847 -47.6632,-7.57031 -61.4323,21.7109c-43.4627,12.5174 -60.6432,21.1675 -55.8542,49.9193c-31.7873,-7.32986 -47.3099,4.43142 -61.3932,20.0755l-27.6302,-3.15885c-24.0966,12.1248 -49.337,22.4341 -77.0938,17.9661c-17.2743,-9.34462 -33.6285,-16.9705 -49.0625,-16.138c-14.125,7.69878 -30.2743,7.28125 -48.4479,-1.2526Z" style="fill:none;stroke-width:1px;stroke:#000;"/><path id="searoad-marches" d="M291.598,1897.87c5.82899,14.8229 0.805556,30.7257 -15.0703,47.7083c7.125,13.526 4.99306,20.9861 -6.39583,22.3802l-19.8854,84.4557l-19.3542,11.1901c6.74132,4.5434 7.05208,10.8611 0.932292,18.9531c4.71701,9.51128 4.03125,16.3438 -2.05729,20.4974c18.0239,10.4934 23.6634,24.7508 2.05729,47.2891c27.4791,4.73149 56.6073,1.93179 88.1458,-11.875c9.06159,-10.0051 19.145,-15.4189 31.4766,-10.7318c12.904,0.526446 26.5821,9.79786 40.612,23.0443c25.3047,8.64538 48.9494,20.717 71.4583,35.1328c-2.62412,-22.7251 -0.500599,-44.2707 12.0677,-63.2214l12.1016,-6.14583c-20.375,-12.5252 -26.9271,-30.934 -19.6562,-55.2266c-8.15068,-17.5616 -9.89475,-34.9131 2.45573,-51.8021l-5.70833,-49.7266l6.39323,-68.4531l-9.78125,-33.7969c-25.4839,33.4429 -35.4451,19.9836 -58.5417,39.2578c-10.8924,-4.82031 -25.6111,-2.99306 -44.1562,5.48177l-36.2526,0.455729c-12.3828,-7.13108 -22.6632,-8.75347 -30.8411,-4.86719Z" style="fill:none;stroke-width:1px;stroke:#000;"/><path id="stoney-sept" d="M472.536,1850.23c-18.1218,5.40005 -10.4419,21.419 -1.40625,41.5234c-7.28107,18.4316 -9.64791,44.2072 -6.8151,70.0521c7.61482,-16.1865 17.73,-14.7294 28.9818,-5.2526c13.7853,1.64249 28.2796,-16.4182 50.138,-38.9922c9.03299,7.43316 24.947,5.36545 36.9245,-8.90625l37.2031,11.6094c21.9527,-6.42767 36.086,-22.8786 44.9505,-46.3776c15.3689,-17.5938 34.9201,-27.1146 58.6536,-28.5625l6.1276,-20.0417c-18.7061,-16.9635 -14.1287,-40.1172 -1.59896,-62.5339c-40.7129,-46.8262 -68.8548,-68.1631 -36.0078,-93.4062l-14.138,-18.9349c-12.2874,6.86813 -24.9863,9.23453 -37.8724,9.55469c-10.2662,36.4213 -10.7484,2.57005 -24.6797,46.3385c-43.8794,25.0164 -74.4932,33.5188 -85.7188,17.8854l-15.2995,22.3802c-32.5983,43.7531 -74.786,18.3144 -46,45.8255c-7.30562,9.66636 -3.43303,18.1361 2.03646,26.4349c-3.43056,13.5217 -1.92361,23.9896 4.52083,31.4036Z" style="fill:none;stroke-width:1px;stroke:#000;"/><path id="lannisport" d="M489.307,1594.36l-21.0443,-2.35677c-11.928,12.8377 -22.7188,16.0278 -32.3724,9.57031l-15.7396,2.72396c-9.84819,10.3791 -22.8091,4.90882 -37.1849,-7.76562l-29.4401,8.69531l-5.90104,15.7396c26.2572,13.6969 33.4423,31.5828 12.7526,55.5911c1.39974,19.5907 -6.54066,25.2622 -18.7266,24.6068l-16.2135,64.7995c-6.25434,42.0382 -20.8507,58.8368 -43.7891,50.3958c-9.72309,13.9913 -19.4549,19.9097 -29.1953,17.7552c-8.91717,21.3908 -21.615,33.6966 -42.6302,26.0156c6.53646,16.6372 0.21875,31.7604 -18.9531,45.3698l32.2812,-14.8802c12.0532,-15.7154 28.5475,-16.1516 45.9635,-13.4167c18.8657,-13.8138 23.753,-3.13066 22.2865,18.6875c11.8168,-1.82899 21.7882,0.899306 29.9141,8.1849c16.0149,-3.2148 27.9918,-2.42524 37.2057,1.10417c14.2129,-10.4171 28.5999,-12.284 43.3698,-5.51562c11.8892,-9.25904 23.2653,-16.6174 33.513,-19.7943l24.8542,-21.8672l12.5052,-9.78385c-8.10243,-1.87153 -9.47222,-10.8993 -4.10938,-27.0833c-7.75,-16.9167 -7.92708,-25.8681 -0.53125,-26.8542c-11.6061,-12.0042 -19.0156,-22.4682 2.95052,-22.151c11.0361,-0.553232 20.2388,-9.88756 40.1536,-25.5391c9.04514,2.07292 14.3368,-6.51042 15.875,-25.75c2.45159,-30.6643 -26.1398,-18.1328 -21.9219,-33.5677l1.88281,-25.3672c29.2065,-18.0123 -6.6401,-26.8444 -17.7552,-67.5469Z" style="fill:none;stroke-width:1px;stroke:#000;"/><path id="seagard" d="M460.747,1281.01l72.7552,-14.862l33.0755,2.73958l-1.14062,9.7474l5.46094,16.8438l6.88802,20.5339l13.9479,6.64062l1.59896,24.1875l15.7552,14.1198c2.10764,22.4575 10.2465,32.5 24.4167,30.1276c9.30423,34.238 26.5706,57.3356 55.474,64.151c-0.275633,8.44024 1.16648,16.3466 14.6328,20.5156c-1.84119,16.2224 6.35903,23.8148 21.4297,25.5026l6.39323,17.2995c-13.4269,10.6248 -31.8276,4.75201 -51.8177,-6.39323c-11.2057,-10.7535 -29.7751,-19.8548 -53.3828,-27.8255c-2.32031,-37.2474 -16.9167,-53.6701 -43.7891,-49.2682c-11.9644,-10.4349 -23.3125,-10.816 -34.0443,-1.14323c-3.27091,12.821 -15.4538,16.9424 -31.6875,17.1094l-15.0703,11.5729l-13.3828,-0.877604l-9.97396,-27.6927c20.2389,-2.70224 40.6075,-9.27321 61.6016,-34.4844c19.5514,-14.169 11.4074,-26.9293 -9.32552,-39.0495c-8.45399,-18.0798 -21.6398,-43.6728 -45.0234,-69.612c-14.3721,4.20178 -21.9174,0.025625 -24.7917,-9.88281Z" style="fill:none;stroke-width:1px;stroke:#000;"/><path id="the-findgers" d="M1112.15,1252.59c30.6516,-6.9004 33.7787,-20.2074 46.1989,-16.008l9.55208,-14.1589c12.7517,-3.77171 19.9048,-10.7218 25.6628,-17.8021l-3.75651,15.9583c-6.44358,0.958333 -10.6302,3.3941 -12.5599,7.30729c-0.688368,11.6102 -6.53125,17.8455 -17.5286,18.7057c-29.1267,8.55382 -37.5764,19.6493 -25.349,33.2865c14.6137,13.303 26.9392,10.1059 36.9766,-9.59115c23.1784,-17.2026 44.644,-31.9224 62.724,-41.7344c-12.646,8.06968 -19.3495,14.8662 -12.9792,18.862c-19.618,10.4999 -36.8501,23.5977 -45.6797,34.5781l31.6927,-1.10677c9.75941,-18.8785 16.8324,-21.0992 28.2435,-19.0677l15.5117,-18.0026c-3.79557,14.5412 73.6775,-44.9423 -3.1862,11.8385c0.540365,5.79905 -1.51215,10.1597 -6.15755,13.082c-8.07552,0.105903 -12.6424,-0.97526 -20.0964,3.32161c-4.02696,14.3231 -15.045,20.7846 -30.8464,21.8672c-62.1693,6.05035 -76.2014,19.5495 -95.5547,77.8724c-26.5156,36.2891 -54.2361,49.6042 -83.1615,39.9453l-25.7474,12.0833c-46.4039,-22.1282 -56.2949,4.00567 -96.3151,-9.34375c-17.3186,-5.77691 -28.8889,-28.0868 -34.7109,-66.9297c21.0817,-22.7301 12.2374,-42.9283 -10.2096,-61.9756l-0.204453,0.0277064l0.185358,-0.143619l-0.0291078,-0.176694l0.321637,-0.0499635c25.0031,10.5455 36.1101,5.92867 26.9075,-20.8485l15.9297,-2.05469c22.8533,16.9106 33.1927,15.0833 31.0182,-5.48177l5.23438,-11.3802l10.4688,-4.53125c12.6806,16.8487 24.2629,15.7173 35.0938,2.28385c16.0047,2.53788 29.789,-5.29839 40.3281,-28.2969l10.9245,1.58073c7.39813,6.63275 12.8781,7.05523 14.138,-6.1849l25.3125,-9.34375c-18.1321,11.4149 -24.3708,21.4305 -13.2266,29.401c0.255002,9.17757 13.3086,6.39438 32.1797,-1.82552c8.0656,5.59788 15.3883,7.96174 17.5104,-12.3125l8.83333,6.375c21.6565,-0.343576 39.397,-7.9024 52.4115,-24.1693l-5.9375,-7.97396c6.92324,1.38522 12.9161,0.965026 16.862,-3.42708c3.53541,2.23992 11.5886,-1.80037 21.6953,-8.69531c6.22923,1.01597 11.7757,-0.954541 17.0117,-4.28255l-4.87109,7.44401l-37.4714,18.0573c1.69878,13.6842 -14.8282,23.7369 -43.8255,31.3047l-14.862,12.349c-10.5682,7.51586 -6.04515,9.66199 5.33758,9.36733Z" style="fill:none;stroke-width:1px;stroke:#000;"/><path id="moat-cailin" d="M619.72,1059.63l58.2324,-13.1602l4.08203,-7.69336c25.2439,-17.6041 50.7646,-19.6063 76.4746,-10.9336c11.5508,-0.630859 17.9453,-4.90365 19.1836,-12.8184c17.0986,-2.13326 30.6734,-10.4455 42.6465,-21.5664l8.03516,49.1133c-17.7652,10.7459 -26.7556,23.685 -16.4414,41.4492c-10.8001,4.05469 -14.2734,11.638 -10.4199,22.75c-15.3833,-5.39114 -23.6069,4.45396 -28.5762,21.2246c4.8347,14.8176 5.23763,27.0781 -4.10938,33.7129c-11.1654,-3.47266 -16.8698,2.91667 -17.1133,19.168l-10.5918,23.4219c14.2632,21.6681 -10.1194,3.57991 -21.2227,21.3535c-6.46764,19.056 -7.17938,34.7894 6.83594,34.7266l7.02344,20.0254c1.70182,6.70052 5.75521,8.92708 12.1602,6.67969c-1.25911,8.61979 -8.40104,19.9271 -21.4258,33.9219c-17.2995,-5.26823 -29.6354,-3.91146 -37.0078,4.07031c-26.9043,6.62679 -28.7617,-8.38437 -52.7246,-5.76758c-10.5312,-1.24609 -15.2604,5.06771 -14.1875,18.9414c-2.63424,10.5175 -9.40478,11.3932 -11.291,21.5664c-9.64062,4.81901 -14.7031,1.46875 -15.1875,-10.0508c-9.34762,-1.84226 -8.3056,-12.2252 -2.54102,-26.4902l-14.1602,-6.33789c5.70768,-3.85156 5.53646,-10.25 -0.513672,-19.1953c9.33976,-3.16193 11.7298,-14.3107 10.9609,-29.0898c-6.73675,-5.513 -3.64192,-11.1946 0.857422,-16.9004c-18.5111,-52.2741 -13.0833,-95.9479 16.2832,-131.021c8.77492,-8.33972 7.26287,-19.6109 4.28125,-31.3008c0.35026,-9.65039 3.83594,-19.5833 10.457,-29.7988Z" style="fill:none;stroke-width:1px;stroke:#000;"/><path id="greywater-watch" d="M420.429,1086.01l3.92578,63.3848c-8.1556,16.6725 -9.46875,33.4818 -3.93945,50.4277c-2.87584,14.2237 -10.2577,24.5996 -18.2832,34.4258c2.981,5.50286 10.7938,7.6038 19.2969,9.21875l1.55664,6.85156c9.71094,1.43229 22.9557,11.7656 39.7344,31c25.3823,-20.9172 49.828,-23.1729 73.6328,-12.6602l31.8555,0.658203l-3.72656,8.89258c5.14909,-2.95508 6.86198,2.91146 5.13867,17.5996l7.67969,3.5957c7.17057,-5.41667 10.5339,-15.3932 10.0898,-29.9297c-5.2793,-2.39062 -4.70833,-7.97656 1.71289,-16.7578c-18.0926,-63.5084 -9.38623,-104.897 17.6562,-131.152c6.61015,-8.66328 6.53392,-19.0548 1.88281,-30.6289c-0.119141,-8.67839 3.64909,-18.3659 10.2773,-31.1172l-53.9375,4.09766c-18.8079,10.3132 -29.4219,11.8542 -31.8418,4.62305c-18.0603,11.4995 -35.4601,16.249 -51.8945,11.1328c-9.58594,10.1654 -19.849,14.276 -30.7891,12.332c-14.5946,11.0841 -23.5847,6.1789 -30.0273,-5.99414Z" style="fill:none;stroke-width:1px;stroke:#000;"/><path id="funts-finger" d="M311.077,1133.64c30.4922,-4.41341 48.5234,-19.3047 54.0938,-44.6738l16.5996,-3.08203c12.1758,9.29557 24.2591,9.52344 38.9922,0.683594l3.42773,63.2734c-9.56697,11.9921 -8.98931,29.935 -4.04297,52.5254c-4.80534,12.3132 -11.1328,22.8177 -18.9824,31.5137c-19.5729,-5.63086 -38.3464,-2.66667 -56.3203,8.89258c-6.05273,-1.88411 -12.0859,0.109375 -18.0996,5.98047c-26.3919,-4.67773 -46.6224,-0.0625 -60.6914,13.8457c-8.34312,-5.72614 -18.3799,-8.05554 -32.1426,-2.91211c-14.1829,-5.0918 -27.9896,-5.3776 -41.4199,-0.857422l-21.6816,-14.3867c0.597716,-4.21422 -2.72853,-10.1213 -9.25,-19.709c13.4056,-19.0762 23.2643,-34.5202 26.1777,-46.3594c13.3991,-7.76888 23.2188,-20.276 29.459,-37.5215c2.79753,-5.22591 7.23177,-5.85417 13.3027,-1.88477c-3.73893,5.97005 -1.80729,9.42969 5.79492,10.3789c2.56706,5.3151 6.22135,9.08333 10.9629,11.3047l15.543,-7.38086c4.79362,23.5085 17.4062,26.7546 39.8379,11.4219c24.7988,-8.07357 27.612,-18.4245 8.43945,-31.0527Z" style="fill:none;stroke-width:1px;stroke:#000;"/><path id="white-harbor" d="M775.007,1015.77c-38.1519,-44.5564 -37.2222,-79.7222 2.78906,-105.497c20.0339,-6.85243 21.6215,-22.1562 4.76302,-45.9115c12.4885,-65.0493 38.968,-103.965 73.7031,-127.461c20.754,-6.53351 53.0071,-39.8863 90.487,-85.4297c44.1438,-26.2245 12.8478,15.0046 69.612,23.5755c14.1085,26.9323 35.0729,36.1875 62.8932,27.7656l0.494792,18.7839c0.696181,5.80382 3.44444,7.45833 8.24479,4.96354c-0.300347,14.6727 9.79514,23.4514 30.2865,26.3359c-2.91223,5.67294 -4.57971,11.6681 2.46615,19.9193c-19.2474,-0.605035 -28.9062,3.24653 -28.9766,11.5547c-33.0998,0.561642 -48.7195,-10.2069 -68.6198,3.77604c0.116319,14.0122 -10.5799,21.6389 -32.0885,22.8802c-21.6482,9.35209 -8.13525,28.2666 -17.7969,31.9167c12.695,45.8662 -30.0127,28.8043 -36.0859,55.3151c13.7521,13.7633 11.826,21.2756 10.5391,41.763l23.8672,15.6484c18.0174,10.4878 26.4097,20.9618 25.1771,31.4219c18.8178,9.43353 33.9434,8.27189 47.3906,2.29427l1.97656,27.5234c-5.61095,4.46301 -10.5391,9.85473 -10.6875,21.7474c-7.86111,9.68837 -10.5521,17.8993 -8.07292,24.6328c-7.56684,1.28906 -11.9028,6.11806 -13.0078,14.487c-24.6157,0.51653 -42.1399,4.86674 -44.0625,17.651l-22.9323,-16.1432l-86.4167,-19.2786c3.83335,-31.8473 -5.0776,-55.936 -22.7083,-74.7161c-8.03472,-18.3689 -15.0694,-15.5799 -21.1042,8.36719c-16.844,15.6391 -30.2651,21.1734 -42.1302,22.1146Z" style="fill:none;stroke-width:1px;stroke:#000;"/><path id="widows-watch" d="M1020.97,786.079c3.98438,13.3223 -6.1849,21.6771 -30.5078,25.0645c-21.9583,11.9954 -7.38737,29.6393 -18.291,30.4902c15.5178,46.6935 -24.4296,26.5249 -35.3047,57.0195c12.3197,10.1706 15.2448,23.9062 8.77539,41.207c21.6827,20.0442 48.4042,19.5828 51.4648,45.9102c13.8662,9.68237 29.7454,10.1019 47.002,4.18359c1.27377,-13.0838 3.53615,-25.6467 12.7188,-34.5625c3.05273,-3.06055 5.23698,-7.09635 6.55273,-12.1074c-10.2507,-31.5977 -4.86979,-41.724 16.1426,-30.3789c7.76888,1.60872 13.0391,4.98437 15.8105,10.127c8.91881,-0.294377 16.7942,2.5839 24.1953,6.9043c12.424,-5.77771 22.3516,-6.28265 26.7871,4.8125c5.99609,2.69531 11.5625,3.47917 16.6992,2.35156c8.70898,9.87305 17.3854,13.2057 26.0293,9.99805c4.22402,-2.32561 13.3544,-2.31488 24.7148,-1.24219c-16.3529,-0.962891 -23.5547,-6.27604 -21.6055,-15.9395c-14.4935,2.18099 -21.6146,-1.20052 -21.3633,-10.1445l-15.7441,0.259766c-2.71123,-7.55708 -7.10157,-17.2443 -3.89844,-28.418c5.28189,-1.85764 8.96873,-4.53497 9.14648,-9.01562c-8.53711,0.593099 -13.0234,-6.39844 -13.459,-20.9746l8.70508,0.355469l-4.46484,-12.166l-12.5137,0.388672c-6.40668,-7.37141 -11.0479,-17.2123 -9.01758,-25.4922l-8.10742,-2.07227l2.5918,-7.07227c-14.7827,4.07343 -24.9676,-8.59726 -33.0625,-28.8789c-32.6726,-1.78789 -44.9963,-12.3592 -69.9961,-0.607422Z" style="fill:none;stroke-width:1px;stroke:#000;"/><path id="karhold" d="M1104.4,394.96c-26.7203,11.399 -50.6067,4.96922 -72.458,-14.2637c-11.3375,-15.2576 -25.445,-15.2917 -41.8477,-2.71191c-20.8279,13.2903 -33.1447,16.2353 -37.209,34.8125c20.1124,25.9856 39.4767,53.9523 57.5732,85.2764c30.1214,11.6475 45.9942,21.8483 41.042,29.9346c4.03237,22.7324 16.8727,12.8621 27.084,36.4043l0.740234,38.5605c3.13737,5.59896 8.11719,7.05859 14.9395,4.37891c-8.33351,10.8275 -7.51803,24.4963 -4.80371,38.7549c5.50781,16.4193 18.9202,7.30534 28.5742,17.8369c5.41991,-0.047189 10.8309,0.559047 16.1797,5.73926c1.61296,6.64225 4.14323,11.1068 7.59082,13.3936c9.0262,0.863399 14.3069,-2.4074 11.3477,-14.7734c-0.527352,-8.55924 3.23835,-13.9009 9.94141,-17.041l25.1211,0.185547l11.1182,-27.1582c-5.17726,-13.425 -2.70615,-22.1012 4.99805,-27.5283c-1.50391,-5.75391 -0.285156,-9.58594 3.65625,-11.4961c-5.03278,-17.0632 -5.5883,-34.0389 -0.740234,-50.9092c12.1841,7.06803 18.9615,17.7785 17.8369,33.8125c10.5891,3.49304 20.1111,6.98844 28.0732,10.4873l-0.554688,14.1895l9.82031,8.15527l6.05371,-15.4307c-5.23905,-7.38011 -5.01198,-15.7328 -1.04492,-24.751c9.46587,-2.76375 12.6189,-11.3771 12.9023,-22.6494c6.78601,-3.50344 12.8467,-14.3027 18.4111,-30.0938l-4.81348,-10.4961c5.72819,-3.7487 8.27995,-10.4596 7.65527,-20.1328c-8.4701,-1.46113 -8.45063,-7.7019 -4.57227,-16.1152c-11.8531,-2.00254 -14.2337,-12.3526 -8.76562,-29.6191c-7.52897,-5.64551 -11.4167,-11.2891 -11.6631,-16.9307c-20.1894,6.19513 -36.7702,9.30208 -48.0771,7.89551c-7.06204,17.8973 -21.2332,19.471 -38.6357,13.625c-0.0888672,-5.53939 0.00390625,-8.52311 -3.77637,-9.69141c-10.7312,1.04267 -16.9709,-4.94366 -21.1689,-14.125c-13.1642,3.90033 -22.1783,0.0985412 -29.0928,-7.59961c-16.485,5.06771 -26.9635,1.75911 -31.4355,-9.92578Z" style="fill:none;stroke-width:1px;stroke:#000;"/><path id="the-stony-shore" d="M322.94,663.822c-5.22204,12.6211 -16.7421,12.3961 -31.125,6.33203c-17.299,-4.93229 -18.2083,-3.45139 -2.72786,4.44271c6.52262,3.67866 10.1178,9.54814 10.0981,17.0057c-0.0117747,4.47455 -1.32486,9.52081 -4.08772,15.0086l-11.2943,2.46745c13.6707,7.12295 13.3582,21.7281 -8.5651,34.7174l-13.4154,-4.6901c-7.39453,2.47179 -12.9358,0.715278 -16.6237,-5.26953c-7.41927,0.411024 -13.9236,-3.10243 -19.513,-10.5404c-5.38085,-0.112568 -10.5824,-1.12625 -15.3893,-4.1224c-6.00391,2.10156 -12.2986,7.39583 -18.8841,15.8828c-7.60002,18.4516 -6.92166,32.9714 -12.181,32.9896c0.407118,10.2148 -3.57118,16.6615 -11.9349,19.3398c3.5829,10.7174 2.89583,17.6823 -2.0612,20.8945c1.81657,6.80106 0.809733,12.5403 -1.48047,17.7969l-8.88672,5.17057c0.800781,4.71398 -0.215278,8.66319 -3.04818,11.8477c7.12891,12.0078 7.37153,22.4861 0.727865,31.4349l9.38021,7.65104l9.79948,-4.03516c1.80425,10.1024 -0.857639,19.1441 -7.98568,27.125c-7.31207,16.8602 -5.36632,17.3542 5.83724,1.48177c10.0332,-9.95648 20.5363,-15.2978 31.6068,-15.069l10.3802,-16.3047c0.0365103,-6.84266 1.75112,-12.6795 7.15755,-16.3034l8.5651,-0.246094l1.32161,30.4336l-9.55339,17.0443l0.234375,42.2812l13.5755,17.513c9.99045,2.28776 12.3681,12.3299 10.9349,29.4596l-4.28255,4.85026l-0.173177,8.72526c20.7128,4.5114 30.7979,12.4578 25.3503,25.4245c5.88238,6.96137 13.4271,9.53646 22.6341,7.72526l3.54167,21.7214l43.1094,-1.32031c3.95681,-2.40148 6.34197,-6.63766 5.26953,-14.9102l5.85026,0.740885l4.29557,-7.15755l19.9062,0.986979c-0.635366,-10.343 0.926094,-22.6555 8.89974,-31.1263c6.37457,-28.6927 12.7674,-29.3264 19.1784,-1.90104c-0.501736,13.1988 -2.58333,21.3733 -6.24479,24.5234l0,6.83724l10.8607,10.6875l23.8685,0.888021c0.741699,-6.8837 4.03335,-13.3994 12.9349,-19.1055c7.41063,-17.7055 17.8862,-27.0078 32.8411,-24.0286c14.543,3.59117 19.8238,-13.3371 20.8945,-39.5924c34.6405,-41.1612 57.8174,-90.9747 66.138,-152.001c-4.76128,-5.78602 -6.02431,-11.6649 -3.78906,-17.6367c-19.602,-7.98438 -28.599,-17.8038 -26.9909,-29.4583l-27.5234,-18.7109c-35.9071,3.03263 -52.4577,-9.77854 -52.9701,-35.7174c-26.145,-41.2448 15.7773,-38.7157 -42.4076,-64.2253c-11.5028,-15.1445 -40.4446,-8.70505 -82.0534,12.0417Z" style="fill:none;stroke-width:1px;stroke:#000;"/><path id="castle-black" d="M759.652,218.863l265.467,1.83398c1.74219,7.21745 4.78385,11.3698 9.125,12.457c-4.48177,29.9759 0.492188,46.2734 14.9219,48.8926c1.05078,5.73568 4.26562,7.2474 9.64453,4.53516c-1.36067,5.31315 -0.748684,11.0532 4.20312,17.7324c-0.404963,4.77823 0.0655127,9.40144 6.66406,12.9395c-3.39502,8.15255 -0.430866,18.205 5.42383,29.1211c-1.67656,15.2112 0.257205,25.1576 3.83203,32.7109c-2.09701,8.31445 -1.5599,14.9792 1.61133,19.9941c-40.0747,10.6535 -51.7463,-51.6347 -89.0078,-19.1426c-24.043,10.2415 -38.8359,17.2448 -38.0449,34.4512c-37.3513,-23.257 -68.8595,-35.6069 -82.084,-13.8281c-5.12044,9.01497 -15.7031,11.8906 -31.748,8.62695c-7.0599,0.0546875 -14.4219,3.4974 -22.0859,10.3281c-19.7838,17.139 -15.2542,-3.3073 -45.3379,24.5664c-21.1836,30.431 -33.7474,43.8333 -37.6914,40.207c-24.4477,-5.79295 -48.8057,28.6118 -65.5742,11.8281c-29.1462,0.00850184 -50.1882,0.335784 -57.0156,-9.99609l-1.48242,-8.77344c7.25326,-4.17708 12.0729,-10.6875 14.459,-19.5312c13.7349,-11.1421 10.6222,-23.0041 -0.148438,-35.1934c4.06706,-2.7806 5.92448,-6.85938 5.57227,-12.2363c6.76888,0.363932 10.6875,-4.07292 11.7559,-13.3105c4.84505,-3.11393 5.7526,-9.32812 2.72266,-18.6426c0.111328,-12.6289 -6.39323,-22.4844 -19.5137,-29.5664c11.0163,-3.23503 15.5026,-7.10417 13.459,-11.6074c27.6895,-7.85026 42.1354,-18.2604 43.3379,-31.2305c5.75065,4.15755 12.2917,4.76823 19.623,1.83203c14.1419,-0.0266927 18.7083,-7.72135 13.6992,-23.084c7.07023,-8.94459 13.9814,-17.6766 31.2305,-40.2266c7.89128,-2.125 12.2188,-10.6875 12.9824,-25.6875Z" style="fill:none;stroke-width:1px;stroke:#000;"/><path id="winterfell" d="M611.537,487.287c-7.95518,6.20685 -15.1141,10.3944 -16.6992,0.447266c-11.0025,23.5357 -20.2856,21.1184 -28.7871,6.9043l-10.3672,5.18359c-7.10417,21.0853 -18.2917,22.4427 -33.5625,4.07227l-10.5703,8.75781c-11.944,12.0384 -21.1823,5.80469 -27.7148,-18.7012c-18.0897,-2.91182 -17.0467,-12.8897 -22.5469,-29.7109c0.353316,17.9653 6.32389,32.162 13.1074,32.6738l1.96289,19.9941l-1.85156,12.3477l-44.3184,21.1035l-58.5,-19.9941l-24.8066,-11.2363c-4.34791,-1.87985 -6.95687,-8.09919 -8.77539,-16.291l-3.8125,-8.64648l-28.8984,-22.7129c-10.4785,15.6861 -25.6363,14.6175 -41.0977,8.97656l-3.46094,6.66406c23.2296,2.94339 36.0706,9.89238 44.1895,18.6621c16.4746,11.4915 21.4974,23.099 15.0684,34.8223l-6.44336,11.5156c7.18277,8.54984 11.9449,27.9243 15.0508,54.7051l-16.9199,2.36914c-0.660156,14.5423 -11.6081,19.7507 -31.1016,19.3633l17.5137,8.64648c11.3717,-2.68034 19.8438,6.29167 25.416,26.916l47.6133,-20.252c13.762,-2.66432 26.2184,-1.80353 35.8027,6.8125c25.8336,10.5836 34.788,23.2771 32.1934,37.4141c-0.972092,7.9257 2.71326,17.832 8.51562,28.6387c-0.515616,17.8452 8.33621,30.6426 30.8789,36.0625l21.9746,-1.25977l27.2891,19.7539c-2.43541,12.6126 9.11693,21.2817 27.0273,28.1582c-3.36068,7.88346 -2.25,13.8932 3.33203,18.0293c-7.48828,57.0059 -29.3516,107.742 -65.5898,152.209c-1.38991,27.6098 -4.15087,39.6571 -20.2344,40.9297l-7.29492,16.9199l-6.18359,20.123l27.5273,-9.38477c3.33398,5.41276 8.27083,4.41927 14.8105,-2.98047l13.3477,-9.01562l13.1074,0c5.58789,7.30729 14.7578,10.5156 27.5098,9.625c6.61393,2.16081 10.5391,7.55469 11.7754,16.1816c34.7919,0.375173 71.1731,-5.45328 108.871,-16.4219l6.79297,4.5918c32.1584,-18.261 32.1371,-22.9423 76.1797,-10.5352c7.61914,-2.44141 17.2266,-7.16797 18.9004,-12.2187c-8.19983,-7.08146 -16.8491,-20.0527 -22.4727,-30.6387c-15.4544,-32.235 -9.28385,-56.5911 18.5117,-73.0684c24.7384,-8.03695 25.2355,-24.9818 9.14648,-48.0215c-1.58217,-11.9215 -0.27129,-25.9587 7.4043,-44.6504c26.2454,-53.6178 49.7812,-80.8125 70.6074,-81.584c24.844,-17.6476 54.001,-49.0959 83.8242,-82.6758c12.7446,-20.4536 26.7085,-15.1548 41.2266,1.84961c10.0116,15.1714 19.8992,19.0331 29.7305,17.7539c15.4749,19.7166 31.0459,34.8525 47.0801,27.918l14.3281,-2.22266l17.459,2.85156l-10.9785,-8.9043l-2.2207,-12.8477l12.127,-1.48242c-11.5898,-0.952474 -14.6693,-9.15365 -9.23828,-24.6035l5.33203,-11.0352l-0.740234,-27.1387l5.31445,-10.8848c-6.32747,2.33984 -11.4375,0.815104 -15.3301,-4.57422l-0.371094,-35.3945c1.63542,-7.46354 -3.14062,-14.4609 -14.3281,-20.9922c-5.77539,-2.38737 -10.1016,-8.5651 -12.9785,-18.5332c7.49886,-8.24867 -9.90764,-18.8368 -38.6348,-30.4883c-25.3595,-41.0948 -46.0718,-70.9735 -58.9082,-81.8438c-34.9833,-23.4323 -66.493,-38.7645 -81.2656,-15.0684c-9.39128,9.00716 -20.7396,11.1849 -34.0449,6.5332c-16.7195,10.5549 -32.5967,19.7699 -42.5781,19.6055c-27.0681,8.32705 -40.6,45.9873 -59.2402,56.1465c-19.022,-7.05875 -42.4082,24.7038 -65.6621,13.3301c-25.7255,1.41069 -47.1995,-0.459786 -59.3203,-9.54883Z" style="fill:none;stroke-width:1px;stroke:#000;"/><path id="pike" d="M102.755,1337.39l304.961,0c9.53077,70.1182 0.81907,117.122 -23.0078,144.974c8.35417,4.56771 9.19097,12.5417 2.51042,23.9219l12.5234,8.16406l0,12.2969l-15.737,10.237c-15.3872,-5.18056 -23.2153,-2.43403 -23.4844,8.23958c-30.9013,-15.4817 -0.278952,15.0648 -80.612,34.026c-6.80359,-6.30541 -14.7786,-8.96385 -25.3307,-3.59896c-11.2951,9.42795 -19.2813,10.3542 -23.9583,2.77865l-128.833,-120.174l0.96875,-120.865Z" style="fill:none;stroke-width:1px;stroke:#000;"/><path id="the-twins" d="M747.364,1288.89l-22.3984,32.8646l-37.8542,2.05729c-11.1991,7.04813 -27.9688,-4.38588 -51.8177,-3.90104c3.5217,4.98351 2.53819,8.99306 -2.95052,12.0286c1.31944,6.44531 -1.72569,15.1806 -9.13542,26.2057c-3.31163,8.0842 -2.5625,14.5243 2.2474,19.3203c15.6884,-0.949653 23.8021,6.72569 24.3411,23.026c1.77509,20.3947 18.544,30.1528 35.1693,41.1979c12.3646,-1.78472 17.1146,5.99392 18.25,18.4245c7.66117,4.18889 14.3337,9.00926 14.0859,18.25c13.1033,11.0486 20.1736,20.6944 21.2109,28.9375c13.9557,-31.5469 28.591,-51.0538 44.7214,-44.0729c6.56424,-5.23438 18.1285,-7.89236 34.6927,-7.97396c10.2569,-13.1111 20.8681,-21.6424 31.8333,-25.5938c5.07362,-8.83642 17.5147,-8.36978 33.3047,-3.67448l8.65885,-11.1146c-22.3118,-7.79708 -33.0501,-31.892 -35.8698,-67.138c18.1458,-26.8993 13.6181,-35.5764 -11.4193,-61.6016l-46.0547,6.16406c-13.1727,16.0686 -25.7083,15.25 -37.6068,-2.45573l-13.4089,-0.950521Z" style="fill:none;stroke-width:1px;stroke:#000;"/><path id="riverrun" d="M626.82,1483.87c0.743822,25.4145 -3.70031,35.8244 -10.5026,39.4141c-6.10677,17.3142 -17.4549,23.7847 -34.0443,19.4115c-2.82639,12.3429 -11.3403,15.1597 -25.5417,8.45052c-1.5191,18.1858 -10.7292,29.4201 -27.6302,33.7031c-17.4145,16.0449 -31.9009,22.5283 -39.9453,7.97656c1.44365,40.086 50.3052,41.6339 18.4792,70.6615l-4.09115,25.2943c8.03472,10.947 26.2092,9.07465 18.9531,24.4141l1.59896,12.2214c19.4953,15.0071 51.138,4.25187 88.3021,-18.2135c2.79332,-31.8171 24.001,-21.5671 24.3594,-45.1771c21.1451,-1.87232 41.2607,-16.4143 60.6719,-39.625c19.5512,16.6606 38.5625,21.2153 57.0339,13.6641l5.9375,3.42708c20.567,-13.7259 31.3162,-0.069761 44.776,9.99219c10.562,-1.7819 20.154,-4.10352 22.9557,-10.2031c-22.6048,-13.4887 -9.79041,-19.8141 -25.1016,-51.7839c-33.6306,-22.1919 -53.6785,-46.39 -69.3854,-71.2292c-30.0164,18.891 -56.4139,-14.8744 -106.826,-32.3984Z" style="fill:none;stroke-width:1px;stroke:#000;"/><path id="harrenhal" d="M864.587,1651.54c-3.84804,30.7015 1.99391,53.8872 9.22013,75.9992c16.1175,-2.04175 11.0328,34.3055 1.39648,81.8105c-27.9282,31.716 -31.8418,7.81817 -53.1074,26.0488c-36.5862,-13.3108 -69.5803,-21.7115 -94.6719,-9.94727c-16.4062,-13.2409 -16.6823,-34.3464 -0.828125,-63.3164c-43.8189,-39.1423 -64.9803,-72.5742 -36.2949,-93.4434l-15.957,-18.998l23.3066,-28.916c13.0345,17.6953 31.8177,21.8672 56.3496,12.5156l8.50781,5.43945c11.9866,-9.7704 24.7734,-8.16667 38.3604,4.8112c4.04128,6.4401 13.483,5.6033 28.3251,-2.51042c1.58951,14.1679 16.0175,15.3402 36.2812,10.6055l-0.888103,-0.098823Z" style="fill:none;stroke-width:1px;stroke:#000;"/><path id="crackclaw-point" d="M951.477,1687.47l-86.9512,-34.9531c-1.63767,24.3779 1.62343,49.2023 8.23633,74.332c15.2486,-2.64666 14.1561,27.9045 1.88281,81.1699c-30.2292,35.1558 -39.2964,3.8728 -52.2988,26.3203c19.0924,8.21615 25.4297,18.6406 19.0117,31.2734c3.16828,21.114 12.0321,37.8891 24.793,51.6953c36.8613,-44.5221 70.5078,-56.625 100.939,-36.3086c32.2765,-5.7922 54.0658,-6.38194 68.6797,-3.41211l27.5879,-46.5449c20.1868,-11.8659 24.6068,-20.8906 18.3691,-32.5273l31.1426,-24.793c5.68555,-10.179 12.0703,-10.0078 19.1543,0.513672l16.4277,-0.841797c-8.42203,-16.5437 6.54667,-21.6401 37.5195,-18.9043l1.52734,-15.5293l38.207,-1.74023c0.909505,-9.86068 8.5026,-18.9766 22.7793,-27.3477c-9.41729,-5.39126 -11.9994,-11.5146 -11.4746,-17.9707c12.6055,0.589844 23.0052,-7.25521 31.1992,-23.5352c-2.56576,-6.37109 -1.20052,-15.3255 4.0957,-26.8633l-8.87695,0.515625c-10.5007,18.0163 -23.8464,29.1484 -40.0371,33.3965c-5.46862,14.415 -17.5053,18.4798 -32.5273,17.8398c-6.01823,11.9076 -16.5,18.763 -31.4453,20.5664c-24.1008,32.8745 -28.7322,14.6848 -84.0527,1.74023l-23.9492,4.95312c-33.9681,21.8822 -67.2812,10.8672 -99.9395,-33.0449Z" style="fill:none;stroke-width:1px;stroke:#000;"/><path id="the-mountains-of-the-moon" d="M739.379,1506.45c6.85713,12.6427 16.6373,23.4336 27.7461,33.3828c14.6032,9.9219 11.7582,21.9193 29.6016,33.8848c17.4557,4.32286 25.0843,23.0507 28.2461,48.3262l17.2168,19.0723l34.0684,-2.39844l79.6816,40.5918l24.8223,-0.857422c22.4805,19.0091 51.9818,20.0938 88.5039,3.25391l7.99609,4.24023c7.27865,-1.25195 16.1276,-6.55208 26.5469,-15.9004c3.20117,-4.89062 -0.505208,-10.4141 -11.1191,-16.5703c-14.3451,1.77995 -23.7604,-4.09635 -28.2461,-17.6289l-33.8418,-13.1602c-2.88765,-12.6655 -11.5623,-25.6559 -60.7461,-40.9199l5.79492,-7.33594l-24.9648,-17.5996c7.62397,-22.2529 32.5958,-25.3318 65.4531,-19.6953c15.7168,0.345052 17.4635,-2.96615 5.24023,-9.93359c-26.7416,-5.11091 -15.8044,-11.9259 0.515625,-18.9844l34.082,-10.6191c7.45508,5.90299 15.4818,5.04688 24.0801,-2.56836c7.70764,2.13623 11.7105,8.26199 14.0293,16.2012l15.0605,10.2207c36.0253,-8.20202 39.9573,-28.2561 93.9961,-37.6934c9.57878,-22.888 2.1888,-14.5254 6.00781,-35.8086l34.9258,-2.41211c16.9228,-5.92393 25.3287,-11.7316 29.8633,-17.4863c-11.2849,-2.67392 -10.4457,-11.2734 -4.0957,-22.5664l13.502,6.48047c8.18166,-7.21105 12.8707,-13.4024 22.3945,-10.2754l3.25586,-19.2852c-10.4596,1.95378 -15.8698,-0.429688 -16.2305,-7.15039c-4.61323,-7.07792 0.262661,-11.9869 6.49414,-16.5859l-14.1602,6.29492c0.0449219,15.0124 -4.86458,24.1523 -14.7285,21.2246c-17.5297,-0.302645 -17.2061,-13.0045 -14.332,-23.9375l-16.9004,0c-2.47721,-7.77604 3.51302,-14.8984 17.9707,-21.3672c8.55924,-0.885417 12.151,-5.09635 10.7754,-12.6328c8.66195,-6.73436 16.7567,-10.2556 24.5938,-12.3164l-2.39648,-9.87891l7.86328,-11.9746c-16.8444,17.1042 -31.8892,26.834 -42.9746,20.3398c-0.247396,6.95703 -7.09375,11.3438 -20.5391,13.1602c-8.36198,5.15885 -19.8802,6.58594 -34.5547,4.28125c-11.7575,9.70319 -23.0115,12.7578 -33.1582,1.18555c-7.00863,16.2253 -13.6424,16.129 -20.2227,13.7012c0.857944,12.9152 -19.9004,19.8086 -50.4844,23.9648c-28.2266,37.1022 -55.7734,50.3568 -82.6406,39.7637l-28.2598,10.6191c-59.0209,-18.4473 -49.7841,5.2471 -94.9863,-5.65234l-7.4082,10.2305c-22.5463,-13.3302 -47.3989,12.005 -65.6699,31.3301c-18.3356,-2.19526 -28.7638,0.328025 -35.5977,4.99609c-21.4868,-0.232824 -33.8517,17.9279 -42.0703,44.4492Z" style="fill:none;stroke-width:1px;stroke:#000;"/><path id="the-eyrie" d="M1091.51,1510.28c-0.815755,-7.56185 -4.28906,-12.4141 -10.4199,-14.5566c-8.79492,7.88021 -17.9062,7.95573 -27.334,0.226562c-43.2689,15.3034 -64.7558,26.608 -38.3223,29.1152c17.7168,7.36849 16.2943,11.1797 -4.26758,11.4336c-35.8802,-4.3125 -56.1771,2.3099 -60.8906,19.8672l25.1641,16.2715l-6.33789,9.20703c31.7923,7.13607 51.5365,20.0859 59.2324,38.8496l35.4395,14.7305c2.57552,12.8053 12.3854,19.1901 29.4297,19.1543c11.3477,5.05664 15.1641,10.3568 11.4492,15.9004c19.9599,7.0934 38.9816,-4.83318 57.3613,-29.7734l14.5859,-21.7383l31.2871,-4.13672l-25.6914,-4.95312c-9.82766,-9.04942 -4.59817,-20.853 10.9336,-34.541l-16.7422,-10.9492c-40.0044,-2.9155 -46.4228,-9.82737 -3.75391,-22.5801c15.5461,-6.19 31.9553,-7.5719 48.9551,-5.66406l13.6602,18.6133l26.5195,-25.2793l12.3184,21.4082c29.8949,-7.55404 21.2967,-24.4371 55.2773,-32l15.4004,-23.2656c-14.6478,3.52604 -27.3646,2.15625 -38.1504,-4.10938c-7.17122,5.17773 -13.4375,4.49219 -18.7988,-2.05664c-9.27491,8.09098 -18.3666,7.40938 -27.375,2.74023c-9.8433,15.8199 -21.2399,18.7393 -33.6992,12.832c-19.1986,12.0677 -37.5156,15.7214 -54.9512,10.9609c-24.4193,10.6217 -45.0677,12.0495 -61.9453,4.2832l-18.334,-9.99023Z" style="fill:none;stroke-width:1px;stroke:#000;"/><path id="highgarden" d="M229.145,2153.28c24.2035,18.7876 37.5245,38.1046 34.9401,58.1953l6.60417,9.55469c24.9957,-6.71788 39.7569,-0.704861 44.2839,18.0391c37.5339,2.92535 52.3715,12.3646 44.513,28.3177c48.671,28.7214 44.941,44.5417 -11.1901,47.4609l-12.3125,8.71615c28.5087,17.217 38.1632,29.6944 28.9635,37.4323c12.3464,5.9974 17.5104,11.9861 15.4922,17.9661c11.2049,-1.48958 19.7118,-2.23177 25.5208,3.21615l24.4531,-7.97396c20.7335,-24.1458 42.8785,-41.8576 66.4349,-53.1354l37.7526,-28.3359c9.84635,-4.47222 4.67014,-16.9375 -15.5286,-37.3958l-23.0078,-0.684896c-3.32547,-20.9523 -16.5979,-45.4577 -31.9349,-70.7005c-24.6167,-14.6617 -48.9087,-27.4087 -72.3542,-35.1667c-13.6744,-13.0084 -29.4298,-22.1076 -49.763,-22.6068l-22.3802,12.349c-27.5911,10.1241 -57.7535,15.0417 -90.487,14.7526Z" style="fill:none;stroke-width:1px;stroke:#000;"/><path id="the-reach" d="M496.989,2255.5l21.9036,2.72135c11.2847,12.4349 20.2431,21.9627 19.1458,34.026c12.4902,-1.23945 27.1047,-3.64718 42.6849,-6.58594c8.15712,-3.80903 15.2361,-10.6597 21.237,-20.5521c35.4151,-4.91048 71.2346,6.72727 107.331,29.6875c25.1259,-1.14149 45.5833,8.21528 61.3724,28.0703c2.56194,13.0749 15.8477,16.5881 34.0078,15.7552l77.4141,-49.974c-16.3896,-12.8339 -29.1062,-26.5503 -33.7422,-42.2083l8.45052,-45.1797c39.2835,-9.97349 61.6575,-36.1033 59.3177,-85.8464c-8.14884,-4.31449 -20.133,-12.2759 -40.5547,-28.2604c-13.3056,-7.16251 -13.1402,-30.9542 -6.85156,-62.3047c-24.4524,-15.6543 -45.1074,-7.27557 -63.1641,17.5469c-46.4594,17.1392 -62.7528,34.8534 -58.4062,52.9609c-26.8403,-6.38919 -45.0274,2.55069 -59.2812,18.4583l-29.4401,-2.03646c-26.7578,12.645 -52.316,18.3542 -76.6745,17.1276c-11.8286,-9.53619 -27.007,-15.4596 -49.5547,-13.4349c-11.7623,9.41055 -31.705,9.32406 -57.2448,2.73958c-12.3595,33.0512 -16.5347,54.1319 -12.5257,63.2421c13.7667,12.821 22.6463,39.3004 34.5752,74.047Z" style="fill:none;stroke-width:1px;stroke:#000;"/></g></g></svg>