<?xml version="1.0" standalone="no"?>
<!DOCTYPE svg PUBLIC "-//W3C//DTD SVG 1.1//EN" "http://www.w3.org/Graphics/SVG/1.1/DTD/svg11.dtd">
<svg width="1980px" height="2975px" version="1.1" xmlns="http://www.w3.org/2000/svg" xmlns:xlink="http://www.w3.org/1999/xlink" xml:space="preserve" style="fill-rule:evenodd;clip-rule:evenodd;stroke-linecap:round;stroke-linejoin:round;stroke-miterlimit:1.41421;">
    <g>
        <g>
            <g id="port-dragonstone">
                <path d="M1391.28,1882.7C1423.59,1882.7 1449.79,1908.9 1449.79,1941.21C1449.79,1973.52 1423.59,1999.72 1391.28,1999.72C1358.97,1999.72 1332.77,1973.52 1332.77,1941.21C1332.77,1908.9 1358.97,1882.7 1391.28,1882.7Z" style="fill:none;stroke-width:1.33px;stroke:black;"/>
            </g>
            <g id="port-white-harbor">
                <path d="M913.796,1028.15C946.108,1028.15 972.303,1054.35 972.303,1086.66C972.303,1118.97 946.108,1145.17 913.796,1145.17C881.484,1145.17 855.29,1118.97 855.29,1086.66C855.29,1054.35 881.484,1028.15 913.796,1028.15Z" style="fill:none;stroke-width:1.33px;stroke:black;"/>
            </g>
            <g id="port-sunspear">
                <path d="M1337.11,2613.88C1369.42,2613.88 1395.61,2640.08 1395.61,2672.39C1395.61,2704.7 1369.42,2730.9 1337.11,2730.9C1304.79,2730.9 1278.6,2704.7 1278.6,2672.39C1278.6,2640.08 1304.79,2613.88 1337.11,2613.88Z" style="fill:none;stroke-width:1.33px;stroke:black;"/>
            </g>
            <g id="port-storms-end">
                <path d="M1173.33,2231.5C1205.64,2231.5 1231.83,2257.69 1231.83,2290.01C1231.83,2322.32 1205.64,2348.51 1173.33,2348.51C1141.02,2348.51 1114.82,2322.32 1114.82,2290.01C1114.82,2257.69 1141.02,2231.5 1173.33,2231.5Z" style="fill:none;stroke-width:1.33px;stroke:black;"/>
            </g>
            <g id="port-lannisport">
                <path d="M287.946,1696.83C320.258,1696.83 346.452,1723.03 346.452,1755.34C346.452,1787.65 320.258,1813.85 287.946,1813.85C255.634,1813.85 229.439,1787.65 229.439,1755.34C229.439,1723.03 255.634,1696.83 287.946,1696.83Z" style="fill:none;stroke-width:1.33px;stroke:black;"/>
            </g>
            <g id="port-oldtown">
                <path d="M198.074,2369.99C230.386,2369.99 256.58,2396.19 256.58,2428.5C256.58,2460.81 230.386,2487.01 198.074,2487.01C165.761,2487.01 139.567,2460.81 139.567,2428.5C139.567,2396.19 165.761,2369.99 198.074,2369.99Z" style="fill:none;stroke-width:1.33px;stroke:black;"/>
            </g>
            <g id="port-pyke">
                <path d="M355.553,1324.89C387.865,1324.89 414.059,1351.09 414.059,1383.4C414.059,1415.71 387.865,1441.91 355.553,1441.91C323.24,1441.91 297.046,1415.71 297.046,1383.4C297.046,1351.09 323.24,1324.89 355.553,1324.89Z" style="fill:none;stroke-width:1.33px;stroke:black;"/>
            </g>
            <path id="sunspear" d="M959.105,2584.41C958.808,2611.42 956.497,2635.25 940.094,2636.86C961.162,2656.61 989.202,2668.54 1031.03,2665C1044.27,2662.16 1058.93,2663.43 1076.7,2673.75C1102.31,2682.13 1131.81,2680.5 1163.96,2672.01C1176.66,2686.31 1196.45,2697.53 1231.87,2702C1239.23,2694.16 1246.67,2692.3 1254.19,2696.43C1248.84,2681.24 1256.99,2665.67 1281.46,2649.65C1289.98,2657.22 1298.91,2650.02 1308.25,2628.05C1310.82,2617.07 1316.96,2606.62 1326.65,2596.71C1313.1,2606.36 1303.09,2608.29 1298.25,2598.93C1281.61,2587.63 1271.07,2574.05 1266.63,2558.18L1244.66,2567.2C1239.58,2582.41 1227.99,2589.29 1213.43,2592.37C1201.67,2609.18 1186.27,2616.09 1167.24,2613.11C1159.2,2622.29 1151.29,2626 1143.65,2617.68C1120.7,2617.38 1102.05,2608.37 1084.77,2596.57C1059.54,2617.36 1035.39,2617.91 1012.81,2588.91C994.868,2592.81 976.968,2591.31 959.105,2584.41Z" style="fill:none;stroke-width:1px;stroke:black;"/>
            <path id="yronwood" d="M766.17,2559.66C747.669,2552.32 728.804,2549.96 709.502,2553.61C694.83,2566.15 681.552,2566.22 668.906,2560.62L677.791,2572.82C665.684,2578.89 655.403,2589.57 646.949,2604.85L651.283,2625.6C633.081,2704.08 698.66,2654.94 729.256,2673.7C735.988,2689.56 747.042,2694.48 764.41,2683.41L777.629,2672.64C787.174,2684.5 803.617,2682.77 824.779,2671.75C831.658,2672.41 842.969,2677.89 858.713,2688.17C886.193,2673.88 920.656,2642.53 953.865,2631.08C959.496,2618.22 955.637,2597.36 958.328,2584.61C951.755,2580.81 947.268,2575.94 944.869,2570.02C935.628,2579.73 925.433,2583.86 913.139,2575.71C901.053,2576.98 891.834,2575.46 885.48,2571.13C863.562,2577.51 849.065,2573.08 837.941,2563.73C828.911,2570.7 819.309,2573.57 808.451,2567.41C802.228,2569.83 793.91,2569.34 783.496,2565.93C771.795,2575.38 766.02,2573.29 766.17,2559.66Z" style="fill:none;stroke-width:1px;stroke:black;"/>
            <path id="starfall" d="M525.957,2635.94C517.571,2665.15 512.114,2671.01 507.074,2673.54C503.589,2688.32 498.283,2701.35 491.154,2712.66C503.346,2721.77 504.722,2733.58 495.281,2748.11C491.712,2763.21 492.222,2777.57 495.521,2791.43L531.564,2815.25C544.241,2799.19 556.561,2801.05 568.719,2811.05C575.455,2806.37 582.58,2802.97 592.434,2808.57C621.08,2813.76 650.829,2801.09 681.682,2770.54C688.279,2781.24 698.594,2786.91 710.6,2790.3L721.486,2798.31C721.711,2790.52 740.524,2788.23 767.785,2788.43C773.562,2791.86 782.368,2791.44 794.203,2787.17L796.924,2780.36L790.41,2767.75C749.672,2742.53 769.949,2725.78 768.045,2701.47C767.044,2688.7 767.273,2685.83 763.602,2684.18C750.943,2693.42 739.607,2690.2 729.594,2674.54C704.63,2655.26 629.467,2703.01 651.303,2627.7C610.639,2622.78 569.006,2624.5 525.957,2635.94Z" style="fill:none;stroke-width:1px;stroke:black;"/>
            <path id="princes-pass" d="M505.15,2454.18C496.421,2470.49 494.462,2487.7 497.135,2505.54C514.816,2517.74 516.772,2532.93 552.32,2539.9C550.17,2558.34 551.617,2568.72 563.779,2582.94C562.641,2598.24 554.386,2604.86 542.896,2607.52C537.433,2618.02 532.206,2624.06 527.217,2625.65L525.234,2636.64C567.342,2626.94 609.553,2622.1 651.992,2627.98L646.918,2604.49C653.722,2588.18 664.79,2578.98 677.797,2573L669.521,2562.13C673.705,2556.36 678.506,2541.59 683.924,2517.83C689.23,2507.54 694.661,2498.9 700.215,2491.89C727.171,2471.61 694.668,2447.08 704.047,2400.9C684.764,2373.64 647.18,2377.31 594.434,2406.59C571.786,2431.13 542.973,2448.16 505.15,2454.18Z" style="fill:none;stroke-width:1px;stroke:black;"/>
            <path id="three-towers" d="M307.578,2569.53C312.773,2594.47 299.342,2620.16 258.687,2646.93L297.174,2705.28C304.994,2706.47 313.254,2708.78 322.48,2713.53C322.685,2724.25 330.889,2727.56 330.125,2747.36L342.824,2744.5C353.588,2732.68 364.634,2732.23 375.963,2743.13L383.018,2736.34C389.307,2721.19 402.338,2720.68 418.432,2726.82C432.538,2710.14 447.1,2694.32 469.545,2693.26L476.709,2680.89L499.332,2670.14L498.461,2665.29C508.291,2652.29 514.122,2637.09 517.215,2620.38C524.564,2617.01 530.087,2609.88 533.783,2598.99C547.7,2596.35 553.544,2591.99 551.314,2583.92C542.046,2575.84 538.96,2562.62 542.059,2544.27L547.502,2537.68C508.326,2527.61 517.989,2519.2 498.332,2507.56C495.047,2491.75 495.935,2474.41 502.924,2454.84C472.278,2454.73 444.236,2457.13 421.34,2464.48C411.88,2482.59 395.117,2494.43 373.355,2501.99C376.004,2536.65 357.355,2560.79 307.578,2569.53Z" style="fill:none;stroke-width:1px;stroke:black;"/>
            <path id="storms-end" d="M1159.38,2121.5C1144.31,2120.03 1133.48,2129.86 1126.89,2150.99C1106.7,2168.53 1085.56,2171.94 1064.3,2173.34C1046.09,2182.81 1033.53,2193.43 1023.53,2204.57C1016.67,2218.35 1005.76,2229.09 990.803,2236.78L962.756,2281.97C984.764,2302.64 992.126,2332.35 978.084,2375.29C998.204,2368.29 1029.11,2380.53 1017.7,2401.58C1020.64,2409.27 1025.08,2413.09 1031.03,2413.06C1036.09,2410.67 1040.64,2413.54 1048.43,2416.67C1063.59,2404.01 1082.32,2405.98 1103.51,2417.96C1118.36,2402.11 1129.3,2403.02 1136.35,2420.68L1149.47,2424.02C1168.63,2422.8 1178.53,2426.97 1168.1,2443.03L1182.93,2445.99C1190.76,2441.02 1202.29,2438.7 1215.51,2437.58L1219.21,2424.37C1206.71,2407.33 1207.16,2396.02 1220.56,2390.41C1228.13,2364.93 1238.64,2349.85 1255.62,2357.68L1270.45,2350.89C1272.37,2336.17 1290.65,2324.73 1313.11,2311.18C1299.05,2310.35 1292.61,2304.99 1289.63,2297.57C1278.84,2315.13 1270.08,2319.53 1263.35,2310.77C1254.78,2325.62 1245.72,2330.29 1235.56,2312.6L1127.19,2286.69C1086.52,2295.86 1077.1,2287.54 1098.94,2261.73C1074.86,2254.24 1074.03,2246.47 1096.46,2238.42C1105.11,2227.14 1115.14,2224.51 1126.56,2230.55L1136.44,2228.18C1135.53,2221.04 1139.48,2216.55 1148.27,2214.71C1154.55,2233.82 1161.23,2234.22 1168.3,2215.93L1176.56,2201.49L1174.69,2178.05L1186.19,2171.5C1179.6,2167.12 1177.66,2160.61 1180.37,2151.96C1168.04,2143.21 1161.04,2133.06 1159.38,2121.5Z" style="fill:none;stroke-width:1px;stroke:black;"/>
            <path id="the-boneway" d="M705.24,2400.35C698.094,2415.56 703.19,2437.59 710.035,2460.6C714.168,2476.48 710.866,2487.55 700.129,2493.81L683.229,2518.86C681.331,2535.98 676.926,2549.43 671.381,2561.2C678.812,2552.44 681.353,2574.75 709.035,2553.66C727.316,2550.91 746.438,2554.04 765.941,2559.85C775.357,2545.77 784.605,2543.3 807.797,2547.98C811.572,2535.78 820.368,2527.8 827.922,2519.82C822.496,2503.5 830.693,2495.7 845.082,2491.78C835.482,2483.41 839.475,2476.9 857.061,2472.24C860.125,2466.94 864.036,2462.23 869.057,2460.36L872.148,2438.73L863.113,2420.85L897.195,2404.78L917.947,2417.13C932.004,2405.2 944.881,2399.76 956.344,2416.91L970.543,2409.08C969.033,2398.2 972.483,2390.66 978.187,2384.64C976.14,2374.42 979.61,2358.32 986.854,2338.19C987.165,2321.81 978.204,2302.7 962.896,2281.75C920.917,2273.94 889.811,2273.45 882.627,2289.04C848.204,2308.57 817.177,2330.33 787.695,2353.11C755.445,2354.65 735.982,2362.22 729.307,2375.81C715.928,2367.9 707.906,2376.08 705.24,2400.35Z" style="fill:none;stroke-width:1px;stroke:black;"/>
            <path id="dornish-marches" d="M430.664,2378.02C440.031,2401.61 420.539,2423.46 419.906,2465.18C428.643,2457.9 464.476,2455.7 505.934,2454.55C547.52,2445.13 577.11,2429.66 592.221,2406.9C645.082,2378.5 684.271,2373 703.479,2400.98C708.156,2376.86 716.387,2368.84 728.174,2376.91C736.99,2360.89 757.504,2354 786.023,2353.35L807.889,2338.13C789.919,2339.88 775.025,2336.74 766.9,2322.82C754.788,2303.28 734.819,2295.38 709.475,2295.44C675.509,2271.8 639.616,2259.74 600.906,2264.6C591.807,2286.42 569.704,2294.42 538.705,2292.96C521.443,2297.82 507.934,2306.64 500.18,2322.59C478.247,2325.45 461.721,2336.76 450.602,2356.53C440.542,2360.46 434.655,2368.35 430.664,2378.02Z" style="fill:none;stroke-width:1px;stroke:black;"/>
            <path id="oldtown" d="M308.125,2352.86L296.758,2360.9C296.106,2367.42 292.07,2372.69 284.65,2376.69C276.172,2390.96 281.85,2388.72 271.58,2406.09C276.092,2418.08 272.971,2428.07 262.215,2436.08C248.411,2445.23 238.038,2445.45 229.225,2441.63L193.051,2489.15C201.269,2501.89 195.371,2511.52 183.055,2519.73C195.158,2545.85 217.437,2561.85 201.826,2592.95L230.336,2602.71C262.988,2577.62 292.384,2564.29 306.242,2568.94C350.624,2565.88 370.852,2544.23 372.369,2502.25C393.6,2494.97 413.426,2483.81 419.777,2465.71C418.016,2416.42 442.707,2414.37 429.645,2378.05C422.521,2374.89 415.03,2375.88 407.17,2381.02C398.277,2377.3 389.126,2376.47 379.715,2378.54C379.528,2372.06 375.657,2366.07 363.684,2361.12L349.725,2368.3C328.342,2374.1 314.6,2371.83 308.498,2361.5L308.125,2352.86Z" style="fill:none;stroke-width:1px;stroke:black;"/>
            <path id="kingswood" d="M916.637,2115.58C915.678,2164.51 895.512,2192.67 856.14,2200.04L846.778,2247.01L884.192,2288.55C898.064,2270.74 928.732,2274.04 961.799,2280.35C1000.41,2228.96 1038.61,2177 1103.61,2162.04C1117.09,2164.18 1129.19,2151.64 1139.92,2124.44C1160.69,2114.96 1176.9,2114.27 1188.56,2122.34L1217.53,2119.38C1214.51,2108.06 1220.05,2102.23 1234.14,2101.87C1220.82,2096.12 1217.28,2089.18 1235.26,2079.58C1224.31,2063.09 1228.02,2054.03 1246.4,2052.42L1236.86,2046.06C1222.54,2057.54 1211.88,2054.81 1204.91,2037.86C1202.63,2052.03 1192.67,2056.68 1175.03,2051.79C1181.81,2038.51 1177.79,2022.67 1168.87,2005.66L1196.99,2003.34C1191.9,1975.03 1223.62,1944.96 1237.86,1906.47C1225.35,1891.05 1216.7,1877.43 1207.98,1863.79L1208.63,1886.83C1219.98,1900.85 1223.93,1914.96 1211.6,1929.29C1200.6,1948.94 1186.61,1961.48 1169.64,1966.9C1166.74,1979.05 1159.21,1985.43 1147.05,1986.04C1130.2,2003.44 1119.91,2008.77 1112.6,2008.61C1109.8,2024.66 1101.85,2031.73 1089.61,2031.36C1057.27,2066.21 1017.44,2096.31 964.945,2118.36C945.634,2122.9 930.245,2120.76 916.637,2115.58Z" style="fill:none;stroke-width:1px;stroke:black;"/>
            <path id="kings-landing" d="M1063.93,1872.91L1036.81,1879.53L973.385,1878.45C930.357,1861.14 895.138,1872.79 867.729,1913.39C865.959,1974.95 851.375,2018.97 868.814,2023.44C862.886,2069.32 867.405,2097.02 887.195,2098.15C900.062,2102.25 909.33,2108.57 914.999,2117.12L962.937,2122.43C1004.25,2095.49 1046.4,2065.95 1090.36,2030.68L1111.64,2005.09L1104.14,1977.3C1078.34,1988.78 1052.94,1995.78 1028.13,1996.24C1001.58,2012.72 981.448,2017.87 975.416,1998.1C956.576,2011.31 954.52,2005.16 969.249,1979.64C947.773,1960.93 954.395,1949.6 989.117,1945.65C1000.51,1932.94 1015.27,1926.39 1033.38,1926.01L1028.59,1942.44L1043.59,1931.02C1041.18,1908.08 1052.33,1897.02 1069.64,1891.34C1063.56,1885.61 1061.66,1879.46 1063.93,1872.91Z" style="fill:none;stroke-width:1px;stroke:black;"/>
            <path id="blackwater" d="M485.718,2114.25C463.215,2099.21 459.574,2081.43 468.838,2061.8C456.458,2033.98 457.529,2015.63 472.051,2006.76L463.869,1958.6C472.439,1948.94 483.699,1947.42 497.648,1954.03C513.985,1954.78 529.964,1942.17 545.585,1916.2C559.023,1927.74 570.527,1921.45 581.153,1907.06C595.718,1912.65 608.848,1916.44 621.327,1919.39C641.105,1910.46 654.508,1895.1 661.536,1873.3C671.849,1860.5 689.309,1849.62 722.492,1842.99L729.799,1823.63C761.134,1818.93 792.16,1822.35 822.877,1833.91C840.948,1842.19 846.873,1852.3 840.653,1864.22C843.236,1885.07 852.288,1903.11 867.809,1918.34L862.994,1952.79C878.247,1983.98 846.673,1991.81 866.632,2025.13C839.974,2008.84 818.969,2017.56 805.2,2046.84C761.737,2059.35 744.557,2068 749.346,2096.76C717.558,2089.43 702.036,2101.19 687.952,2116.83L660.322,2113.67C636.226,2125.8 610.985,2136.11 583.229,2131.64C565.954,2122.29 549.6,2114.67 534.166,2115.5C520.041,2123.2 503.892,2122.78 485.718,2114.25Z" style="fill:none;stroke-width:1px;stroke:black;"/>
            <path id="searoad-marches" d="M291.598,1897.87C297.427,1912.7 292.404,1928.6 276.528,1945.58C283.653,1959.11 281.521,1966.57 270.132,1967.96L250.247,2052.42L230.893,2063.61C237.634,2068.15 237.945,2074.47 231.825,2082.56C236.542,2092.07 235.856,2098.9 229.768,2103.06C247.791,2113.55 253.431,2127.81 231.825,2150.35C259.304,2155.08 288.432,2152.28 319.971,2138.47C329.032,2128.47 339.116,2123.05 351.447,2127.74C364.351,2128.27 378.029,2137.54 392.059,2150.78C417.364,2159.43 441.009,2171.5 463.518,2185.92C460.893,2163.19 463.017,2141.65 475.585,2122.7L487.687,2116.55C467.312,2104.02 460.76,2085.62 468.031,2061.32C459.88,2043.76 458.136,2026.41 470.486,2009.52L464.778,1959.79L471.171,1891.34L461.39,1857.54C435.906,1890.99 425.945,1877.53 402.848,1896.8C391.956,1891.98 377.237,1893.81 358.692,1902.28L322.439,1902.74C310.057,1895.61 299.776,1893.99 291.598,1897.87Z" style="fill:none;stroke-width:1px;stroke:black;"/>
            <path id="stoney-sept" d="M472.536,1850.23C454.414,1855.63 462.094,1871.65 471.13,1891.75C463.848,1910.18 461.482,1935.96 464.314,1961.8C471.929,1945.62 482.044,1947.07 493.296,1956.55C507.082,1958.19 521.576,1940.13 543.434,1917.56C552.467,1924.99 568.381,1922.92 580.359,1908.65L617.562,1920.26C639.515,1913.83 653.648,1897.38 662.512,1873.88C677.881,1856.29 697.433,1846.77 721.166,1845.32L727.294,1825.28C708.588,1808.32 713.165,1785.16 725.695,1762.75C684.982,1715.92 656.84,1694.58 689.687,1669.34L675.549,1650.4C663.261,1657.27 650.563,1659.64 637.676,1659.96C627.41,1696.38 626.928,1662.53 612.997,1706.3C569.117,1731.31 538.504,1739.82 527.278,1724.18L511.979,1746.56C479.38,1790.32 437.193,1764.88 465.979,1792.39C458.673,1802.06 462.545,1810.52 468.015,1818.82C464.584,1832.35 466.091,1842.81 472.536,1850.23Z" style="fill:none;stroke-width:1px;stroke:black;"/>
            <path id="lannisport" d="M489.307,1594.36L468.262,1592.01C456.334,1604.84 445.544,1608.03 435.89,1601.58L420.15,1604.3C410.302,1614.68 397.341,1609.21 382.965,1596.53L353.525,1605.23L347.624,1620.97C373.882,1634.67 381.067,1652.55 360.377,1676.56C361.777,1696.15 353.836,1701.82 341.65,1701.17L325.437,1765.97C319.183,1808 304.586,1824.8 281.648,1816.36C271.925,1830.35 262.193,1836.27 252.452,1834.12C243.535,1855.51 230.837,1867.81 209.822,1860.13C216.359,1876.77 210.041,1891.89 190.869,1905.5L223.15,1890.62C235.204,1874.91 251.698,1874.47 269.114,1877.21C287.98,1863.39 292.867,1874.08 291.4,1895.89C303.217,1894.06 313.189,1896.79 321.314,1904.08C337.329,1900.86 349.306,1901.65 358.52,1905.18C372.733,1894.77 387.12,1892.9 401.89,1899.67C413.779,1890.41 425.155,1883.05 435.403,1879.87L460.257,1858.01L472.762,1848.22C464.66,1846.35 463.29,1837.32 468.653,1821.14C460.903,1804.22 460.726,1795.27 468.122,1794.28C456.516,1782.28 449.106,1771.82 471.072,1772.13C482.108,1771.58 491.311,1762.25 511.226,1746.59C520.271,1748.67 525.563,1740.08 527.101,1720.84C529.552,1690.18 500.961,1702.71 505.179,1687.28L507.062,1661.91C536.268,1643.9 500.422,1635.07 489.307,1594.36Z" style="fill:none;stroke-width:1px;stroke:black;"/>
            <path id="seagard" d="M460.747,1281.01L533.502,1266.15L566.577,1268.89L565.437,1278.63L570.898,1295.48L577.786,1316.01L591.734,1322.65L593.333,1346.84L609.088,1360.96C611.196,1383.42 619.334,1393.46 633.505,1391.09C642.809,1425.32 660.075,1448.42 688.979,1455.24C688.703,1463.68 690.145,1471.58 703.611,1475.75C701.77,1491.98 709.97,1499.57 725.041,1501.26L731.434,1518.56C718.007,1529.18 699.607,1523.31 679.617,1512.16C668.411,1501.41 649.841,1492.31 626.234,1484.34C623.913,1447.09 609.317,1430.67 582.445,1435.07C570.48,1424.63 559.132,1424.25 548.4,1433.93C545.129,1446.75 532.947,1450.87 516.713,1451.03L501.643,1462.61L488.26,1461.73L478.286,1434.04C498.525,1431.33 518.893,1424.76 539.887,1399.55C559.439,1385.38 551.295,1372.62 530.562,1360.5C522.108,1342.42 508.922,1316.83 485.538,1290.89C471.166,1295.09 463.621,1290.92 460.747,1281.01Z" style="fill:none;stroke-width:1px;stroke:black;"/>
            <path id="the-findgers" d="M1112.15,1252.59C1142.81,1245.69 1145.93,1232.38 1158.35,1236.58L1167.91,1222.42C1180.66,1218.65 1187.81,1211.7 1193.57,1204.62L1189.81,1220.58C1183.37,1221.54 1179.18,1223.97 1177.25,1227.89C1176.56,1239.5 1170.72,1245.73 1159.72,1246.59C1130.6,1255.15 1122.15,1266.24 1134.37,1279.88C1148.99,1293.18 1161.31,1289.98 1171.35,1270.29C1194.53,1253.08 1215.99,1238.36 1234.07,1228.55C1221.43,1236.62 1214.73,1243.42 1221.1,1247.41C1201.48,1257.91 1184.25,1271.01 1175.42,1281.99L1207.11,1280.89C1216.87,1262.01 1223.94,1259.79 1235.35,1261.82L1250.86,1243.82C1247.07,1258.36 1324.54,1198.87 1247.68,1255.65C1248.22,1261.45 1246.17,1265.81 1241.52,1268.74C1233.44,1268.84 1228.88,1267.76 1221.42,1272.06C1217.4,1286.38 1206.38,1292.84 1190.58,1293.93C1128.41,1299.98 1114.38,1313.47 1095.02,1371.8C1068.51,1408.09 1040.79,1421.4 1011.86,1411.74L986.114,1423.83C939.71,1401.7 929.819,1427.83 889.799,1414.48C872.48,1408.71 860.91,1386.4 855.088,1347.55C876.17,1324.82 867.325,1304.62 844.878,1285.58L844.674,1285.6L844.859,1285.46L844.83,1285.28L845.152,1285.23C870.155,1295.78 881.262,1291.16 872.059,1264.39L887.989,1262.33C910.842,1279.24 921.182,1277.41 919.007,1256.85L924.242,1245.47L934.71,1240.94C947.391,1257.79 958.973,1256.66 969.804,1243.22C985.809,1245.76 999.593,1237.92 1010.13,1214.93L1021.06,1216.51C1028.45,1223.14 1033.93,1223.56 1035.19,1210.32L1060.51,1200.98C1042.38,1212.39 1036.14,1222.41 1047.28,1230.38C1047.54,1239.56 1060.59,1236.77 1079.46,1228.55C1087.53,1234.15 1094.85,1236.51 1096.97,1216.24L1105.8,1222.62C1127.46,1222.27 1145.2,1214.71 1158.22,1198.45L1152.28,1190.47C1159.2,1191.86 1165.19,1191.44 1169.14,1187.04C1172.68,1189.28 1180.73,1185.24 1190.84,1178.35C1197.06,1179.37 1202.61,1177.4 1207.85,1174.07L1202.98,1181.51L1165.5,1199.57C1167.2,1213.25 1150.68,1223.31 1121.68,1230.87L1106.82,1243.22C1096.25,1250.74 1100.77,1252.88 1112.15,1252.59Z" style="fill:none;stroke-width:1px;stroke:black;"/>
            <path id="moat-cailin" d="M619.72,1059.63L677.952,1046.47L682.035,1038.77C707.278,1021.17 732.799,1019.17 758.509,1027.84C770.06,1027.21 776.454,1022.93 777.693,1015.02C794.791,1012.89 808.366,1004.57 820.339,993.454L828.374,1042.57C810.609,1053.31 801.619,1066.25 811.933,1084.02C801.133,1088.07 797.66,1095.65 801.513,1106.77C786.13,1101.38 777.906,1111.22 772.937,1127.99C777.772,1142.81 778.174,1155.07 768.827,1161.7C757.662,1158.23 751.958,1164.62 751.714,1180.87L741.122,1204.29C755.386,1225.96 731.003,1207.87 719.9,1225.65C713.432,1244.7 712.72,1260.44 726.736,1260.37L733.759,1280.4C735.461,1287.1 739.514,1289.33 745.919,1287.08C744.66,1295.7 737.518,1307.01 724.493,1321C707.194,1315.73 694.858,1317.09 687.486,1325.07C660.581,1331.7 658.724,1316.69 634.761,1319.3C624.23,1318.06 619.501,1324.37 620.574,1338.24C617.939,1348.76 611.169,1349.64 609.283,1359.81C599.642,1364.63 594.579,1361.28 594.095,1349.76C584.747,1347.92 585.789,1337.54 591.554,1323.27L577.394,1316.93C583.102,1313.08 582.93,1306.68 576.88,1297.74C586.22,1294.58 588.61,1283.43 587.841,1268.65C581.104,1263.13 584.199,1257.45 588.699,1251.75C570.187,1199.47 575.615,1155.8 604.982,1120.73C613.757,1112.39 612.245,1101.11 609.263,1089.42C609.613,1079.77 613.099,1069.84 619.72,1059.63Z" style="fill:none;stroke-width:1px;stroke:black;"/>
            <path id="greywater-watch" d="M420.429,1086.01L424.355,1149.4C416.199,1166.07 414.886,1182.88 420.415,1199.82C417.54,1214.05 410.158,1224.42 402.132,1234.25C405.113,1239.75 412.926,1241.85 421.429,1243.47L422.986,1250.32C432.697,1251.75 445.941,1262.08 462.72,1281.32C488.102,1260.4 512.548,1258.15 536.353,1268.66L568.208,1269.32L564.482,1278.21C569.631,1275.25 571.344,1281.12 569.62,1295.81L577.3,1299.4C584.471,1293.99 587.834,1284.01 587.39,1269.48C582.111,1267.08 582.682,1261.5 589.103,1252.72C571.01,1189.21 579.717,1147.82 606.759,1121.57C613.369,1112.9 613.293,1102.51 608.642,1090.94C608.523,1082.26 612.291,1072.57 618.919,1059.82L564.982,1063.92C546.174,1074.23 535.56,1075.77 533.14,1068.54C515.08,1080.04 497.68,1084.79 481.245,1079.67C471.66,1089.84 461.396,1093.95 450.456,1092C435.862,1103.09 426.872,1098.18 420.429,1086.01Z" style="fill:none;stroke-width:1px;stroke:black;"/>
            <path id="funts-finger" d="M311.077,1133.64C341.57,1129.23 359.601,1114.34 365.171,1088.97L381.771,1085.89C393.947,1095.18 406.03,1095.41 420.763,1086.57L424.191,1149.84C414.624,1161.84 415.201,1179.78 420.148,1202.37C415.342,1214.68 409.015,1225.19 401.165,1233.88C381.592,1228.25 362.819,1231.22 344.845,1242.78C338.792,1240.89 332.759,1242.89 326.745,1248.76C300.354,1244.08 280.123,1248.69 266.054,1262.6C257.711,1256.88 247.674,1254.55 233.911,1259.69C219.729,1254.6 205.922,1254.31 192.492,1258.83L170.81,1244.45C171.408,1240.23 168.081,1234.32 161.56,1224.74C174.965,1205.66 184.824,1190.22 187.738,1178.38C201.137,1170.61 210.956,1158.1 217.197,1140.86C219.994,1135.63 224.428,1135 230.499,1138.97C226.76,1144.94 228.692,1148.4 236.294,1149.35C238.861,1154.67 242.516,1158.43 247.257,1160.65L262.8,1153.27C267.594,1176.78 280.206,1180.03 302.638,1164.7C327.437,1156.62 330.25,1146.27 311.077,1133.64Z" style="fill:none;stroke-width:1px;stroke:black;"/>
            <path id="white-harbor" d="M775.007,1015.77C736.855,971.211 737.784,936.045 777.796,910.27C797.829,903.418 799.417,888.114 782.559,864.359C795.047,799.309 821.527,760.393 856.262,736.898C877.016,730.364 909.269,697.011 946.749,651.468C990.892,625.244 959.597,666.473 1016.36,675.044C1030.47,701.976 1051.43,711.231 1079.25,702.809L1079.75,721.593C1080.44,727.397 1083.19,729.051 1087.99,726.557C1087.69,741.229 1097.79,750.008 1118.28,752.893C1115.37,758.565 1113.7,764.561 1120.75,772.812C1101.5,772.207 1091.84,776.058 1091.77,784.367C1058.67,784.928 1043.05,774.16 1023.15,788.143C1023.27,802.155 1012.57,809.781 991.061,811.023C969.413,820.375 982.926,839.289 973.264,842.939C985.959,888.806 943.252,871.744 937.178,898.255C950.93,912.018 949.004,919.53 947.717,940.018L971.585,955.666C989.602,966.154 997.994,976.628 996.762,987.088C1015.58,996.521 1030.71,995.36 1044.15,989.382L1046.13,1016.91C1040.52,1021.37 1035.59,1026.76 1035.44,1038.65C1027.58,1048.34 1024.89,1056.55 1027.37,1063.29C1019.8,1064.57 1015.47,1069.4 1014.36,1077.77C989.745,1078.29 972.221,1082.64 970.298,1095.42L947.366,1079.28L860.949,1060C864.783,1028.15 855.872,1004.07 838.241,985.286C830.206,966.917 823.171,969.706 817.137,993.653C800.293,1009.29 786.872,1014.83 775.007,1015.77Z" style="fill:none;stroke-width:1px;stroke:black;"/>
            <path id="widows-watch" d="M1020.97,786.079C1024.95,799.401 1014.78,807.756 990.46,811.143C968.502,823.139 983.073,840.783 972.169,841.633C987.687,888.327 947.74,868.158 936.865,898.653C949.184,908.824 952.109,922.559 945.64,939.86C967.323,959.904 994.044,959.443 997.105,985.77C1010.97,995.453 1026.85,995.872 1044.11,989.954C1045.38,976.87 1047.64,964.307 1056.83,955.391C1059.88,952.331 1062.06,948.295 1063.38,943.284C1053.13,911.686 1058.51,901.56 1079.52,912.905C1087.29,914.514 1092.56,917.889 1095.33,923.032C1104.25,922.738 1112.13,925.616 1119.53,929.936C1131.95,924.158 1141.88,923.654 1146.31,934.749C1152.31,937.444 1157.88,938.228 1163.01,937.1C1171.72,946.973 1180.4,950.306 1189.04,947.098C1193.27,944.773 1202.4,944.783 1213.76,945.856C1197.4,944.893 1190.2,939.58 1192.15,929.917C1177.66,932.098 1170.54,928.716 1170.79,919.772L1155.04,920.032C1152.33,912.475 1147.94,902.788 1151.15,891.614C1156.43,889.756 1160.11,887.079 1160.29,882.598C1151.76,883.191 1147.27,876.2 1146.83,861.624L1155.54,861.979L1151.07,849.813L1138.56,850.202C1132.15,842.83 1127.51,832.99 1129.54,824.71L1121.43,822.637L1124.03,815.565C1109.24,819.639 1099.06,806.968 1090.96,786.686C1058.29,784.898 1045.97,774.327 1020.97,786.079Z" style="fill:none;stroke-width:1px;stroke:black;"/>
            <path id="karhold" d="M1104.4,394.96C1077.68,406.359 1053.8,399.929 1031.95,380.696C1020.61,365.439 1006.5,365.405 990.098,377.984C969.27,391.275 956.953,394.22 952.889,412.797C973.001,438.782 992.365,466.749 1010.46,498.073C1040.58,509.721 1056.46,519.922 1051.5,528.008C1055.54,550.74 1068.38,540.87 1078.59,564.412L1079.33,602.973C1082.47,608.572 1087.45,610.031 1094.27,607.352C1085.93,618.179 1086.75,631.848 1089.46,646.106C1094.97,662.526 1108.38,653.412 1118.04,663.943C1123.46,663.896 1128.87,664.502 1134.22,669.683C1135.83,676.325 1138.36,680.789 1141.81,683.076C1150.83,683.94 1156.12,680.669 1153.16,668.303C1152.63,659.743 1156.39,654.402 1163.1,651.262L1188.22,651.447L1199.34,624.289C1194.16,610.864 1196.63,602.188 1204.33,596.761C1202.83,591.007 1204.05,587.175 1207.99,585.265C1202.96,568.201 1202.4,551.226 1207.25,534.355C1219.44,541.423 1226.21,552.134 1225.09,568.168C1235.68,571.661 1245.2,575.156 1253.16,578.655L1252.61,592.845L1262.43,601L1268.48,585.569C1263.24,578.189 1263.47,569.836 1267.44,560.818C1276.9,558.055 1280.05,549.441 1280.34,538.169C1287.12,534.665 1293.18,523.866 1298.75,508.075L1293.94,497.579C1299.66,493.83 1302.22,487.119 1301.59,477.446C1293.12,475.985 1293.14,469.744 1297.02,461.331C1285.17,459.328 1282.78,448.978 1288.25,431.712C1280.72,426.066 1276.84,420.423 1276.59,414.781C1256.4,420.976 1239.82,424.083 1228.51,422.677C1221.45,440.574 1207.28,442.148 1189.88,436.302C1189.79,430.762 1189.88,427.779 1186.1,426.61C1175.37,427.653 1169.13,421.667 1164.93,412.485C1151.77,416.386 1142.75,412.584 1135.84,404.886C1119.35,409.953 1108.88,406.645 1104.4,394.96Z" style="fill:none;stroke-width:1px;stroke:black;"/>
            <path id="the-stony-shore" d="M322.94,663.822C317.718,676.443 306.198,676.218 291.815,670.154C274.516,665.222 273.607,666.703 289.087,674.597C295.61,678.276 299.205,684.145 299.185,691.603C299.174,696.077 297.861,701.124 295.098,706.611L283.803,709.079C297.474,716.202 297.162,730.807 275.238,743.796L261.823,739.106C254.428,741.578 248.887,739.821 245.199,733.837C237.78,734.248 231.276,730.734 225.686,723.296C220.305,723.184 215.104,722.17 210.297,719.174C204.293,721.275 197.998,726.57 191.413,735.057C183.813,753.508 184.491,768.028 179.232,768.046C179.639,778.261 175.661,784.708 167.297,787.386C170.88,798.103 170.193,805.068 165.236,808.281C167.052,815.082 166.045,820.821 163.755,826.077L154.868,831.248C155.669,835.962 154.653,839.911 151.82,843.096C158.949,855.103 159.192,865.582 152.548,874.531L161.928,882.182L171.728,878.146C173.532,888.249 170.87,897.291 163.742,905.271C156.43,922.132 158.376,922.626 169.579,906.753C179.613,896.797 190.116,891.455 201.186,891.684L211.566,875.38C211.603,868.537 213.318,862.7 218.724,859.076L227.289,858.83L228.611,889.264L219.057,906.308L219.292,948.589L232.867,966.102C242.858,968.39 245.235,978.432 243.802,995.562L239.52,1000.41L239.346,1009.14C260.059,1013.65 270.144,1021.6 264.697,1034.56C270.579,1041.52 278.124,1044.1 287.331,1042.29L290.872,1064.01L333.982,1062.69C337.939,1060.29 340.324,1056.05 339.251,1047.78L345.102,1048.52L349.397,1041.36L369.303,1042.35C368.668,1032.01 370.229,1019.69 378.203,1011.22C384.578,982.529 390.97,981.896 397.382,1009.32C396.88,1022.52 394.798,1030.69 391.137,1033.84L391.137,1040.68L401.997,1051.37L425.866,1052.26C426.608,1045.37 429.899,1038.86 438.801,1033.15C446.211,1015.45 456.687,1006.14 471.642,1009.12C486.185,1012.71 491.466,995.786 492.536,969.531C527.177,928.369 550.354,878.556 558.674,817.529C553.913,811.743 552.65,805.864 554.885,799.893C535.283,791.908 526.286,782.089 527.895,770.434L500.371,751.723C464.464,754.756 447.913,741.945 447.401,716.006C421.256,674.761 463.178,677.29 404.993,651.781C393.491,636.636 364.549,643.076 322.94,663.822Z" style="fill:none;stroke-width:1px;stroke:black;"/>
            <path id="castle-black" d="M759.652,218.863L1025.12,220.697C1026.86,227.915 1029.9,232.067 1034.24,233.154C1029.76,263.13 1034.74,279.428 1049.17,282.047C1050.22,287.783 1053.43,289.294 1058.81,286.582C1057.45,291.895 1058.06,297.635 1063.01,304.314C1062.61,309.093 1063.08,313.716 1069.68,317.254C1066.28,325.406 1069.25,335.459 1075.1,346.375C1073.42,361.586 1075.36,371.533 1078.93,379.086C1076.84,387.4 1077.37,394.065 1080.54,399.08C1040.47,409.734 1028.8,347.445 991.537,379.937C967.494,390.179 952.701,397.182 953.492,414.389C916.141,391.132 884.633,378.782 871.408,400.561C866.288,409.575 855.705,412.451 839.66,409.187C832.6,409.242 825.238,412.685 817.574,419.516C797.79,436.655 802.32,416.208 772.236,444.082C751.053,474.513 738.489,487.915 734.545,484.289C710.097,478.496 685.739,512.901 668.971,496.117C639.824,496.126 618.783,496.453 611.955,486.121L610.473,477.348C617.726,473.171 622.546,466.66 624.932,457.816C638.667,446.674 635.554,434.812 624.783,422.623C628.85,419.842 630.708,415.764 630.355,410.387C637.124,410.751 641.043,406.314 642.111,397.076C646.956,393.962 647.864,387.748 644.834,378.434C644.945,365.805 638.441,355.949 625.32,348.867C636.337,345.632 640.823,341.763 638.779,337.26C666.469,329.409 680.915,318.999 682.117,306.029C687.868,310.187 694.409,310.798 701.74,307.861C715.882,307.835 720.449,300.14 715.439,284.777C722.51,275.833 729.421,267.101 746.67,244.551C754.561,242.426 758.889,233.863 759.652,218.863Z" style="fill:none;stroke-width:1px;stroke:black;"/>
            <path id="winterfell" d="M611.537,487.287C603.582,493.494 596.423,497.682 594.838,487.734C583.835,511.27 574.552,508.853 566.051,494.639L555.684,499.822C548.579,520.908 537.392,522.265 522.121,503.895L511.551,512.652C499.607,524.691 490.368,518.457 483.836,493.951C465.746,491.039 466.789,481.061 461.289,464.24C461.642,482.206 467.613,496.402 474.396,496.914L476.359,516.908L474.508,529.256L430.189,550.359L371.689,530.365L346.883,519.129C342.535,517.249 339.926,511.03 338.107,502.838L334.295,494.191L305.396,471.478C294.918,487.165 279.76,486.096 264.299,480.455L260.838,487.119C284.067,490.063 296.908,497.012 305.027,505.781C321.502,517.273 326.525,528.88 320.096,540.603L313.652,552.119C320.835,560.669 325.597,580.043 328.703,606.824L311.783,609.193C311.123,623.736 300.175,628.944 280.682,628.557L298.195,637.203C309.567,634.523 318.039,643.495 323.611,664.119L371.225,643.867C384.987,641.203 397.443,642.064 407.027,650.68C432.861,661.263 441.815,673.957 439.221,688.094C438.249,696.019 441.934,705.926 447.736,716.732C447.221,734.578 456.073,747.375 478.615,752.795L500.59,751.535L527.879,771.289C525.443,783.902 536.996,792.571 554.906,799.447C551.546,807.331 552.656,813.34 558.238,817.477C550.75,874.482 528.887,925.219 492.648,969.686C491.259,997.295 488.498,1009.34 472.414,1010.62L465.119,1027.54L458.936,1047.66L486.463,1038.27C489.797,1043.69 494.734,1042.69 501.273,1035.29L514.621,1026.28L527.729,1026.28C533.316,1033.58 542.486,1036.79 555.238,1035.9C561.852,1038.06 565.777,1043.46 567.014,1052.08C601.806,1052.46 638.187,1046.63 675.885,1035.66L682.678,1040.25C714.836,1021.99 714.815,1017.31 758.857,1029.72C766.477,1027.28 776.084,1022.55 777.758,1017.5C769.558,1010.42 760.909,997.447 755.285,986.861C739.831,954.626 746.001,930.27 773.797,913.793C798.535,905.756 799.032,888.811 782.943,865.771C781.361,853.85 782.672,839.813 790.348,821.121C816.593,767.503 840.129,740.309 860.955,739.537C885.799,721.89 914.956,690.441 944.779,656.861C957.524,636.408 971.488,641.707 986.006,658.711C996.017,673.882 1005.91,677.744 1015.74,676.465C1031.21,696.181 1046.78,711.317 1062.82,704.383L1077.14,702.16L1094.6,705.012L1083.62,696.107L1081.4,683.26L1093.53,681.777C1081.94,680.825 1078.86,672.624 1084.29,657.174L1089.62,646.139L1088.88,619L1094.2,608.115C1087.87,610.455 1082.76,608.93 1078.87,603.541L1078.5,568.146C1080.13,560.683 1075.36,553.686 1064.17,547.154C1058.39,544.767 1054.07,538.589 1051.19,528.621C1058.69,520.372 1041.28,509.784 1012.56,498.133C987.197,457.038 966.485,427.159 953.648,416.289C918.665,392.857 887.155,377.525 872.383,401.221C862.992,410.228 851.643,412.406 838.338,407.754C821.618,418.309 805.741,427.524 795.76,427.359C768.692,435.686 755.16,473.347 736.52,483.506C717.498,476.447 694.111,508.21 670.857,496.836C645.132,498.247 623.658,496.376 611.537,487.287Z" style="fill:none;stroke-width:1px;stroke:black;"/>
            <path id="pike" d="M102.755,1337.39L407.715,1337.39C417.246,1407.51 408.535,1454.51 384.708,1482.37C393.062,1486.93 393.899,1494.91 387.218,1506.29L399.742,1514.45L399.742,1526.75L384.005,1536.99C368.617,1531.8 360.789,1534.55 360.52,1545.22C329.619,1529.74 360.241,1560.29 279.908,1579.25C273.105,1572.95 265.13,1570.29 254.577,1575.65C243.282,1585.08 235.296,1586.01 230.619,1578.43L101.786,1458.26L102.755,1337.39Z" style="fill:none;stroke-width:1px;stroke:black;"/>
            <path id="the-twins" d="M747.364,1288.89L724.965,1321.76L687.111,1323.82C675.912,1330.86 659.143,1319.43 635.294,1319.91C638.815,1324.9 637.832,1328.91 632.343,1331.94C633.663,1338.39 630.617,1347.12 623.208,1358.15C619.896,1366.23 620.645,1372.67 625.455,1377.47C641.143,1376.52 649.257,1384.2 649.796,1400.5C651.571,1420.89 668.34,1430.65 684.965,1441.69C697.33,1439.91 702.08,1447.69 703.215,1460.12C710.877,1464.31 717.549,1469.13 717.301,1478.37C730.405,1489.42 737.475,1499.06 738.512,1507.31C752.468,1475.76 767.103,1456.25 783.234,1463.23C789.798,1458 801.362,1455.34 817.926,1455.26C828.183,1442.15 838.794,1433.62 849.76,1429.66C854.833,1420.83 867.274,1421.29 883.064,1425.99L891.723,1414.88C869.412,1407.08 858.673,1382.98 855.854,1347.74C873.999,1320.84 869.472,1312.16 844.434,1286.14L798.38,1292.3C785.207,1308.37 772.671,1307.55 760.773,1289.84L747.364,1288.89Z" style="fill:none;stroke-width:1px;stroke:black;"/>
            <path id="riverrun" d="M626.82,1483.87C627.563,1509.28 623.119,1519.69 616.317,1523.28C610.21,1540.6 598.862,1547.07 582.273,1542.69C579.446,1555.04 570.933,1557.85 556.731,1551.14C555.212,1569.33 546.002,1580.56 529.101,1584.85C511.686,1600.89 497.2,1607.38 489.156,1592.82C490.599,1632.91 539.461,1634.46 507.635,1663.49L503.544,1688.78C511.578,1699.73 529.753,1697.85 522.497,1713.19L524.096,1725.41C543.591,1740.42 575.234,1729.67 612.398,1707.2C615.191,1675.38 636.399,1685.63 636.757,1662.02C657.902,1660.15 678.018,1645.61 697.429,1622.4C716.98,1639.06 735.992,1643.61 754.463,1636.06L760.4,1639.49C780.967,1625.76 791.717,1639.42 805.176,1649.48C815.738,1647.7 825.33,1645.38 828.132,1639.28C805.527,1625.79 818.342,1619.47 803.031,1587.5C769.4,1565.3 749.352,1541.11 733.645,1516.27C703.629,1535.16 677.231,1501.39 626.82,1483.87Z" style="fill:none;stroke-width:1px;stroke:black;"/>
            <path id="harrenhal" d="M864.587,1651.54C860.738,1682.24 866.58,1705.43 873.807,1727.54C889.924,1725.5 884.839,1761.84 875.203,1809.35C847.275,1841.06 843.361,1817.17 822.096,1835.4C785.51,1822.09 752.515,1813.69 727.424,1825.45C711.018,1812.21 710.742,1791.1 726.596,1762.13C682.777,1722.99 661.615,1689.56 690.301,1668.69L674.344,1649.69L697.65,1620.78C710.685,1638.47 729.468,1642.64 754,1633.29L762.508,1638.73C774.494,1628.96 787.281,1630.57 800.868,1643.54C804.91,1649.98 814.351,1649.15 829.193,1641.03C830.783,1655.2 845.211,1656.37 865.475,1651.64L864.587,1651.54Z" style="fill:none;stroke-width:1px;stroke:black;"/>
            <path id="crackclaw-point" d="M951.477,1687.47L864.525,1652.52C862.888,1676.9 866.149,1701.72 872.762,1726.85C888.01,1724.21 886.918,1754.76 874.645,1808.02C844.415,1843.18 835.348,1811.9 822.346,1834.34C841.438,1842.56 847.775,1852.98 841.357,1865.62C844.526,1886.73 853.39,1903.51 866.15,1917.31C903.012,1872.79 936.658,1860.69 967.09,1881C999.366,1875.21 1021.16,1874.62 1035.77,1877.59L1063.36,1831.05C1083.54,1819.18 1087.96,1810.16 1081.73,1798.52L1112.87,1773.73C1118.55,1763.55 1124.94,1763.72 1132.02,1774.24L1148.45,1773.4C1140.03,1756.85 1155,1751.76 1185.97,1754.49L1187.5,1738.96L1225.71,1737.22C1226.61,1727.36 1234.21,1718.25 1248.48,1709.88C1239.07,1704.49 1236.48,1698.36 1237.01,1691.91C1249.62,1692.5 1260.01,1684.65 1268.21,1668.37C1265.64,1662 1267.01,1653.04 1272.3,1641.51L1263.43,1642.02C1252.93,1660.04 1239.58,1671.17 1223.39,1675.42C1217.92,1689.83 1205.89,1693.9 1190.86,1693.26C1184.85,1705.17 1174.36,1712.02 1159.42,1713.83C1135.32,1746.7 1130.69,1728.51 1075.37,1715.57L1051.42,1720.52C1017.45,1742.4 984.135,1731.39 951.477,1687.47Z" style="fill:none;stroke-width:1px;stroke:black;"/>
            <path id="the-mountains-of-the-moon" d="M739.379,1506.45C746.236,1519.09 756.016,1529.88 767.125,1539.83C781.728,1549.76 778.883,1561.75 796.727,1573.72C814.182,1578.04 821.811,1596.77 824.973,1622.04L842.189,1641.12L876.258,1638.72L955.939,1679.31L980.762,1678.45C1003.24,1697.46 1032.74,1698.55 1069.27,1681.71L1077.26,1685.95C1084.54,1684.69 1093.39,1679.39 1103.81,1670.05C1107.01,1665.16 1103.3,1659.63 1092.69,1653.48C1078.34,1655.26 1068.93,1649.38 1064.44,1635.85L1030.6,1622.69C1027.71,1610.02 1019.04,1597.03 969.855,1581.77L975.65,1574.43L950.686,1556.83C958.31,1534.58 983.281,1531.5 1016.14,1537.14C1031.86,1537.48 1033.6,1534.17 1021.38,1527.2C994.637,1522.09 1005.57,1515.28 1021.89,1508.22L1055.98,1497.6C1063.43,1503.5 1071.46,1502.65 1080.06,1495.03C1087.76,1497.17 1091.77,1503.29 1094.09,1511.23L1109.15,1521.45C1145.17,1513.25 1149.1,1493.2 1203.14,1483.76C1212.72,1460.87 1205.33,1469.23 1209.15,1447.95L1244.08,1445.54C1261,1439.61 1269.4,1433.81 1273.94,1428.05C1262.65,1425.38 1263.49,1416.78 1269.84,1405.49L1283.35,1411.97C1291.53,1404.76 1296.22,1398.56 1305.74,1401.69L1309,1382.41C1298.54,1384.36 1293.13,1381.98 1292.77,1375.26C1288.15,1368.18 1293.03,1363.27 1299.26,1358.67L1285.1,1364.96C1285.14,1379.98 1280.24,1389.12 1270.37,1386.19C1252.84,1385.89 1253.17,1373.18 1256.04,1362.25L1239.14,1362.25C1236.66,1354.48 1242.65,1347.35 1257.11,1340.88C1265.67,1340 1269.26,1335.79 1267.88,1328.25C1276.55,1321.52 1284.64,1318 1292.48,1315.93L1290.08,1306.06L1297.95,1294.08C1281.1,1311.19 1266.06,1320.92 1254.97,1314.42C1254.72,1321.38 1247.88,1325.76 1234.43,1327.58C1226.07,1332.74 1214.55,1334.17 1199.88,1331.86C1188.12,1341.57 1176.87,1344.62 1166.72,1333.05C1159.71,1349.27 1153.08,1349.18 1146.5,1346.75C1147.35,1359.66 1126.6,1366.56 1096.01,1370.71C1067.79,1407.82 1040.24,1421.07 1013.37,1410.48L985.111,1421.1C926.09,1402.65 935.327,1426.34 890.125,1415.44L882.717,1425.68C860.17,1412.34 835.318,1437.68 817.047,1457.01C798.711,1454.81 788.283,1457.33 781.449,1462C759.962,1461.77 747.598,1479.93 739.379,1506.45Z" style="fill:none;stroke-width:1px;stroke:black;"/>
            <path id="the-eyrie" d="M1091.51,1510.28C1090.7,1502.72 1087.22,1497.87 1081.09,1495.73C1072.3,1503.61 1063.19,1503.68 1053.76,1495.95C1010.49,1511.26 989.002,1522.56 1015.44,1525.07C1033.15,1532.44 1031.73,1536.25 1011.17,1536.5C975.288,1532.19 954.991,1538.81 950.277,1556.37L975.441,1572.64L969.104,1581.85C1000.9,1588.99 1020.64,1601.93 1028.34,1620.7L1063.78,1635.43C1066.35,1648.23 1076.16,1654.62 1093.21,1654.58C1104.55,1659.64 1108.37,1664.94 1104.65,1670.48C1124.61,1677.58 1143.64,1665.65 1162.02,1640.71L1176.6,1618.97L1207.89,1614.84L1182.2,1609.88C1172.37,1600.83 1177.6,1589.03 1193.13,1575.34L1176.39,1564.39C1136.38,1561.48 1129.97,1554.56 1172.63,1541.81C1188.18,1535.62 1204.59,1534.24 1221.59,1536.15L1235.25,1554.76L1261.77,1529.48L1274.09,1550.89C1303.98,1543.34 1295.38,1526.45 1329.37,1518.89L1344.77,1495.62C1330.12,1499.15 1317.4,1497.78 1306.62,1491.51C1299.44,1496.69 1293.18,1496.01 1287.82,1489.46C1278.54,1497.55 1269.45,1496.87 1260.44,1492.2C1250.6,1508.02 1239.2,1510.94 1226.74,1505.03C1207.54,1517.1 1189.23,1520.75 1171.79,1515.99C1147.37,1526.61 1126.72,1528.04 1109.85,1520.27L1091.51,1510.28Z" style="fill:none;stroke-width:1px;stroke:black;"/>
            <path id="highgarden" d="M229.145,2153.28C253.349,2172.06 266.67,2191.38 264.085,2211.47L270.689,2221.03C295.685,2214.31 310.446,2220.32 314.973,2239.07C352.507,2241.99 367.345,2251.43 359.486,2267.38C408.157,2296.1 404.427,2311.93 348.296,2314.84L335.984,2323.56C364.492,2340.78 374.147,2353.25 364.947,2360.99C377.294,2366.99 382.458,2372.98 380.439,2378.96C391.644,2377.47 400.151,2376.73 405.96,2382.18L430.413,2374.2C451.147,2350.06 473.292,2332.34 496.848,2321.07L534.601,2292.73C544.447,2288.26 539.271,2275.79 519.072,2255.33L496.064,2254.65C492.739,2233.7 479.467,2209.19 464.13,2183.95C439.513,2169.29 415.221,2156.54 391.775,2148.78C378.101,2135.77 362.346,2126.67 342.012,2126.18L319.632,2138.52C292.041,2148.65 261.879,2153.57 229.145,2153.28Z" style="fill:none;stroke-width:1px;stroke:black;"/>
            <path id="the-reach" d="M496.989,2255.5L518.893,2258.22C530.177,2270.66 539.136,2280.18 538.038,2292.25C550.529,2291.01 565.143,2288.6 580.723,2285.66C588.88,2281.85 595.959,2275 601.96,2265.11C637.375,2260.2 673.195,2271.84 709.291,2294.8C734.417,2293.66 754.874,2303.01 770.663,2322.87C773.225,2335.94 786.511,2339.46 804.671,2338.62L882.085,2288.65C865.696,2275.82 852.979,2262.1 848.343,2246.44L856.794,2201.26C896.077,2191.29 918.451,2165.16 916.111,2115.41C907.962,2111.1 895.978,2103.14 875.557,2087.15C862.251,2079.99 862.416,2056.2 868.705,2024.85C844.253,2009.2 823.598,2017.57 805.541,2042.4C759.082,2059.54 742.788,2077.25 747.135,2095.36C720.294,2088.97 702.107,2097.91 687.854,2113.82L658.413,2111.78C631.656,2124.42 606.097,2130.13 581.739,2128.91C569.91,2119.37 554.732,2113.45 532.184,2115.47C520.422,2124.88 500.479,2124.8 474.939,2118.21C462.58,2151.26 458.405,2172.34 462.414,2181.45C476.18,2194.27 485.06,2220.75 496.989,2255.5Z" style="fill:none;stroke-width:1px;stroke:black;"/>
            <path id="salt-shore" d="M778.908,2672.56L764.338,2683.17C780.6,2720.21 741.243,2740.99 792.756,2767.58L797.568,2780.3C821.448,2765.24 845.219,2771.25 868.916,2791.67C880.195,2784.86 891.012,2781.74 901.367,2782.28L917.289,2743.28C942.361,2751.44 964.55,2760.36 980.398,2770.93C998.697,2761.42 1016.87,2754.88 1034.47,2762.64L1046.34,2749.92C1074.49,2767.61 1104.14,2775.1 1137.09,2760.14L1139.92,2767.69L1146.35,2754.98C1155.27,2762.5 1164.72,2766 1175.36,2760.64C1183.72,2739.66 1194.63,2731.38 1208.09,2735.81C1221.55,2736.47 1228.17,2722.19 1231.67,2701.1C1198.69,2701.48 1179.79,2688.97 1165.4,2672.33C1134.75,2677.81 1104.46,2681.78 1076.67,2675.3C1062.54,2664.71 1047.36,2660.51 1030.64,2665.65C985.191,2665.21 958.772,2653.95 938.436,2639.23L858.592,2686.99L825.027,2671.17C809.398,2682.24 793.952,2685.74 778.908,2672.56Z" style="fill:none;stroke-width:1px;stroke:black;"/>
            <path id="the-arbor" d="M174.645,2737L65.8665,2737L65.8665,2883.02L170.721,2883.02L226.109,2811.88C230.659,2813.93 237.036,2813.1 245.239,2809.39C253.817,2801.5 252.08,2795.21 248.869,2789.15C237.355,2789.84 228.789,2779.74 223.171,2758.86L205.202,2761.83C197.132,2756.21 197.147,2748.24 198.317,2739.93C187.589,2725.09 177.808,2714.86 174.645,2737Z" style="fill:none;stroke-width:1px;stroke:black;"/>
            <path id="dragonstone" d="M1322.54,1698.66L1465.52,1698.66L1465.52,1944.7L1354.45,1944.7L1242.02,1798.6C1223.14,1790.7 1232.5,1785.39 1254.71,1781.25L1264.46,1781.25L1322.54,1698.66Z" style="fill:none;stroke-width:1px;stroke:black;"/>
            <g id="port-winterfell">
                <path d="M408.425,461.079C440.737,461.079 466.932,487.274 466.932,519.586C466.932,551.898 440.737,578.092 408.425,578.092C376.113,578.092 349.919,551.898 349.919,519.586C349.919,487.274 376.113,461.079 408.425,461.079Z" style="fill:none;stroke-width:1.33px;stroke:black;"/>
            </g>
            <path id="bay-of-ice" d="M94.5602,1064.26C70.8503,1049.78 39.4678,1052.01 0.41276,1070.96L-1.80794,1.64193L197.983,0.837244C205.597,3.34941 187.274,47.7767 165.245,98.1918C157.933,127.627 176.349,131.966 206.458,124.898C201.378,165.151 219.058,177.432 259.5,161.739C277.016,158.441 288.008,163.323 292.477,176.385C285.472,192.951 294.297,204.733 318.952,211.731C344.45,241.594 381.298,265.46 427.549,284.355C463.237,266.861 494.086,246.939 514.292,221.679L531.115,182.853L616.624,171.913C621.487,185.994 606.331,200.882 588.316,215.885C618.782,221.169 622.202,236.699 621.758,253.693L654.618,243.651L704.613,254.777C703.85,269.777 738.546,244.137 730.654,246.262C713.405,268.812 722.51,275.833 715.439,284.777C720.449,300.14 715.882,307.835 701.74,307.861C694.409,310.798 687.868,310.187 682.117,306.029C680.915,318.999 666.469,329.409 638.779,337.26C640.823,341.763 636.337,345.632 625.32,348.867C638.441,355.949 644.945,365.805 644.834,378.434C647.864,387.748 646.956,393.962 642.111,397.076C641.043,406.314 637.124,410.751 630.355,410.387C630.708,415.764 628.85,419.842 624.783,422.623C635.554,434.812 638.667,446.674 624.932,457.816C622.546,466.66 617.726,473.171 610.473,477.348L611.955,486.121C612.969,487.655 614.296,488.955 615.917,490.054C614.345,489.217 612.883,488.297 611.537,487.287C603.582,493.494 596.423,497.682 594.838,487.734C583.835,511.27 574.552,508.853 566.051,494.639L555.684,499.822C548.579,520.908 537.392,522.265 522.121,503.895L511.551,512.652C499.607,524.691 490.368,518.457 483.836,493.951C465.746,491.039 466.789,481.061 461.289,464.24C461.642,482.206 467.613,496.402 474.396,496.914L476.359,516.908L474.508,529.256L465.223,533.677C466.34,529.164 466.932,524.444 466.932,519.586C466.932,487.274 440.737,461.079 408.425,461.079C376.113,461.079 349.919,487.274 349.919,519.586C349.919,519.894 349.921,520.201 349.926,520.507L346.883,519.129C342.535,517.249 339.926,511.03 338.107,502.838L334.295,494.191L305.396,471.478C294.918,487.165 279.76,486.096 264.299,480.455L260.838,487.119C284.067,490.063 296.908,497.012 305.027,505.781C321.502,517.273 326.525,528.88 320.096,540.603L313.652,552.119C320.835,560.669 325.597,580.043 328.703,606.824L311.783,609.193C311.123,623.736 300.175,628.944 280.682,628.557L298.195,637.203C309.465,634.547 317.886,643.334 323.46,663.564L322.94,663.822C317.718,676.443 306.198,676.218 291.815,670.154C274.516,665.222 273.607,666.703 289.087,674.597C295.61,678.276 299.205,684.145 299.185,691.603C299.174,696.077 297.861,701.124 295.098,706.611L283.803,709.079C297.474,716.202 297.162,730.807 275.238,743.796L261.823,739.106C254.428,741.578 248.887,739.821 245.199,733.837C237.78,734.248 231.276,730.734 225.686,723.296C220.305,723.184 215.104,722.17 210.297,719.174C204.293,721.275 197.998,726.57 191.413,735.057C183.813,753.508 184.491,768.028 179.232,768.046C179.639,778.261 175.661,784.708 167.297,787.386C170.88,798.103 170.193,805.068 165.236,808.281C167.052,815.082 166.045,820.821 163.755,826.077L154.868,831.248C155.669,835.962 154.653,839.911 151.82,843.096C158.949,855.103 159.192,865.582 152.548,874.531L161.928,882.182L171.728,878.146C173.532,888.249 170.87,897.291 163.742,905.271C156.43,922.132 158.376,922.626 169.579,906.753C179.613,896.797 190.116,891.455 201.186,891.684L211.566,875.38C211.603,868.537 213.318,862.7 218.724,859.076L227.289,858.83L228.611,889.264L219.057,906.308L219.292,948.589L232.867,966.102C242.858,968.39 245.235,978.432 243.802,995.562L239.52,1000.41L239.346,1009.14C260.059,1013.65 270.144,1021.6 264.697,1034.56C270.579,1041.52 278.124,1044.1 287.331,1042.29L290.872,1064.01L333.982,1062.69C337.939,1060.29 340.324,1056.05 339.251,1047.78L345.102,1048.52L349.397,1041.36L369.303,1042.35C368.668,1032.01 370.229,1019.69 378.203,1011.22C384.578,982.529 390.97,981.896 397.382,1009.32C396.88,1022.52 394.798,1030.69 391.137,1033.84L391.137,1040.68L401.997,1051.37L425.866,1052.26C426.608,1045.37 429.899,1038.86 438.801,1033.15C446.211,1015.45 456.687,1006.14 471.642,1009.12C486.185,1012.71 491.466,995.786 492.536,969.531C495.287,966.262 497.966,962.939 500.57,959.559C498.011,962.97 495.37,966.346 492.648,969.686C491.259,997.295 488.498,1009.34 472.414,1010.62L465.119,1027.54L458.936,1047.66L486.463,1038.27C489.797,1043.69 494.734,1042.69 501.273,1035.29L514.621,1026.28L527.729,1026.28C533.316,1033.58 542.486,1036.79 555.238,1035.9C561.852,1038.06 565.777,1043.46 567.014,1052.08C601.806,1052.46 638.187,1046.63 675.885,1035.66L681.626,1039.54L677.952,1046.47L619.72,1059.63C613.099,1069.84 609.613,1079.77 609.263,1089.42C610.154,1092.92 610.914,1096.37 611.307,1099.72C610.753,1096.88 609.853,1093.95 608.642,1090.94C608.523,1082.26 612.291,1072.57 618.919,1059.82L564.982,1063.92C546.174,1074.23 535.56,1075.77 533.14,1068.54C515.08,1080.04 497.68,1084.79 481.245,1079.67C471.66,1089.84 461.396,1093.95 450.456,1092C436.114,1102.9 427.184,1098.35 420.767,1086.64L420.763,1086.57L420.738,1086.59C420.634,1086.4 420.531,1086.2 420.429,1086.01L420.474,1086.74C405.873,1095.41 393.867,1095.12 381.771,1085.89L365.171,1088.97C359.601,1114.34 341.57,1129.23 311.077,1133.64C330.25,1146.27 327.437,1156.62 302.638,1164.7C297.709,1168.06 293.254,1170.54 289.236,1172.06L272.842,1172.06C268.11,1169.27 264.785,1163.01 262.8,1153.27C259.487,1159.05 241.716,1124.52 241.978,1108.09C239.62,1101.55 204.306,1100.68 197.796,1108.48C156.413,1143.73 119.797,1064.52 94.5602,1064.26Z" style="fill:none;stroke-width:1.33px;stroke:black;"/>
            <path id="ironmans-bay" d="M411.213,1401.48C409.503,1437.47 400.372,1464.06 384.708,1482.37C393.062,1486.93 393.899,1494.91 387.218,1506.29L399.742,1514.45L399.742,1526.75L384.005,1536.99C368.617,1531.8 360.789,1534.55 360.52,1545.22C329.619,1529.74 360.241,1560.29 279.908,1579.25C273.105,1572.95 265.13,1570.29 254.577,1575.65C243.282,1585.08 235.296,1586.01 230.619,1578.43L101.786,1458.26L102.755,1337.39L319.407,1337.39C329.358,1329.56 341.91,1324.89 355.553,1324.89C369.196,1324.89 381.748,1329.56 391.698,1337.39L407.715,1337.39C408.937,1346.38 409.859,1354.99 410.487,1363.22C412.798,1369.51 414.059,1376.31 414.059,1383.4C414.059,1389.71 413.061,1395.78 411.213,1401.48ZM666.041,1501.94C661.045,1498.88 655.394,1495.97 649.162,1493.19C655.135,1496.06 660.738,1499.04 666.041,1501.94ZM256.838,1619.11C220.677,1643.52 178.389,1637.05 137.029,1696.71L103.543,1754.53C63.705,1685.14 41.7715,1646.13 64.0995,1550.92C58.4965,1530.09 76.2506,1404.91 76.2506,1404.91C83.9287,1387.75 61.7088,1274.57 81.9888,1260.9C91.1357,1254.73 97.4053,1242.83 99.5078,1231.23C112.841,1201.03 124.325,1199.5 134.97,1211C138.885,1218.38 139.562,1219.65 147.785,1233.4C154.95,1239.87 171.909,1237.8 170.81,1244.45L192.492,1258.83C205.922,1254.31 219.729,1254.6 233.911,1259.69C247.674,1254.55 257.711,1256.88 266.054,1262.6C280.123,1248.69 300.354,1244.08 326.745,1248.76C332.759,1242.89 338.792,1240.89 344.845,1242.78C362.819,1231.22 381.592,1228.25 401.165,1233.88C408.524,1225.73 409.22,1225.57 402.132,1234.25C405.113,1239.75 412.926,1241.85 421.429,1243.47L422.986,1250.32C432.594,1251.74 445.662,1261.87 462.19,1280.71L460.747,1281.01C463.621,1290.92 471.166,1295.09 485.538,1290.89C508.922,1316.83 522.108,1342.42 530.562,1360.5C551.295,1372.62 559.439,1385.38 539.887,1399.55C518.893,1424.76 498.525,1431.33 478.286,1434.04L488.26,1461.73L501.643,1462.61L516.713,1451.03C532.947,1450.87 545.129,1446.75 548.4,1433.93C559.132,1424.25 570.48,1424.63 582.445,1435.07C609.317,1430.67 623.913,1447.09 626.234,1484.34L626.838,1484.54C627.484,1509.47 623.059,1519.72 616.317,1523.28C610.21,1540.6 598.862,1547.07 582.273,1542.69C583.632,1544.71 514.025,1516.91 500.27,1536.23C469.822,1531.74 450.488,1537.25 442.268,1552.76C406.813,1552.59 388.399,1556.94 363.702,1579.81C313.29,1595.27 288.729,1630.43 256.838,1619.11Z" style="fill:none;stroke-width:1.33px;stroke:black;"/>
            <path id="sunset-sea" d="M192.492,1258.83C193.328,1258.55 194.166,1258.29 195.005,1258.04L194.821,1258.16L192.492,1258.83ZM299.859,1166.53C284.472,1176.33 274.021,1176.68 267.783,1166.96C269.241,1169.23 270.926,1170.93 272.842,1172.06L289.236,1172.06C292.485,1170.83 296.02,1168.98 299.859,1166.53ZM267.668,1166.78L267.717,1166.86L267.687,1166.81L267.668,1166.78ZM299.938,1166.48L300.254,1166.28L300.054,1166.41L299.938,1166.48ZM300.439,1166.16L300.701,1165.99L300.564,1166.08L300.439,1166.16ZM300.942,1165.83L301.171,1165.68L301.077,1165.74L300.942,1165.83ZM301.451,1165.5L301.654,1165.36L301.594,1165.4L301.451,1165.5ZM301.979,1165.14L302.144,1165.03L302.114,1165.05L301.979,1165.14ZM263.774,1157.38L263.801,1157.48L263.791,1157.44L263.774,1157.38ZM263.641,1156.89L263.675,1157.02L263.657,1156.95L263.641,1156.89ZM263.517,1156.41L263.548,1156.53L263.526,1156.45L263.517,1156.41ZM263.249,1155.32L263.28,1155.45L263.272,1155.42L263.249,1155.32ZM263.126,1154.79L263.166,1154.96L263.15,1154.89L263.126,1154.79ZM263.014,1154.28L263.053,1154.46L263.031,1154.36L263.014,1154.28ZM262.905,1153.78L262.939,1153.94L262.914,1153.82L262.905,1153.78ZM311.077,1133.64L311.808,1133.53L311.79,1133.54L311.077,1133.64ZM312.005,1133.5L312.542,1133.42L312.498,1133.43L312.005,1133.5ZM312.711,1133.39L313.286,1133.3L313.201,1133.32L312.711,1133.39ZM313.367,1133.29C316.527,1132.76 319.564,1132.12 322.539,1131.32L322.554,1131.33C319.635,1132.11 316.572,1132.76 313.367,1133.29ZM116.528,2050.6C54.7306,2062.92 20.7435,2072.47 -0.607422,2070.25L-0.810547,1018.63L0.253229,1017.74L0.41276,1070.96C39.4678,1052.01 70.8503,1049.78 94.5602,1064.26C119.797,1064.52 156.413,1143.73 197.796,1108.48C204.306,1100.68 239.62,1101.55 241.978,1108.09C241.741,1122.98 256.315,1152.74 261.515,1153.88L247.257,1160.65C242.516,1158.43 238.861,1154.67 236.294,1149.35C228.692,1148.4 226.76,1144.94 230.499,1138.97C224.428,1135 219.994,1135.63 217.197,1140.86C210.956,1158.1 201.137,1170.61 187.738,1178.38C184.824,1190.22 174.965,1205.66 161.56,1224.74C167.86,1234 171.178,1239.83 170.857,1244.01C171.152,1237.89 154.789,1239.72 147.785,1233.4C139.562,1219.65 138.885,1218.38 134.97,1211C124.325,1199.5 112.841,1201.03 99.5078,1231.23C97.4053,1242.83 91.1357,1254.73 81.9888,1260.9C61.7088,1274.57 83.9287,1387.75 76.2506,1404.91C76.2506,1404.91 58.4965,1530.09 64.0995,1550.92C41.7715,1646.13 63.705,1685.14 103.543,1754.53L46.2594,1857.19C26.1335,1945.54 54.1154,1978.97 139.744,1961.58C164.086,1955.21 211.361,1942.85 211.361,1942.85C242.427,1967.38 259.441,1964.47 271.878,1936.09C271.878,1936.09 283.083,1930.99 289.041,1929.75C289.888,1941.71 288.933,1932.31 276.528,1945.58C283.653,1959.11 281.521,1966.57 270.132,1967.96L250.247,2052.42L230.893,2063.61C237.634,2068.15 237.945,2074.47 231.825,2082.56C212.999,2043.12 191.561,2058.73 172.764,2096.35C158.181,2084.19 140.714,2045.78 116.528,2050.6Z" style="fill:none;stroke-width:1.33px;stroke:black;"/>
            <path id="the-golden-sound" d="M103.543,1754.53L46.2594,1857.19C26.1335,1945.54 54.1154,1978.97 139.744,1961.58C164.086,1955.21 211.361,1942.85 211.361,1942.85C242.427,1967.38 259.441,1964.47 271.878,1936.09C271.878,1936.09 282.152,1931.41 288.257,1929.93C294.487,1918.74 295.6,1908.05 291.598,1897.87C296.58,1895.51 302.342,1895.18 308.883,1896.9C303.59,1895.25 297.763,1894.91 291.4,1895.89C292.867,1874.08 287.98,1863.39 269.114,1877.21C251.698,1874.47 235.204,1874.91 223.15,1890.62L190.869,1905.5C210.041,1891.89 216.359,1876.77 209.822,1860.13C230.837,1867.81 243.535,1855.51 252.452,1834.12C262.193,1836.27 271.925,1830.35 281.648,1816.36C293.434,1820.7 303.017,1818.37 310.399,1809.38C303.487,1812.26 295.902,1813.85 287.946,1813.85C255.634,1813.85 229.439,1787.65 229.439,1755.34C229.439,1723.03 255.634,1696.83 287.946,1696.83C308.057,1696.83 325.798,1706.98 336.329,1722.43L341.65,1701.17C353.836,1701.82 361.777,1696.15 360.377,1676.56C381.067,1652.55 373.882,1634.67 347.624,1620.97L353.525,1605.23L382.965,1596.53C397.341,1609.21 410.302,1614.68 420.15,1604.3L435.89,1601.58C445.544,1608.03 456.334,1604.84 468.262,1592.01L489.235,1594.35C489.201,1593.85 489.174,1593.34 489.156,1592.82C497.2,1607.38 511.686,1600.89 529.101,1584.85C546.002,1580.56 555.212,1569.33 556.731,1551.14C570.897,1557.84 579.404,1555.05 582.251,1542.79C580.326,1543.41 513.695,1517.37 500.27,1536.23C469.822,1531.74 450.488,1537.25 442.268,1552.76C406.813,1552.59 388.399,1556.94 363.702,1579.81C313.29,1595.27 288.729,1630.43 256.838,1619.11C220.677,1643.52 178.389,1637.05 137.029,1696.71L103.543,1754.53Z" style="fill:none;stroke-width:1.33px;stroke:black;"/>
            <path id="west-summer-sea" d="M451.796,2697.62C457.07,2695.15 462.969,2693.57 469.545,2693.26L476.709,2680.89L499.332,2670.14L498.461,2665.29C500.178,2663.02 501.773,2660.68 503.114,2658.42L518.016,2659.05C513.786,2668.86 510.342,2671.9 507.074,2673.54C503.589,2688.32 498.283,2701.35 491.154,2712.66C503.346,2721.77 504.722,2733.58 495.281,2748.11C491.712,2763.21 492.222,2777.57 495.521,2791.43L531.564,2815.25C544.241,2799.19 556.561,2801.05 568.719,2811.05C575.455,2806.37 582.58,2802.97 592.434,2808.57C621.08,2813.76 650.829,2801.09 681.682,2770.54C688.279,2781.24 698.594,2786.91 710.6,2790.3L721.486,2798.31C736.842,2802.17 739.614,2814.34 718.743,2819.94C683.219,2817.37 673.552,2827.46 686.179,2848.02C698.292,2867.74 732.376,2860.17 732.376,2860.17C766.796,2846.61 800.667,2832.34 723.19,2922.06L725.893,2974.4L0.585286,2974.4L-0.607422,2070.25C20.7435,2072.47 54.7306,2062.92 116.528,2050.6C140.714,2045.78 158.181,2084.19 172.764,2096.35C191.561,2058.73 212.999,2043.12 231.825,2082.56L232.042,2083C236.519,2092.28 235.761,2098.97 229.768,2103.06C247.791,2113.55 253.431,2127.81 231.825,2150.35C239.103,2151.6 246.496,2152.32 254.017,2152.46C245.898,2153.08 237.608,2153.35 229.145,2153.28C253.241,2171.98 266.551,2191.21 264.098,2211.32L263.84,2211.35C259.061,2221.41 251.261,2227.87 240.439,2230.72C215.944,2237.42 202.682,2247.54 214.132,2265.21C221.613,2274.89 224.505,2282.26 220.893,2287.17C217.28,2292.08 207.164,2294.52 188.627,2294.33C151.669,2289.89 135.783,2312.02 134.314,2352.33C88.5106,2374.87 61.0512,2407.24 60.403,2454L53.6582,2505.75C34.8324,2541.77 34.3234,2572.56 60.5853,2595.69C78.5436,2617.37 77.8457,2637.55 64.429,2660.35C91.5163,2675.13 98.3824,2698.39 75.6947,2734.04L78.3529,2737L65.8665,2737L65.8665,2883.02L170.721,2883.02L188.799,2859.8L189.346,2860.41C219.561,2898.83 248.817,2885.26 277.637,2848.08C288.367,2829.43 292.086,2811.74 293.367,2796.15C307.941,2793.81 322.814,2790.34 338.346,2784.39C354.731,2796.77 375.589,2798.9 400.919,2790.79C433.026,2805.14 441.106,2795.57 425.158,2762.09C471.61,2754.9 428.177,2726.84 451.796,2697.62Z" style="fill:none;stroke-width:1.33px;stroke:black;"/>
            <path id="redwyne-straights" d="M451.796,2697.62C428.177,2726.84 471.61,2754.9 425.158,2762.09C441.106,2795.57 433.026,2805.14 400.919,2790.79C375.589,2798.9 354.731,2796.77 338.346,2784.39C322.814,2790.34 307.941,2793.81 293.367,2796.15C292.086,2811.74 288.367,2829.43 277.637,2848.08C248.817,2885.26 219.561,2898.83 189.346,2860.41L188.799,2859.8L226.109,2811.88C230.659,2813.93 237.036,2813.1 245.239,2809.39C253.817,2801.5 252.08,2795.21 248.869,2789.15C237.355,2789.84 228.789,2779.74 223.171,2758.86L205.202,2761.83C197.132,2756.21 197.147,2748.24 198.317,2739.93C187.589,2725.09 177.808,2714.86 174.645,2737L78.3529,2737L75.6947,2734.04C98.3824,2698.39 91.5163,2675.13 64.429,2660.35C77.8457,2637.55 78.5436,2617.37 60.5853,2595.69C34.3234,2572.56 34.8324,2541.77 53.6582,2505.75L60.403,2454C61.0512,2407.24 88.5106,2374.87 134.314,2352.33C135.783,2312.02 151.669,2289.89 188.627,2294.33C207.164,2294.52 217.28,2292.08 220.893,2287.17C224.505,2282.26 221.613,2274.89 214.132,2265.21C202.682,2247.54 215.944,2237.42 240.439,2230.72C251.261,2227.87 259.061,2221.41 263.84,2211.35L264.098,2211.32L264.085,2211.47L270.689,2221.03C295.685,2214.31 310.446,2220.32 314.973,2239.07C352.507,2241.99 367.345,2251.43 359.486,2267.38C408.157,2296.1 404.427,2311.93 348.296,2314.84L335.984,2323.56C364.492,2340.78 374.147,2353.25 364.947,2360.99C376.872,2366.79 382.097,2372.57 380.621,2378.35C380.318,2378.41 380.017,2378.47 379.715,2378.54C379.528,2372.06 375.657,2366.07 363.684,2361.12L349.725,2368.3C328.342,2374.1 314.6,2371.83 308.498,2361.5L308.125,2352.86L296.758,2360.9C296.106,2367.42 292.07,2372.69 284.65,2376.69C276.172,2390.96 281.85,2388.72 271.58,2406.09C276.092,2418.08 272.971,2428.07 262.215,2436.08C248.411,2445.23 238.038,2445.45 229.225,2441.63L193.051,2489.15C201.269,2501.89 195.371,2511.52 183.055,2519.73C195.158,2545.85 217.437,2561.85 201.826,2592.95L230.336,2602.71C262.988,2577.62 292.384,2564.29 306.242,2568.94C309.309,2568.73 312.26,2568.43 315.096,2568.04C312.675,2568.57 310.169,2569.07 307.578,2569.53C312.773,2594.47 299.342,2620.16 258.687,2646.93L297.174,2705.28C304.994,2706.47 313.254,2708.78 322.48,2713.53C322.685,2724.25 330.889,2727.56 330.125,2747.36L342.824,2744.5C353.588,2732.68 364.634,2732.23 375.963,2743.13L383.018,2736.34C389.307,2721.19 402.338,2720.68 418.432,2726.82C428.405,2715.03 438.606,2703.66 451.796,2697.62Z" style="fill:none;stroke-width:1.33px;stroke:black;"/>
            <path id="east-summer-sea" d="M708.31,2789.62L708.429,2789.65L708.689,2789.73L708.817,2789.77L709.184,2789.88L708.853,2789.78L708.817,2789.77L708.784,2789.76L708.689,2789.73L708.507,2789.68L708.429,2789.65L708.369,2789.63L708.31,2789.62ZM705.701,2788.75L705.641,2788.72L705.334,2788.61C705.054,2788.51 704.774,2788.41 704.497,2788.31L704.231,2788.21L704.096,2788.15L704.08,2788.15L704.06,2788.14L703.882,2788.07L703.693,2788L703.665,2787.99L703.646,2787.98L703.534,2787.94L703.284,2787.84L703.253,2787.82L703.242,2787.82L703.284,2787.84L703.646,2787.98L703.693,2788L704.06,2788.14L704.096,2788.15L704.497,2788.31L704.915,2788.46L705.334,2788.61L705.701,2788.75ZM694.112,2783.16L693.883,2783.01L693.665,2782.87L693.646,2782.85L693.588,2782.81L693.447,2782.72L693.415,2782.7L693.354,2782.66L693.23,2782.57L693.202,2782.55L693.184,2782.54L693.126,2782.5L693.014,2782.42L692.977,2782.4L692.954,2782.38L692.901,2782.35L692.8,2782.28L692.753,2782.24L692.726,2782.22L692.678,2782.19L692.586,2782.12L692.529,2782.08L692.498,2782.06L692.456,2782.03L692.373,2781.97L692.306,2781.92L692.272,2781.9L692.235,2781.87L692.161,2781.82L692.084,2781.76L692.047,2781.74L692.016,2781.71L691.95,2781.66L691.862,2781.6L691.823,2781.57L691.797,2781.55L691.74,2781.51L691.64,2781.43L691.599,2781.4L691.578,2781.39L691.531,2781.35L691.419,2781.27L691.377,2781.24L691.361,2781.22L691.323,2781.19L691.198,2781.1L691.156,2781.07L691.145,2781.06L691.116,2781.03L690.976,2780.92L690.937,2780.89L690.909,2780.87L690.75,2780.75L690.929,2780.89L690.976,2780.92L691.145,2781.06L691.198,2781.1L691.361,2781.22L691.419,2781.27L691.578,2781.39L691.64,2781.43L691.797,2781.55L691.862,2781.6L692.016,2781.71L692.084,2781.76L692.235,2781.87L692.306,2781.92L692.456,2782.03L692.529,2782.08L692.678,2782.19L692.753,2782.24L692.901,2782.35L692.977,2782.4L693.126,2782.5L693.202,2782.55L693.354,2782.66L693.428,2782.71L693.588,2782.81L693.654,2782.86L693.851,2782.99L693.88,2783.01L694.112,2783.16ZM689.234,2779.48L689.078,2779.34L688.903,2779.19L689.229,2779.48L689.234,2779.48ZM685.92,2776.21L685.908,2776.2L685.843,2776.13L685.723,2775.99L685.699,2775.97L685.676,2775.94L685.609,2775.86L685.516,2775.76L685.48,2775.72L685.446,2775.68L685.384,2775.61L685.31,2775.52L685.263,2775.46L685.218,2775.41L685.165,2775.35L685.106,2775.28L685.046,2775.21L684.992,2775.14L684.949,2775.09L684.903,2775.04L684.83,2774.95L684.768,2774.87L684.736,2774.83L684.702,2774.79L684.611,2774.68L684.546,2774.6L684.525,2774.57L684.502,2774.55L684.326,2774.32L684.525,2774.57L684.611,2774.68L684.736,2774.83L684.83,2774.95L684.949,2775.09L685.046,2775.21L685.165,2775.35L685.263,2775.46L685.384,2775.61L685.48,2775.72L685.609,2775.86L685.699,2775.97L685.843,2776.13L685.92,2776.21ZM682.761,2772.2L682.738,2772.17L682.725,2772.15L682.761,2772.2ZM1224.8,2700.99C1202.57,2697.4 1187.04,2690.92 1175.67,2682.63C1187.6,2692.83 1202.84,2699.98 1224.8,2700.99ZM1310.76,2620.14C1314.02,2612.02 1319.31,2604.21 1326.65,2596.71C1313.1,2606.36 1303.09,2608.29 1298.25,2598.93C1281.61,2587.63 1295.65,2574.37 1291.21,2558.51C1298.98,2552.76 1301.83,2545.28 1299.75,2536.06C1284.48,2506.87 1305.94,2489.66 1307.54,2476.74C1293.06,2465.95 1286.99,2456.24 1290.34,2441.82C1264.3,2451.89 1228.19,2452.72 1219.21,2424.37C1206.71,2407.33 1207.16,2396.02 1220.56,2390.41C1228.13,2364.93 1238.64,2349.85 1255.62,2357.68L1270.45,2350.89C1272.37,2336.17 1290.65,2324.73 1313.11,2311.18C1322.25,2322.36 1335.67,2308.37 1349.7,2301.96C1378.13,2313.83 1372.88,2302.93 1413.01,2291.25C1446.46,2296.06 1465.49,2281.42 1497.85,2293.66L1494.68,2975.14L725.778,2972.18L723.19,2922.06C800.667,2832.34 766.796,2846.61 732.376,2860.17C732.376,2860.17 698.292,2867.74 686.179,2848.02C673.552,2827.46 683.219,2817.37 718.743,2819.94C739.614,2814.34 736.842,2802.17 721.486,2798.31L721.49,2798.22C721.859,2790.5 740.63,2788.23 767.785,2788.43C773.562,2791.86 782.368,2791.44 794.203,2787.17L796.924,2780.36L790.41,2767.75C779.098,2760.75 772.491,2754.4 768.807,2748.36L768.85,2748.35C772.654,2754.63 779.856,2760.92 792.756,2767.58L797.568,2780.3C821.448,2765.24 845.219,2771.25 868.916,2791.67C880.195,2784.86 891.012,2781.74 901.367,2782.28L917.289,2743.28C942.361,2751.44 964.55,2760.36 980.398,2770.93C998.697,2761.42 1016.87,2754.88 1034.47,2762.64L1046.34,2749.92C1074.49,2767.61 1104.14,2775.1 1137.09,2760.14L1139.92,2767.69L1146.35,2754.98C1155.27,2762.5 1164.72,2766 1175.36,2760.64C1183.72,2739.66 1194.63,2731.38 1208.09,2735.81C1221.37,2736.47 1227.99,2722.57 1231.53,2701.96L1231.87,2702C1239.23,2694.16 1246.67,2692.3 1254.19,2696.43C1248.84,2681.24 1256.99,2665.67 1281.46,2649.65C1281.89,2650.03 1282.32,2650.38 1282.76,2650.69C1280.08,2657.4 1278.6,2664.72 1278.6,2672.39C1278.6,2704.7 1304.79,2730.9 1337.11,2730.9C1369.42,2730.9 1395.61,2704.7 1395.61,2672.39C1395.61,2640.08 1369.42,2613.88 1337.11,2613.88C1327.63,2613.88 1318.67,2616.14 1310.76,2620.14ZM1279.7,2310.57C1276.49,2313.61 1273.51,2315.14 1270.76,2315.14L1273.25,2313.45L1279.7,2310.57ZM710.099,2790.15L710.038,2790.14L709.978,2790.12L709.898,2790.1L709.716,2790.04L709.619,2790.01L709.586,2790L709.549,2789.99L709.22,2789.89L709.586,2790L709.716,2790.04L709.978,2790.12L710.099,2790.15ZM682.466,2771.77L682.505,2771.83L682.487,2771.8L682.466,2771.77ZM681.986,2771.03L682.008,2771.06L682.222,2771.4L682.246,2771.43L682.239,2771.42L682.222,2771.4L682.119,2771.24L682.008,2771.06L681.994,2771.04L681.986,2771.03Z" style="fill:none;stroke-width:1.33px;stroke:black;"/>
            <path id="sea-of-dorne" d="M1297.9,2598.67C1281.89,2587.37 1295.61,2574.22 1291.21,2558.51C1298.98,2552.76 1301.83,2545.28 1299.75,2536.06C1284.48,2506.87 1305.94,2489.66 1307.54,2476.74C1293.06,2465.95 1286.99,2456.24 1290.34,2441.82C1264.3,2451.89 1228.19,2452.72 1219.21,2424.37L1215.51,2437.58C1202.29,2438.7 1190.76,2441.02 1182.93,2445.99L1168.1,2443.03C1178.53,2426.97 1168.63,2422.8 1149.47,2424.02L1136.35,2420.68C1129.3,2403.02 1118.36,2402.11 1103.51,2417.96C1082.32,2405.98 1063.59,2404.01 1048.43,2416.67C1040.64,2413.54 1036.09,2410.67 1031.03,2413.06C1025.08,2413.09 1020.64,2409.27 1017.7,2401.58C1029.11,2380.53 998.204,2368.29 978.084,2375.29C981.798,2363.94 984.015,2353.5 984.859,2343.92C978.99,2361.38 976.339,2375.41 978.187,2384.64C972.483,2390.66 969.033,2398.2 970.543,2409.08L956.344,2416.91C944.881,2399.76 932.004,2405.2 917.947,2417.13L897.195,2404.78L863.113,2420.85L872.148,2438.73L869.057,2460.36C864.036,2462.23 860.125,2466.94 857.061,2472.24C839.475,2476.9 835.482,2483.41 845.082,2491.78C830.693,2495.7 822.496,2503.5 827.922,2519.82C820.368,2527.8 811.572,2535.78 807.797,2547.98C784.727,2543.32 775.454,2545.75 766.088,2559.63L766.17,2559.66C766.02,2573.29 771.795,2575.38 783.496,2565.93C793.91,2569.34 802.228,2569.83 808.451,2567.41C819.309,2573.57 828.911,2570.7 837.941,2563.73C849.065,2573.08 863.562,2577.51 885.48,2571.13C891.834,2575.46 901.053,2576.98 913.139,2575.71C925.433,2583.86 935.628,2579.73 944.869,2570.02C947.268,2575.94 951.755,2580.81 958.328,2584.61C956.661,2592.51 957.508,2603.53 957.054,2613.82C958.554,2605.3 958.988,2595.11 959.105,2584.41C976.968,2591.31 994.868,2592.81 1012.81,2588.91C1035.39,2617.91 1059.54,2617.36 1084.77,2596.57C1102.05,2608.37 1120.7,2617.38 1143.65,2617.68C1151.29,2626 1159.2,2622.29 1167.24,2613.11C1186.27,2616.09 1201.67,2609.18 1213.43,2592.37C1227.99,2589.29 1239.58,2582.41 1244.66,2567.2L1266.63,2558.18C1271.04,2573.92 1281.45,2587.41 1297.9,2598.67L1298.06,2598.79L1298.25,2598.93L1297.9,2598.67Z" style="fill:none;stroke-width:1.33px;stroke:black;"/>
            <path id="shipbreaker-bay" d="M1449.68,1944.7C1447.88,1975.39 1422.42,1999.72 1391.28,1999.72C1358.97,1999.72 1332.77,1973.52 1332.77,1941.21C1332.77,1934.15 1334.02,1927.39 1336.31,1921.13L1242.02,1798.6C1223.14,1790.7 1232.5,1785.39 1254.71,1781.25L1264.46,1781.25L1322.54,1698.66L1465.52,1698.66L1465.52,1944.7L1449.68,1944.7ZM1146.98,1769.86C1142.46,1756.11 1157.41,1751.97 1185.97,1754.49L1187.5,1738.96L1225.71,1737.22C1226.61,1727.36 1234.21,1718.25 1248.48,1709.88C1239.07,1704.49 1236.48,1698.36 1237.01,1691.91C1249.62,1692.5 1260.01,1684.65 1268.21,1668.37C1265.64,1662 1267.01,1653.04 1272.3,1641.51L1268.88,1641.71C1275.4,1632.01 1283.25,1623.48 1295.26,1618.62C1300.25,1619.38 1305.15,1624.41 1310.01,1631.37C1311.33,1619.33 1318.13,1614.99 1330.42,1618.34C1327.53,1599.42 1329.64,1587.1 1342.75,1589.26C1347.02,1605.91 1354.34,1605.7 1364.72,1588.62C1373.94,1554.97 1391.18,1545.34 1413.92,1552.14C1445.68,1555.76 1474.08,1561.97 1496.82,1572.54L1498.86,2332.84L1497.66,2332.79L1497.85,2293.66C1465.49,2281.42 1446.46,2296.06 1413.01,2291.25C1372.88,2302.93 1378.13,2313.83 1349.7,2301.96C1335.73,2308.35 1322.36,2322.25 1313.21,2311.31L1313.11,2311.18C1299.05,2310.35 1292.61,2304.99 1289.63,2297.57C1286.11,2303.31 1282.79,2307.64 1279.7,2310.57L1273.25,2313.45L1270.76,2315.14C1268.06,2315.15 1265.59,2313.69 1263.35,2310.77C1254.78,2325.62 1245.72,2330.29 1235.56,2312.6L1228.03,2310.8C1230.49,2304.34 1231.83,2297.33 1231.83,2290.01C1231.83,2257.69 1205.64,2231.5 1173.33,2231.5C1141.32,2231.5 1115.32,2257.2 1114.83,2289.09C1084.82,2293.8 1079.52,2284.68 1098.94,2261.73C1074.86,2254.24 1074.03,2246.47 1096.46,2238.42C1105.11,2227.14 1115.14,2224.51 1126.56,2230.55L1136.44,2228.18C1135.53,2221.04 1139.48,2216.55 1148.27,2214.71C1154.55,2233.82 1161.23,2234.22 1168.3,2215.93L1176.56,2201.49L1174.69,2178.05L1186.19,2171.5C1179.6,2167.12 1177.66,2160.61 1180.37,2151.96C1168.04,2143.21 1161.04,2133.06 1159.38,2121.5C1156.32,2121.2 1153.43,2121.37 1150.85,2122.01L1150.78,2120.15C1166.52,2115 1179.05,2115.76 1188.56,2122.34L1217.53,2119.38C1214.51,2108.06 1220.05,2102.23 1234.14,2101.87C1220.82,2096.12 1217.28,2089.18 1235.26,2079.58C1224.31,2063.09 1228.02,2054.03 1246.4,2052.42L1236.86,2046.06C1222.54,2057.54 1211.88,2054.81 1204.91,2037.86C1202.63,2052.03 1192.67,2056.68 1175.03,2051.79C1181.81,2038.51 1177.79,2022.67 1168.87,2005.66L1196.99,2003.34C1191.9,1975.03 1223.62,1944.96 1237.86,1906.47C1226.33,1892.25 1218.07,1879.56 1209.92,1866.81L1208.32,1861.33C1211.06,1852.03 1198.99,1843.81 1188.15,1834.82C1169.4,1836.09 1162.3,1824.52 1165.74,1800.77C1167.67,1786.09 1161.73,1776.05 1147.93,1770.66L1146.98,1769.86Z" style="fill:none;stroke-width:1.33px;stroke:black;"/>
            <path id="blackwater-bay" d="M1209.92,1866.81L1207.98,1863.79L1208.63,1886.83C1219.98,1900.85 1223.93,1914.96 1211.6,1929.29C1200.6,1948.94 1186.61,1961.48 1169.64,1966.9C1166.74,1979.05 1159.21,1985.43 1147.05,1986.04C1130.2,2003.44 1119.91,2008.77 1112.6,2008.61L1112.2,2010.62L1107.85,2009.64L1111.64,2005.09L1104.14,1977.3C1078.34,1988.78 1052.94,1995.78 1028.13,1996.24C1001.58,2012.72 981.448,2017.87 975.416,1998.1C956.576,2011.31 954.52,2005.16 969.249,1979.64C947.773,1960.93 954.395,1949.6 989.117,1945.65C1000.51,1932.94 1015.27,1926.39 1033.38,1926.01L1028.59,1942.44L1043.59,1931.02C1041.18,1908.08 1052.33,1897.02 1069.64,1891.34C1063.56,1885.61 1061.66,1879.46 1063.93,1872.91L1036.81,1879.53L1014.6,1879.15L1015.6,1875.87C1023.52,1875.84 1030.17,1876.45 1035.77,1877.59L1063.36,1831.05C1083.54,1819.18 1087.96,1810.16 1081.73,1798.52L1112.87,1773.73C1118.55,1763.55 1124.94,1763.72 1132.02,1774.24L1148.45,1773.4C1147.8,1772.11 1147.28,1770.89 1146.98,1769.86L1147.93,1770.66C1161.73,1776.05 1167.67,1786.09 1165.74,1800.77C1162.3,1824.52 1169.4,1836.09 1188.15,1834.82C1198.99,1843.81 1211.06,1852.03 1208.32,1861.33L1209.92,1866.81Z" style="fill:none;stroke-width:1.33px;stroke:black;"/>
            <path id="the-shivering-sea" d="M1189.04,947.098C1191.34,945.833 1196.64,945.259 1202.61,945.172C1196.53,945.071 1191.77,945.599 1189.04,947.098ZM1183.83,930.552C1184.07,930.556 1184.32,930.558 1184.57,930.558L1184.19,930.557L1183.83,930.552ZM1184.95,930.555L1184.57,930.558L1184.78,930.557L1184.95,930.555ZM1183.79,930.551L1183.44,930.542L1183.09,930.53C1183.32,930.539 1183.55,930.546 1183.79,930.551ZM1183.04,930.528L1182.73,930.513L1182.92,930.522L1183.04,930.528ZM1182.32,930.488L1182.04,930.468L1182.16,930.477L1182.32,930.488ZM1181.64,930.434L1181.36,930.406L1181.43,930.414L1181.64,930.434ZM1181.28,930.397L1181.02,930.368L1181.19,930.388L1181.28,930.397ZM1180.6,930.315L1180.38,930.284L1180.49,930.3L1180.6,930.315ZM1179.96,930.218L1179.75,930.181L1179.82,930.194L1179.96,930.218ZM1179.66,930.165L1179.44,930.123L1179.6,930.154L1179.66,930.165ZM1179.38,930.113L1179.13,930.061L1179.17,930.069L1179.38,930.113ZM1179.03,930.04L1178.85,930L1178.96,930.024L1179.03,930.04ZM1178.44,929.9L1178.27,929.857L1178.34,929.874L1178.44,929.9ZM1178.18,929.831L1177.98,929.776L1178.14,929.821L1178.18,929.831ZM1177.88,929.748L1177.71,929.695L1177.74,929.707L1177.88,929.748ZM1177.61,929.664L1177.46,929.616L1177.55,929.647L1177.61,929.664ZM1177.06,929.481L1176.93,929.431L1176.99,929.455L1177.06,929.481ZM1176.83,929.396L1176.64,929.323L1176.81,929.387L1176.83,929.396ZM1176.55,929.284L1176.41,929.228L1176.45,929.245L1176.55,929.284ZM1176.32,929.187L1176.19,929.13L1176.28,929.171L1176.32,929.187ZM1176.08,929.083L1175.92,929.007L1175.94,929.016L1176.08,929.083ZM1171.37,924.066L1171.36,924.045L1171.37,924.055L1171.37,924.066ZM1171.26,923.738L1171.25,923.707L1171.26,923.725L1171.26,923.738ZM1171.22,923.576L1171.21,923.55L1171.21,923.557L1171.22,923.576ZM1171.17,923.398L1171.16,923.361L1171.16,923.387L1171.17,923.398ZM1171.13,923.244L1171.12,923.195L1171.12,923.215L1171.13,923.244ZM1154.67,919.012L1154.78,919.298L1154.77,919.285L1154.67,919.012ZM1154.5,918.551L1154.49,918.525L1153.94,917.039L1153.97,917.099L1154.5,918.551ZM1153.85,916.781L1153.65,916.246L1153.69,916.336L1153.85,916.781ZM1153.55,915.964L1153.36,915.445L1153.4,915.561L1153.55,915.964ZM1153.15,914.855L1153.05,914.56L1153.12,914.773L1153.15,914.855ZM1153.03,914.508L1152.89,914.13L1152.98,914.376L1153.03,914.508ZM1152.74,913.689L1152.88,914.1L1152.74,913.688L1152.74,913.689ZM1038.8,700.234C1032.91,696.13 1027.06,690.154 1021.23,683.237C1026.35,690.806 1032.21,696.472 1038.8,700.234ZM1079.22,597.099L1079.33,602.973C1082.47,608.572 1087.45,610.031 1094.27,607.352C1094.01,607.681 1093.77,608.013 1093.53,608.349C1087.51,610.342 1082.62,608.739 1078.87,603.541L1078.8,597.34L1079.22,597.099ZM1040.91,386.186C1044.45,389.085 1048.1,391.943 1051.99,394.322C1049,392.875 1046.04,391.189 1043.12,389.274L1040.92,386.228L1040.91,386.186ZM1496.78,976.58L1496.78,955.653C1441.24,946.573 1346.35,980.283 1346.35,980.283C1335.22,975.221 1311.12,975.437 1284.39,969.536C1284.39,969.536 1272.81,942.92 1259.86,943.584C1246.27,973.031 1246.6,972.463 1213.97,945.527C1211.87,945.37 1209.67,945.258 1207.47,945.202C1195.58,943.332 1190.47,938.237 1192.15,929.917C1189.83,930.266 1187.69,930.473 1185.75,930.536L1185.75,930.536L1185.62,930.54L1185.37,930.547L1185.36,930.547C1185.23,930.551 1185.09,930.553 1184.96,930.555L1185.36,930.547L1185.62,930.54L1185.75,930.536L1171.08,923.048C1170.85,922.054 1170.75,920.962 1170.79,919.772L1164.85,919.87L1152.74,913.689C1150.56,907.316 1148.78,899.871 1151.15,891.614C1156.43,889.756 1160.11,887.079 1160.29,882.598C1151.76,883.191 1147.27,876.2 1146.83,861.624L1155.54,861.979L1151.07,849.813L1138.56,850.202C1132.15,842.83 1127.51,832.99 1129.54,824.71L1121.43,822.637L1124.03,815.565C1109.24,819.639 1099.06,806.968 1090.96,786.686C1074.25,785.771 1062.85,782.557 1052.37,781.21C1062.93,782.072 1075.14,784.649 1091.77,784.367C1091.84,776.058 1101.5,772.207 1120.75,772.812C1113.7,764.561 1115.37,758.565 1118.28,752.893C1097.79,750.008 1087.69,741.229 1087.99,726.557C1083.19,729.051 1080.44,727.397 1079.75,721.593L1079.25,702.809C1071.77,705.073 1064.79,706.06 1058.3,705.769C1059.8,705.492 1061.31,705.035 1062.82,704.383L1077.14,702.16L1094.6,705.012L1083.62,696.107L1081.4,683.26L1093.53,681.777C1081.94,680.825 1078.86,672.624 1084.29,657.174L1089.54,646.32C1095.09,662.446 1108.43,653.458 1118.04,663.943C1123.46,663.896 1128.87,664.502 1134.22,669.683C1135.83,676.325 1138.36,680.789 1141.81,683.076C1150.83,683.94 1156.12,680.669 1153.16,668.303C1152.63,659.743 1156.39,654.402 1163.1,651.262L1188.22,651.447L1199.34,624.289C1194.16,610.864 1196.63,602.188 1204.33,596.761C1202.83,591.007 1204.05,587.175 1207.99,585.265C1202.96,568.201 1202.4,551.226 1207.25,534.355C1219.44,541.423 1226.21,552.134 1225.09,568.168C1235.68,571.661 1245.2,575.156 1253.16,578.655L1252.61,592.845L1262.43,601L1268.48,585.569C1263.24,578.189 1263.47,569.836 1267.44,560.818C1276.9,558.055 1280.05,549.441 1280.34,538.169C1287.12,534.665 1293.18,523.866 1298.75,508.075L1293.94,497.579C1299.66,493.83 1302.22,487.119 1301.59,477.446C1293.12,475.985 1293.14,469.744 1297.02,461.331C1285.17,459.328 1282.78,448.978 1288.25,431.712C1280.72,426.066 1276.84,420.423 1276.59,414.781C1256.4,420.976 1239.82,424.083 1228.51,422.677C1221.45,440.574 1207.28,442.148 1189.88,436.302C1189.79,430.762 1189.88,427.779 1186.1,426.61C1175.37,427.653 1169.13,421.667 1164.93,412.485C1151.77,416.386 1142.75,412.584 1135.84,404.886C1119.35,409.953 1108.88,406.645 1104.4,394.96C1093.32,399.687 1082.73,401.348 1072.56,400.301C1075.1,400.211 1077.75,399.822 1080.54,399.08C1077.37,394.065 1076.84,387.4 1078.93,379.086C1075.36,371.533 1073.42,361.586 1075.1,346.375C1069.25,335.459 1066.28,325.406 1069.68,317.254C1063.08,313.716 1062.61,309.093 1063.01,304.314C1058.06,297.635 1057.45,291.895 1058.81,286.582C1053.43,289.294 1050.22,287.783 1049.17,282.047C1034.74,279.428 1029.76,263.13 1034.24,233.154C1029.9,232.067 1026.86,227.915 1025.12,220.697L1034.91,188.165L938.378,39.6888C927.344,21.7933 883.556,30.6266 837.097,-1.46745L1499.52,-1.82682L1502.89,975.29L1496.78,976.58Z" style="fill:none;stroke-width:1.33px;stroke:black;"/>
            <path id="the-narrow-sea" d="M1237.14,1696L1237.14,1696.04L1237.14,1696.03L1237.14,1696ZM1237.09,1695.69L1237.1,1695.75L1237.1,1695.74L1237.09,1695.69ZM1237.05,1695.39L1237.06,1695.46L1237.06,1695.45L1237.05,1695.39ZM1237.02,1695.08L1237.03,1695.17L1237.03,1695.16L1237.02,1695.08ZM1237,1694.77L1237,1694.88L1237,1694.86L1237,1694.77ZM1236.98,1694.47L1236.98,1694.58L1236.98,1694.57L1236.98,1694.47ZM1236.96,1694.16L1236.97,1694.29L1236.96,1694.28L1236.96,1694.16ZM1236.95,1693.86L1236.95,1693.99L1236.95,1693.98L1236.95,1693.86ZM1236.95,1693.55L1236.95,1693.7L1236.95,1693.69L1236.95,1693.55ZM1236.95,1693.25L1236.95,1693.4L1236.95,1693.39L1236.95,1693.25ZM1236.95,1692.94L1236.95,1693.1L1236.95,1693.09L1236.95,1692.94ZM1236.96,1692.63L1236.96,1692.8L1236.96,1692.8L1236.96,1692.63ZM1236.98,1692.31L1236.97,1692.51L1236.97,1692.5L1236.98,1692.31ZM1063.81,1635.6L1063.78,1635.43L1030.32,1621.52C1030.42,1621.91 1030.51,1622.3 1030.6,1622.69L1063.81,1635.6ZM1080.16,1495.06C1087.8,1497.22 1091.78,1503.33 1094.09,1511.23L1097.49,1513.54L1091.51,1510.28C1090.7,1502.72 1087.22,1497.87 1081.09,1495.73C1080.87,1495.93 1080.65,1496.12 1080.42,1496.31L1080.16,1495.06ZM770.356,1025.11L774.954,1015.71L775.007,1015.77C775.867,1015.7 776.735,1015.61 777.612,1015.49C776.805,1019.83 774.386,1023.04 770.356,1025.11ZM996.839,983.89C996.913,984.956 996.887,986.022 996.762,987.088C1012.15,994.801 1025.06,995.431 1036.61,992.137C1022.24,995.55 1008.94,994.034 997.105,985.77C997.03,985.128 996.941,984.501 996.839,983.89ZM983.988,964.065C988.278,967.149 991.821,970.719 994.186,975.487C992.052,971.688 988.65,967.886 983.98,964.082L983.988,964.065ZM1185.75,930.536C1177.18,930.818 1172.29,928.321 1171.08,923.048L1185.75,930.536ZM972.196,1090.21C977.654,1081.42 993.448,1078.21 1014.36,1077.77C1015.47,1069.4 1019.8,1064.57 1027.37,1063.29C1024.89,1056.55 1027.58,1048.34 1035.44,1038.65C1035.59,1026.76 1040.52,1021.37 1046.13,1016.91L1044.16,989.446C1045.44,976.544 1047.76,964.191 1056.83,955.391C1059.88,952.331 1062.06,948.295 1063.38,943.284C1053.13,911.686 1058.51,901.56 1079.52,912.905C1087.29,914.514 1092.56,917.889 1095.33,923.032C1104.25,922.738 1112.13,925.616 1119.53,929.936C1131.95,924.158 1141.88,923.654 1146.31,934.749C1152.31,937.444 1157.88,938.228 1163.01,937.1C1171.72,946.973 1180.4,950.306 1189.04,947.098C1192.77,945.043 1204.43,944.813 1213.97,945.527C1246.6,972.463 1246.27,973.031 1259.86,943.584C1272.81,942.92 1284.39,969.536 1284.39,969.536C1311.12,975.437 1335.22,975.221 1346.35,980.283C1346.35,980.283 1441.24,946.573 1496.78,955.653L1496.82,1572.54C1474.08,1561.97 1445.68,1555.76 1413.92,1552.14C1391.18,1545.34 1373.94,1554.97 1364.72,1588.62C1354.34,1605.7 1347.02,1605.91 1342.75,1589.26C1329.64,1587.1 1327.53,1599.42 1330.42,1618.34C1318.13,1614.99 1311.33,1619.33 1310.01,1631.37C1305.15,1624.41 1300.25,1619.38 1295.26,1618.62C1283.25,1623.48 1275.4,1632.01 1268.88,1641.71L1263.43,1642.02C1252.93,1660.04 1239.58,1671.17 1223.39,1675.42C1217.92,1689.83 1205.89,1693.9 1190.86,1693.26C1184.85,1705.17 1174.36,1712.02 1159.42,1713.83C1135.32,1746.7 1130.69,1728.51 1075.37,1715.57L1051.42,1720.52C1017.94,1742.08 985.107,1731.7 952.907,1689.38L957.541,1679.25L980.762,1678.45C1003.24,1697.46 1032.74,1698.55 1069.27,1681.71L1077.26,1685.95C1084.54,1684.69 1093.39,1679.39 1103.81,1670.05C1106.35,1666.16 1104.54,1661.88 1098.37,1657.2C1105.64,1661.46 1107.73,1665.89 1104.65,1670.48C1124.61,1677.58 1143.64,1665.65 1162.02,1640.71L1176.6,1618.97L1207.89,1614.84L1182.2,1609.88C1172.37,1600.83 1177.6,1589.03 1193.13,1575.34L1176.39,1564.39C1136.38,1561.48 1129.97,1554.56 1172.63,1541.81C1188.18,1535.62 1204.59,1534.24 1221.59,1536.15L1235.25,1554.76L1261.77,1529.48L1274.09,1550.89C1303.98,1543.34 1295.38,1526.45 1329.37,1518.89L1344.77,1495.62C1330.12,1499.15 1317.4,1497.78 1306.62,1491.51C1299.44,1496.69 1293.18,1496.01 1287.82,1489.46C1278.54,1497.55 1269.45,1496.87 1260.44,1492.2C1250.6,1508.02 1239.2,1510.94 1226.74,1505.03C1207.54,1517.1 1189.23,1520.75 1171.79,1515.99C1148.08,1526.3 1127.93,1527.95 1111.33,1520.93C1145.35,1512.43 1150.22,1493 1203.14,1483.76C1212.72,1460.87 1205.33,1469.23 1209.15,1447.95L1244.08,1445.54C1261,1439.61 1269.4,1433.81 1273.94,1428.05C1262.65,1425.38 1263.49,1416.78 1269.84,1405.49L1283.35,1411.97C1291.53,1404.76 1296.22,1398.56 1305.74,1401.69L1309,1382.41C1298.54,1384.36 1293.13,1381.98 1292.77,1375.26C1288.15,1368.18 1293.03,1363.27 1299.26,1358.67L1285.1,1364.96C1285.14,1379.98 1280.24,1389.12 1270.37,1386.19C1252.84,1385.89 1253.17,1373.18 1256.04,1362.25L1239.14,1362.25C1236.66,1354.48 1242.65,1347.35 1257.11,1340.88C1265.67,1340 1269.26,1335.79 1267.88,1328.25C1276.55,1321.52 1284.64,1318 1292.48,1315.93L1290.08,1306.06L1297.95,1294.08C1281.1,1311.19 1266.06,1320.92 1254.97,1314.42C1254.72,1321.38 1247.88,1325.76 1234.43,1327.58C1226.07,1332.74 1214.55,1334.17 1199.88,1331.86C1188.12,1341.57 1176.87,1344.62 1166.72,1333.05C1159.71,1349.27 1153.08,1349.18 1146.5,1346.75C1147.35,1359.66 1126.6,1366.56 1096.01,1370.71C1094.65,1372.5 1093.29,1374.23 1091.94,1375.91C1092.97,1374.57 1094,1373.2 1095.02,1371.8C1114.38,1313.47 1128.41,1299.98 1190.58,1293.93C1206.38,1292.84 1217.4,1286.38 1221.42,1272.06C1228.88,1267.76 1233.44,1268.84 1241.52,1268.74C1246.17,1265.81 1248.22,1261.45 1247.68,1255.65C1324.54,1198.87 1247.07,1258.36 1250.86,1243.82L1235.35,1261.82C1223.94,1259.79 1216.87,1262.01 1207.11,1280.89L1175.42,1281.99C1184.25,1271.01 1201.48,1257.91 1221.1,1247.41C1214.73,1243.42 1221.43,1236.62 1234.07,1228.55C1215.99,1238.36 1194.53,1253.08 1171.35,1270.29C1161.31,1289.98 1148.99,1293.18 1134.37,1279.88C1122.15,1266.24 1130.6,1255.15 1159.72,1246.59C1170.72,1245.73 1176.56,1239.5 1177.25,1227.89C1179.18,1223.97 1183.37,1221.54 1189.81,1220.58L1193.57,1204.62C1187.81,1211.7 1180.66,1218.65 1167.91,1222.42L1158.35,1236.58C1145.93,1232.38 1142.81,1245.69 1112.15,1252.59C1100.77,1252.88 1096.25,1250.74 1106.82,1243.22L1121.68,1230.87C1150.68,1223.31 1167.2,1213.25 1165.5,1199.57L1202.98,1181.51L1207.85,1174.07C1202.61,1177.4 1197.06,1179.37 1190.84,1178.35C1180.73,1185.24 1172.68,1189.28 1169.14,1187.04C1165.19,1191.44 1159.2,1191.86 1152.28,1190.47L1158.22,1198.45C1145.2,1214.71 1127.46,1222.27 1105.8,1222.62L1096.97,1216.24C1094.85,1236.51 1087.53,1234.15 1079.46,1228.55C1060.59,1236.77 1047.54,1239.56 1047.28,1230.38C1036.14,1222.41 1042.38,1212.39 1060.51,1200.98L1035.19,1210.32C1033.93,1223.56 1028.45,1223.14 1021.06,1216.51L1010.13,1214.93C999.593,1237.92 985.809,1245.76 969.804,1243.22C958.973,1256.66 947.391,1257.79 934.71,1240.94L924.242,1245.47L919.007,1256.85C921.182,1277.41 910.842,1279.24 887.989,1262.33L872.059,1264.39C881.262,1291.16 870.155,1295.78 845.152,1285.23L844.83,1285.28L844.859,1285.46L844.674,1285.6L844.878,1285.58C857.025,1295.88 865.189,1306.53 866.782,1317.73L866.565,1317.74C864.97,1308.56 857.491,1299.71 844.434,1286.14L798.38,1292.3C785.207,1308.37 772.671,1307.55 760.773,1289.84L747.364,1288.89L743.904,1293.97C744.936,1291.51 745.608,1289.21 745.919,1287.08C739.514,1289.33 735.461,1287.1 733.759,1280.4L726.736,1260.37C712.72,1260.44 713.432,1244.7 719.9,1225.65C731.003,1207.87 755.386,1225.96 741.122,1204.29L751.714,1180.87C751.958,1164.62 757.662,1158.23 768.827,1161.7C778.174,1155.07 777.772,1142.81 772.937,1127.99C777.906,1111.22 786.13,1101.38 801.513,1106.77C797.66,1095.65 801.133,1088.07 811.933,1084.02C801.619,1066.25 810.609,1053.31 828.374,1042.57L820.339,993.454C810.886,1002.23 800.434,1009.26 788.038,1012.88C796.627,1009.75 806.154,1003.85 817.137,993.653C823.171,969.706 830.206,966.917 838.241,985.286C855.872,1004.07 864.783,1028.15 860.949,1060L861.625,1060.15C857.574,1068.11 855.29,1077.12 855.29,1086.66C855.29,1118.97 881.484,1145.17 913.796,1145.17C944.916,1145.17 970.361,1120.87 972.196,1090.21ZM1164.85,919.87L1155.04,920.032C1154.34,918.059 1153.51,915.941 1152.74,913.688L1164.85,919.87Z" style="fill:none;stroke-width:1.33px;stroke:black;"/>
        </g>
    </g>
</svg>
